<svg xmlns="http://www.w3.org/2000/svg" viewBox="0 0 342.13 293.91" width="342.13" height="293.91" preserveAspectRatio="none"><defs><style>.cls-1{fill:#dead88;}.cls-2{fill:#ffe7c6;}.cls-3{fill:#ed1941;}.cls-4{fill:#8b172e;}.cls-5{fill:#ed8483;}.cls-6{fill:#b37c59;}.cls-7{fill:#7e3e21;}.cls-8{fill:#d49839;}.cls-9{fill:#662614;}.cls-10{fill:#a65928;}.cls-11{fill:#aa5b2b;}.cls-12{fill:#a8e0f9;}.cls-13{fill:#e8f8ff;}.cls-14{fill:#09683d;}.cls-15{fill:#088751;}.cls-16{fill:#09463d;}</style></defs><title>Home_Map_Screen_new</title><g id="new_library" data-name="new library"><path class="cls-1" d="M281.85,252.92c5.14.11,12.45,0,17.59.1l5.49-98.84c-6-4.67-12.92-4.24-18.95-8.84Q283.93,199.12,281.85,252.92Z"/><path class="cls-2" d="M230.23,137.73q35.31,2.13,70.59,5.63-5.71,55.84-11.44,111.75-29.14-3.06-58.29-5.18Q230.67,193.83,230.23,137.73Z"/><polygon class="cls-1" points="51.48 258.82 33.68 260.08 24.45 166.35 41.78 151.57 51.48 258.82"/><path class="cls-2" d="M84.11,142q-27.6,3.66-55.14,8.15,8.61,55.5,17.21,111,28.93-4.48,58-8.06Q94.11,197.49,84.11,142Z"/><path class="cls-3" d="M241.94,102.68c.26,3.27.53,6.55.78,9.82l-4-.19Q240.36,107.48,241.94,102.68Z"/><polygon class="cls-1" points="304.18 276.33 28.99 282.96 24.24 250.06 306.55 244.13 304.18 276.33"/><polygon class="cls-2" points="285.41 252.47 277.74 251.85 278.02 256.15 285.99 255.63 285.41 252.47"/><polygon class="cls-1" points="273.73 232.21 266.06 231.65 266.1 235.54 274.32 235.72 273.73 232.21"/><polygon class="cls-1" points="256.63 235.17 264.29 235.74 264.12 231.8 256.12 231.72 256.63 235.17"/><polygon class="cls-2" points="276.63 247.19 276.74 251.32 269.74 251.09 269.65 247.29 276.63 247.19"/><polygon class="cls-2" points="249.95 256.02 249.85 251.89 256.84 252.03 256.94 255.83 249.95 256.02"/><polygon class="cls-2" points="260.82 257.1 260.81 261.23 253.81 260.88 253.82 257.09 260.82 257.1"/><polygon class="cls-1" points="246.23 170.57 246.12 166.44 253.11 166.59 253.21 170.39 246.23 170.57"/><polygon class="cls-1" points="249.84 171.82 249.83 175.95 242.84 175.55 242.85 171.75 249.84 171.82"/><path class="cls-3" d="M169.63,21.47c.14,5.28-2.61,9.62-6.13,9.71s-6.49-4.12-6.62-9.41,2.6-9.65,6.13-9.73S169.5,16.18,169.63,21.47Z"/><path class="cls-4" d="M162.39,31.05c2.09-.84,3.59-4.79,3.47-9.5s-1.83-8.6-4-9.33c-3,.86-5.15,4.84-5,9.55S159.38,30.34,162.39,31.05Z"/><path class="cls-3" d="M85.67,106.56l-.27,9.85c1.32-.14,2.63-.27,4-.39C88.12,112.86,86.9,109.71,85.67,106.56Z"/><path class="cls-3" d="M118.48,103.5l-.27,9.84,4-.32Z"/><path class="cls-3" d="M7.76,170.73c-.11,0,19.28-51.39,19.28-51.39l274.42-15,20.35,57.09C321.61,161.46,7.76,170.73,7.76,170.73Z"/><polygon class="cls-4" points="6.26 161.55 322.77 156.4 321.52 162.81 6.88 171.23 6.26 161.55"/><polygon class="cls-1" points="83.66 131.53 100.4 283.36 236.98 279.98 240.5 127.43 83.66 131.53"/><polygon class="cls-4" points="24.62 109.64 25.57 120.37 301.95 105.65 302.26 97.33 24.62 109.64"/><path class="cls-5" d="M247.67,127.12q-83.85-1.73-167.58,4.21c0,.42,0-90.85,81.42-93.63C243,36.38,247.67,127.54,247.67,127.12Z"/><path class="cls-4" d="M168.06,37.76c-2.13-.08-4.31-.14-6.55-.06-83,2.88-81.4,94.05-81.42,93.63q45.09-3.2,90.28-4.17Z"/><path class="cls-3" d="M236.36,126.92q-72.54-1-145,3.65c0,.31-.3-90.55,70.14-92.87C232,36.47,236.36,127.23,236.36,126.92Z"/><polygon class="cls-4" points="253.63 128.33 71.47 136.78 72.5 122.94 252.74 117.76 253.63 128.33"/><polygon class="cls-1" points="73.8 172.17 74.02 176.29 80.98 175.52 80.78 171.72 73.8 172.17"/><path class="cls-4" d="M166.12,42.68a62,62,0,0,1,22.66,9.38,70.23,70.23,0,0,1,9.76,7.71,43.61,43.61,0,0,1,4.3,4.59,43.11,43.11,0,0,1,3.52,5.23,78.29,78.29,0,0,1,8.08,23.34,122.76,122.76,0,0,1,2.26,24.28c-.4-4-.88-8.07-1.56-12.06s-1.41-8-2.33-11.92a111.48,111.48,0,0,0-3.38-11.64,64.11,64.11,0,0,0-4.92-11,40.64,40.64,0,0,0-3.3-5,46.7,46.7,0,0,0-4.06-4.42,77.75,77.75,0,0,0-9.3-7.78,78.84,78.84,0,0,0-10.41-6.25A62.75,62.75,0,0,0,166.12,42.68Z"/><path class="cls-4" d="M163.56,42.74a62.73,62.73,0,0,0-11.08,5,77.52,77.52,0,0,0-10.07,6.74,75.94,75.94,0,0,0-8.89,8.21,43.53,43.53,0,0,0-3.82,4.6,40.67,40.67,0,0,0-3,5.14,64.7,64.7,0,0,0-4.34,11.21,111.78,111.78,0,0,0-2.77,11.77q-1.07,6-1.71,12c-.47,4-.75,8.06-.93,12.12a121.25,121.25,0,0,1,1-24.36,78.05,78.05,0,0,1,6.85-23.69A43.94,43.94,0,0,1,128,66.12a41.88,41.88,0,0,1,4.06-4.79,70.28,70.28,0,0,1,9.35-8.16A61.66,61.66,0,0,1,163.56,42.74Z"/><path class="cls-4" d="M166.32,50.31c.58,5.49,1,11,1.25,16.5s.5,11,.67,16.52.22,11,.19,16.53-.1,11-.4,16.54c-.59-5.5-1-11-1.26-16.5s-.5-11-.67-16.52-.21-11-.19-16.53S166,55.82,166.32,50.31Z"/><polygon class="cls-6" points="102.95 175.96 109.08 247.8 225.4 244.9 227.8 172.84 102.95 175.96"/><polygon class="cls-2" points="235.44 249.25 99.11 252.44 98.56 246.2 235.98 243.08 235.44 249.25"/><polygon class="cls-2" points="114.36 245.9 102.09 246.6 102.34 168.62 109.41 168.41 114.36 245.9"/><polygon class="cls-2" points="115.92 247.42 100.08 248.33 99.96 244.56 115.84 244.56 115.92 247.42"/><polygon class="cls-2" points="219.99 243.26 232.28 243.34 227.99 165.48 221.03 167.78 219.99 243.26"/><polygon class="cls-2" points="218.51 244.86 234.37 244.97 234.27 241.16 218.43 241.99 218.51 244.86"/><polygon class="cls-2" points="233.92 178.63 96.66 180.23 96.24 163.98 231.4 160.51 233.92 178.63"/><polygon class="cls-6" points="92.74 166.33 236.43 162.69 163.35 118.44 92.74 166.33"/><polygon class="cls-2" points="110.79 161.2 210.15 155.31 164.53 127.06 110.79 161.2"/><polygon class="cls-2" points="35.85 253.96 44.49 253.98 44.27 258.14 36.14 258.55 35.85 253.96"/><polygon class="cls-2" points="40.12 259.16 48.11 258.79 48.05 263.1 40.07 263.01 40.12 259.16"/><polygon class="cls-1" points="65.33 239.16 72.96 238.23 72.91 242.54 64.92 242.34 65.33 239.16"/><polygon class="cls-2" points="59.79 252.49 59.9 256.62 66.88 256.07 66.78 252.27 59.79 252.49"/><polygon class="cls-2" points="216.07 138.64 216.18 142.77 223.17 142.79 223.07 138.99 216.07 138.64"/><polygon class="cls-2" points="220.35 144 220.46 148.13 227.45 148.19 227.35 144.39 220.35 144"/><polygon class="cls-2" points="86.15 266.85 86.05 262.71 79.07 263.18 79.17 266.98 86.15 266.85"/><polygon class="cls-7" points="143.68 194.86 149.13 244.12 185.59 243.1 188.34 194.44 143.68 194.86"/><path class="cls-8" d="M165.19,225a1,1,0,0,1-1.07,1h0a1,1,0,0,1-1.11-.93l-.15-5.58a1,1,0,0,1,1.07-1h0a1,1,0,0,1,1.12.92C165.1,221.31,165.15,223.17,165.19,225Z"/><path class="cls-8" d="M170.91,224.89a1,1,0,0,1-1.07,1h0a1,1,0,0,1-1.11-.93l-.15-5.58a1,1,0,0,1,1.07-1h0a1,1,0,0,1,1.12.93C170.82,221.17,170.86,223,170.91,224.89Z"/><polygon class="cls-9" points="149.9 221.27 147.68 198.33 160.45 198.34 161.57 220.59 161.36 220.5 160.14 199.15 148.83 199.22 150.63 220.93 149.9 221.27"/><polygon class="cls-9" points="150.35 224.28 161.6 224.09 162.42 241.34 162.11 241.24 160.98 224.85 151.52 225.16 152.95 241.38 151.95 241.81 150.35 224.28"/><polygon class="cls-10" points="150.63 220.93 149.9 221.27 161.57 220.59 161.36 220.5 150.63 220.93"/><polygon class="cls-10" points="152.93 241.37 162.11 241.24 162.42 241.34 151.95 241.81 152.93 241.37"/><polygon class="cls-9" points="165.48 194.65 167.5 243.59 167.67 243.59 166.38 194.64 165.48 194.65"/><polygon class="cls-9" points="171.16 197.72 171.91 219.91 172.79 219.43 171.78 198.23 183.97 197.84 183.08 219.64 183.42 219.71 184.84 197.28 171.16 197.72"/><polygon class="cls-9" points="172.06 223.64 183.04 223.64 182.82 240.53 182.49 240.41 182.51 224.08 172.92 224.35 172.85 240.42 172.29 240.93 172.06 223.64"/><polygon class="cls-10" points="172.79 219.43 183.08 219.64 183.42 219.71 171.91 219.91 172.79 219.43"/><polygon class="cls-10" points="172.85 240.42 182.49 240.41 182.82 240.53 172.29 240.93 172.85 240.42"/><path class="cls-11" d="M170.29,219.26l-1.11.06.29,5.68h.79Zm-.58,5.54-.35-5.37.76,0,0,5.42Z"/><path class="cls-11" d="M164.39,219.3l-.9.16.17,5.81,1-.06Zm-.74.28.59,0,.25,5.42-.67.09Z"/><polygon class="cls-2" points="100.7 144.42 100.59 140.28 93.61 140.71 93.71 144.51 100.7 144.42"/><polygon class="cls-2" points="97.83 145.57 97.94 149.71 104.92 149.29 104.82 145.49 97.83 145.57"/><polygon class="cls-2" points="75.23 257.77 75.46 261.88 82.43 261.21 82.22 257.41 75.23 257.77"/><polygon class="cls-1" points="85.51 181.06 85.4 176.93 78.43 177.49 78.53 181.29 85.51 181.06"/><polygon class="cls-2" points="141.73 244.46 129.46 244.96 129.71 167.02 135.68 166.78 141.73 244.46"/><polygon class="cls-2" points="143.29 246.01 127.12 246.63 127.28 243.79 143.42 242.77 143.29 246.01"/><polygon class="cls-2" points="193.01 243.21 205.29 243.1 201.96 165.84 195.04 165.33 193.01 243.21"/><polygon class="cls-2" points="191.53 244.84 207.39 244.7 207.43 241.9 191.41 241.79 191.53 244.84"/><polygon class="cls-1" points="232.88 166.74 95.14 170.87 95.25 169.2 232.75 165.34 232.88 166.74"/><polygon class="cls-1" points="233.08 172.23 94.87 176.51 95.13 174.77 232.92 169.28 233.08 172.23"/><polygon class="cls-7" points="78.74 229.91 53.97 231.61 48.5 186.45 77.43 184.46 78.74 229.91"/><polygon class="cls-1" points="49.28 230.86 49.87 234.35 84.17 233.09 84.13 228.25 49.28 230.86"/><polygon class="cls-6" points="44.21 186.94 81.9 185.5 62.71 173.25 44.21 186.94"/><polygon class="cls-12" points="74.85 225.73 57.27 226.93 51.83 189.74 74.13 188.2 74.85 225.73"/><polygon class="cls-13" points="52.18 192.09 74.48 206.77 74.52 208.8 52.86 196.79 52.18 192.09"/><polygon class="cls-13" points="52 190.91 74.47 205.81 74.47 206.18 52.11 191.63 52 190.91"/><polygon class="cls-13" points="55.45 214.5 74.82 224.36 74.84 225.04 55.76 216.57 55.45 214.5"/><path class="cls-7" d="M64.93,228.18c-1.1-17.27-2-30.68-2.63-41.38l1.9-.32c.89,10.65,2,24,3.44,41.14Z"/><polygon class="cls-7" points="51.26 201.05 75.93 198.54 75.72 202.18 51.54 203.93 51.26 201.05"/><polygon class="cls-7" points="77.28 214.85 52.9 216.27 52.85 214.01 77.06 211.97 77.28 214.85"/><polygon class="cls-7" points="278.92 226.64 254.1 225.91 253.12 180.43 282.11 181.28 278.92 226.64"/><polygon class="cls-1" points="249.5 224.7 249.8 228.87 283.9 230.02 284.62 224.91 249.5 224.7"/><polygon class="cls-6" points="248.8 180.5 286.2 181.59 267.39 167.65 248.8 180.5"/><polygon class="cls-12" points="275.45 222.09 257.85 221.57 256.11 184.03 278.45 184.68 275.45 222.09"/><polygon class="cls-13" points="256.2 186.11 276.73 206.25 276.48 209.27 256.5 192.53 256.2 186.11"/><polygon class="cls-13" points="256.17 185.32 276.82 205.01 276.91 203.98 256.11 184.24 256.17 185.32"/><polygon class="cls-13" points="257.35 210.9 275.51 221.35 275.45 222.09 275.02 222.08 257.45 212.92 257.35 210.9"/><polygon class="cls-7" points="265.34 223.56 266.82 182.12 268.74 182 268.1 223.27 265.34 223.56"/><polygon class="cls-7" points="254.4 194.82 279.22 195.14 278.71 197.97 254.41 198.12 254.4 194.82"/><path class="cls-7" d="M279,211.5c-.53.1-24.15-.28-24.15-.28l0-2.39,24.23-.21Z"/><path class="cls-3" d="M41.38,109.68l-1.59,11c1.31,0,2.62,0,3.93.06Q42.55,115.2,41.38,109.68Z"/><path class="cls-3" d="M64.71,109c-.55,3.53-1.11,7.07-1.65,10.61,1.32,0,2.65.09,4,.15Q65.88,114.37,64.71,109Z"/><path class="cls-3" d="M283.19,101.51q1.26,4.68,2.51,9.38l-3.91.41C282.26,108,282.72,104.76,283.19,101.51Z"/><path class="cls-3" d="M262.54,102.09q1.24,4.77,2.48,9.54-2,.21-4,.45C261.55,108.74,262.05,105.41,262.54,102.09Z"/><polygon class="cls-4" points="174.92 41.48 151.32 41.38 151.73 33.44 174.87 33.05 174.92 41.48"/><polygon class="cls-4" points="171.2 35.26 155.33 34.92 155.22 29.47 171.91 28.71 171.2 35.26"/><path class="cls-4" d="M94.2,117s58.28-3.34,73.77-3.83,66.43.42,66.43.42-51,.93-65.77,1.47C154,115.56,94.2,117,94.2,117Z"/><polygon class="cls-2" points="239.35 258.89 95.43 261.19 94.34 255.9 240.08 252.32 239.35 258.89"/><path class="cls-14" d="M16.36,286.38s-6.91-14.3,2.9-9.71c0,0-3.08-12.77,4.95-10.08,0,0,.28-13,8.88-5.12,0,0,10.84-9.45,14.58,10.52,0,0,4.3-1.26,5.14,4,0,0,1.59-3,4.3-2.52,0,0,1.59-9,7-5.13,0,0,4-10.07,11-9,0,0,4.11.9,3.92,7,0,0,7.1-4.13,2.71,7,0,0,8.13-6.3,6.92,9.81Z"/><path class="cls-15" d="M71.59,270.66a3.64,3.64,0,0,1-2.29,1,2.78,2.78,0,0,1,.32-2.26,3.68,3.68,0,0,1,2.3-1A2.76,2.76,0,0,1,71.59,270.66Z"/><path class="cls-15" d="M68.38,270a2,2,0,0,1,0,1.65,2.34,2.34,0,0,1-1.55-.8,2,2,0,0,1,0-1.65A2.36,2.36,0,0,1,68.38,270Z"/><path class="cls-15" d="M30.23,278a3.65,3.65,0,0,1-2,1.47,2.69,2.69,0,0,1-.22-2.25,3.61,3.61,0,0,1,2-1.46A2.67,2.67,0,0,1,30.23,278Z"/><path class="cls-15" d="M26.89,278a1.93,1.93,0,0,1,.37,1.59,2.48,2.48,0,0,1-1.72-.44,1.93,1.93,0,0,1-.37-1.59A2.48,2.48,0,0,1,26.89,278Z"/><path class="cls-15" d="M36.38,266.69a3.58,3.58,0,0,0,1.84,1.65,2.71,2.71,0,0,0,.48-2.21,3.49,3.49,0,0,0-1.84-1.65A2.73,2.73,0,0,0,36.38,266.69Z"/><path class="cls-15" d="M39.7,267a2,2,0,0,0-.54,1.55,2.51,2.51,0,0,0,1.76-.27,2,2,0,0,0,.55-1.55A2.54,2.54,0,0,0,39.7,267Z"/><path class="cls-15" d="M75.15,277.75a2.76,2.76,0,0,0,1.75,1.11,2.49,2.49,0,0,0,.23-2,2.76,2.76,0,0,0-1.75-1.11A2.45,2.45,0,0,0,75.15,277.75Z"/><path class="cls-15" d="M78.28,277.33a1.79,1.79,0,0,0-.34,1.42,2.34,2.34,0,0,0,1.51-.53,1.8,1.8,0,0,0,.34-1.42A2.34,2.34,0,0,0,78.28,277.33Z"/><path class="cls-16" d="M57.19,273.5a4.66,4.66,0,0,1,3.07,1.38s4.07-4.66,5.75-.56c0,0,2.3-1.58,2.21.73,0,0,0-1.92-2.64-.3,0,0-.82-4.14-5.32.64A5.17,5.17,0,0,0,57.19,273.5Z"/><path class="cls-16" d="M25.71,275.54s-2.42-6.82,1.87-5.1c0,0,2.36-7.63,5.74,2.64,0,0,2.48-4.53,3.45.69,0,0-1.09-4.36-3.39.17,0,0-4-9.7-5.37-2.87C28,271.07,24.44,268.83,25.71,275.54Z"/><path class="cls-16" d="M39.21,281.61s-1.1-4,1.69-2.38c0,0,1.33-4.1,3-.93,0,0,2.56-4.36,2.43,1.46,0,0,2-2.51,2.19,1.85,0,0-.46-3.48-2.42-1.32,0,0-.14-4.94-2.25-1.41,0,0-1.6-3.09-3,.88C40.9,279.76,38.7,278,39.21,281.61Z"/><path class="cls-14" d="M246.82,278.89s-4.09-20.12,7.56-15c0,0,7.43-14.22,10,1.66,0,0,6.92-5.5,6.41,5.51,0,0,1.92-2.43,3.2-.64,0,0,2.69-11.4,6.53-5.76,0,0,2.48-21.21,10.68-11.48,0,0-1.1-15.19,3.91-9.67,0,0,4-14,6,.4,0,0,3.74-11.16,6.53-2.57,0,0,1.79-12.93,9-11.27,0,0,4.74,1.67,3.33,10.89,0,0,7.56-5.25,2.43,9,0,0,12.81-5.26.9,12.17,0,0,15.24-2.44,2.43,10.24,0,0,16,4.36,5.38,5.38Z"/><path class="cls-16" d="M274,270.47a8.33,8.33,0,0,1,1.52,3s1.69-6,4.33-4.27c0,0,4.7-9.84,4.83,4.65,0,0,3.57-5.15,4,.12,0,0,2.7-7.9,4.21.75,0,0-1.32-7-4,.26,0,0-1.13-6.09-4.45-.19,0,0-.5-14.18-4.52-5,0,0-2.07-2.7-4.64,4.7,0,0-.27-2.78-1.33-4Z"/><path class="cls-16" d="M302.69,259.67s2.55-15.62,5.62-6.49c0,0,5.53-17,6.85,6.41,0,0,3.86-9.92,2.81.08,0,0,6.06-5.53,1.32,7.91,0,0,3.51-3.87,3,.26,0,0-.44-3.07-3.34.7,0,0,4.31-12.73-1.31-8.16,0,0,1.58-9.31-2.64.17,0,0-.79-21.07-6.58-6.58C308.4,254,306.29,245.36,302.69,259.67Z"/><path class="cls-16" d="M255.34,273s.12-7.11,4.67.81c0,0,1.55-4,3.05-.75,0,0,4.14-5.79,1.67,3.56,0,0,2.07-8.21-1.84-2.93,0,0-.64-3.38-2.88.63C260,274.35,256.61,267.24,255.34,273Z"/><path class="cls-16" d="M264.73,276.65s1.71-3.26,2.87-.39C267.6,276.26,266.68,274,264.73,276.65Z"/><path class="cls-15" d="M288.45,261.72a2.91,2.91,0,0,0,2,.9,3.23,3.23,0,0,0-.42-2.24,2.92,2.92,0,0,0-2-.91A3.23,3.23,0,0,0,288.45,261.72Z"/><path class="cls-15" d="M291.14,260.85a2.37,2.37,0,0,0,.13,1.65,1.92,1.92,0,0,0,1.27-.87,2.36,2.36,0,0,0-.13-1.65A1.9,1.9,0,0,0,291.14,260.85Z"/><path class="cls-15" d="M298,269.28a3.18,3.18,0,0,0,1.81,1.36,3.1,3.1,0,0,0,.06-2.25,3.13,3.13,0,0,0-1.81-1.36A3.09,3.09,0,0,0,298,269.28Z"/><path class="cls-15" d="M267.66,272.72a2.9,2.9,0,0,0,2.07.74,3.27,3.27,0,0,0-.57-2.21,2.85,2.85,0,0,0-2.07-.74A3.27,3.27,0,0,0,267.66,272.72Z"/><path class="cls-15" d="M310.92,256.4a3.25,3.25,0,0,0-.55,2.23,2.78,2.78,0,0,0,2-.74,3.32,3.32,0,0,0,.55-2.23A2.77,2.77,0,0,0,310.92,256.4Z"/><path class="cls-15" d="M300.84,269.11a2.22,2.22,0,0,0-.21,1.6,1.86,1.86,0,0,0,1.44-.52,2.25,2.25,0,0,0,.21-1.61A1.89,1.89,0,0,0,300.84,269.11Z"/><path class="cls-15" d="M299.38,248.86a2.22,2.22,0,0,0-.22,1.61,1.9,1.9,0,0,0,1.44-.52,2.22,2.22,0,0,0,.22-1.61A1.86,1.86,0,0,0,299.38,248.86Z"/><path class="cls-15" d="M296.72,249.53a2.58,2.58,0,0,0,1.81,1,2.86,2.86,0,0,0,0-2.12,2.53,2.53,0,0,0-1.8-1A2.84,2.84,0,0,0,296.72,249.53Z"/><path class="cls-15" d="M254,269.46a2.91,2.91,0,0,1-1.77,1.51,3.51,3.51,0,0,1-.39-2.45,2.91,2.91,0,0,1,1.77-1.51A3.51,3.51,0,0,1,254,269.46Z"/><path class="cls-15" d="M250.82,269.32a2.47,2.47,0,0,1,.47,1.75,2.22,2.22,0,0,1-1.64-.55,2.58,2.58,0,0,1-.47-1.75A2.26,2.26,0,0,1,250.82,269.32Z"/><polygon class="cls-2" points="243.54 269.66 90.92 272.12 90.13 264.78 243.17 262.96 243.54 269.66"/><polygon class="cls-2" points="249.41 281.43 86.26 284.59 85.98 277.63 249.02 274.73 249.41 281.43"/><polygon class="cls-4" points="297.79 116.81 307.14 146.29 306.47 146.51 297.04 116.07 297.79 116.81"/><polygon class="cls-4" points="293.02 117.54 300.98 145.19 300.3 146.09 293.15 119.2 293.02 117.54"/><polygon class="cls-4" points="284.81 109.76 293.11 147.34 293.64 147.56 285.38 110.71 284.81 109.76"/><polygon class="cls-4" points="284.22 130.01 288.19 155.86 288.94 156.09 284.59 130.16 284.22 130.01"/><path class="cls-4" d="M286.71,144s2.23-4.12,5.74-1.1l-.13-.79s-2.5-2.89-5.7,1.45Z"/><path class="cls-4" d="M285.35,135.3s1.61-4.21,5-1.79l-.19-.59a3.59,3.59,0,0,0-5.12,1.58Z"/><path class="cls-4" d="M292.32,142.13s3.64-4.47,7.45.17l0,.51s-3.85-4.87-7.26-.27Z"/><path class="cls-4" d="M290.53,133.45s1.19-6.22,6.3-1.15l.24.6s-4.92-5.24-6.46,1Z"/><path class="cls-4" d="M288.37,123.74s3.34-6.36,6.26-.1l-.25-1s-3.13-5.49-6.21.62Z"/><path class="cls-4" d="M288.09,122.7s-2.85-3.56-5.1,1.33c0,0,2.79-4.19,5.26-.68Z"/><path class="cls-4" d="M286.07,114.22s2.09-6.08,6.23-1.16c0,0-4.19-4.29-6.13,1.84Z"/><path class="cls-4" d="M285.09,134.5s-2.31-3.94-5.6.64c0,0,3.29-4,5.72-.1Z"/><path class="cls-4" d="M286.36,144s-4.63-4.48-5.92.43c0,0,1.19-4.05,6.15.05Z"/><path class="cls-4" d="M288.24,153.94s2.92-6,5.54-1.57c0,0-2.62-3.58-5.37,2.14Z"/><path class="cls-4" d="M294.25,122.11s2.51-5.06,4.88,0l.26.69s-2.47-5.73-5-.19Z"/><path class="cls-4" d="M297.23,133.13s2.77-5.32,5.53-.09l-.34-1.3s-1.82-4.49-5.36.91Z"/><path class="cls-4" d="M299.77,142.3s2.43-5.93,5.33-1.18l.08.61s-2.33-5.23-5.23.86Z"/><path class="cls-4" d="M302.42,131.74s1.45-5,4.81-1.39c0,0-2.76-2.5-4.57,1.87Z"/><path class="cls-4" d="M305.38,141.5s2-5,4.87-.14c0,0-2.82-3.78-4.64.5Z"/><polygon class="cls-4" points="257.86 127 259.76 146.83 259.36 147.18 257.72 128.3 257.86 127"/><polygon class="cls-4" points="262.69 128.91 266.56 152.98 266.1 154.41 262.41 129.15 262.69 128.91"/><path class="cls-4" d="M264.5,142.05s-3.17-3-5.41.67L259,142s1.39-3.28,5.47-.34Z"/><path class="cls-4" d="M263.21,133.93s-2.63-3.27-5-.15v-.57a3.36,3.36,0,0,1,5-.07Z"/><path class="cls-4" d="M259,142s-3.35-3-5.8,1.54c0,0,2.26-3.89,5.78-1.14Z"/><path class="cls-4" d="M258.36,133.84s-3-5.15-6.1.82c0,0,3.12-5.11,6.16-.38Z"/><path class="cls-4" d="M264.44,141.72s2.44-3.53,5.48-.46c0,0-2.75-2.58-5.26.91Z"/><path class="cls-4" d="M265.88,150s-3.07-4.17-5.61.82c0,0,2.65-4,5.41-.45Z"/><path class="cls-4" d="M265.71,150.66s1.81-4.85,5.62-.75c0,0-3.65-3.14-5.32,1.06Z"/><polygon class="cls-4" points="53.92 127.37 48.68 149.49 49.2 148.25 54.66 125.88 53.92 127.37"/><polygon class="cls-4" points="58.75 127.65 52.24 158.65 52.87 159.65 58.72 129.32 58.75 127.65"/><polygon class="cls-4" points="66.43 119.35 60.61 157.39 60.1 157.65 65.92 120.33 66.43 119.35"/><polygon class="cls-4" points="69.29 129.81 66.82 159.37 66.09 159.64 68.92 131.38 69.29 129.81"/><path class="cls-4" d="M66.79,153.66s-2.5-4-5.81-.72l.08-.79s2.31-3.05,5.79,1.07Z"/><path class="cls-4" d="M67.57,144.87s-1.88-4.09-5.15-1.46l.14-.59a3.59,3.59,0,0,1,5.21,1.23Z"/><path class="cls-4" d="M61.06,152.15s-3.93-4.23-7.42.65l.07.51s3.52-5.12,7.23-.75Z"/><path class="cls-4" d="M62.28,143.37s-1.6-6.14-6.37-.74l-.2.61s4.57-5.54,6.52.61Z"/><path class="cls-4" d="M63.79,133.53s-3.74-6.13-6.25.31l.19-1s2.76-5.68,6.23.21Z"/><path class="cls-4" d="M64,132.48s2.61-3.74,5.17,1c0,0-3.06-4-5.28-.33Z"/><path class="cls-4" d="M65.47,123.88s-2.29-5.94-5.71-.78c0,0,3.51-4.54,5.66,1.47Z"/><path class="cls-4" d="M67.77,144.05s2-4.08,5.64.27c0,0-3.55-3.73-5.72.28Z"/><path class="cls-4" d="M67.14,153.63s4.32-4.78,5.93,0c0,0-1.46-4-6.14.45Z"/><path class="cls-4" d="M57.82,132.29s-2.83-4.88-4.87.32l-.21.71s2.08-5.88,5-.52Z"/><path class="cls-4" d="M55.57,143.48s-3.11-5.12-5.53.28l.26-1.32s1.52-4.6,5.41.56Z"/><path class="cls-4" d="M53.64,152.8s-2.85-5.47-5.73-.65c0,0,2.46-3.75,5.56,1Z"/><path class="cls-4" d="M50.67,141.85s-2.8-4.34-5.75,0c0,0,2.53-3.15,5.59.5Z"/><path class="cls-4" d="M52.83,131.78s-2.86-4.7-5.79.43c0,0,3-4.08,5.55,0Z"/><polygon class="cls-4" points="34.4 131.22 29.82 150.61 30.17 151.01 34.35 132.53 34.4 131.22"/><polygon class="cls-4" points="29.35 132.46 22.25 155.78 22.52 157.27 29.6 132.74 29.35 132.46"/><path class="cls-4" d="M25.78,145.23s3.54-2.56,5.27,1.4l.21-.72s-.94-3.43-5.38-1.08Z"/><path class="cls-4" d="M28.16,137.36s3.05-2.88,5,.53l.08-.56a3.34,3.34,0,0,0-4.93-.75Z"/><path class="cls-4" d="M31.26,145.91s3.72-2.49,5.53,2.31c0,0-1.71-4.15-5.57-1.91Z"/><path class="cls-4" d="M33,137.93s3.68-4.69,5.93,1.64c0,0-2.41-5.49-6.06-1.21Z"/><path class="cls-4" d="M25.88,144.92s-1.94-3.83-5.37-1.21c0,0,3.08-2.18,5.09,1.62Z"/><path class="cls-4" d="M23.33,153s3.61-3.71,5.44,1.58c0,0-2.08-4.35-5.29-1.18Z"/><path class="cls-4" d="M23.41,153.6s-1.14-5-5.47-1.5c0,0,4-2.62,5.13,1.76Z"/><polygon class="cls-1" points="36.89 174.8 44.51 173.87 44.46 178.18 36.47 177.98 36.89 174.8"/><polygon class="cls-1" points="268.03 237.58 260.3 237.21 260.57 241.51 268.54 240.92 268.03 237.58"/></g></svg>