<svg xmlns="http://www.w3.org/2000/svg" viewBox="0 0 1280.09 575.9" width="1280.09" height="575.9" preserveAspectRatio="none"><defs><style>.cls-1{fill:#46bc1f;}.cls-2{fill:#c8e9ed;}.cls-3{fill:#a1d0dd;}.cls-4{fill:#ffe500;}.cls-5{fill:#ff9023;}.cls-6{fill:#1e9c45;}</style></defs><title>Home_Map_Screen_new</title><g id="new_center_hill" data-name="new center hill"><path class="cls-1" d="M1281.52,574.59V303.83C710.69,134.12,161.4,258.7-1.71,305.32V576.74Z"/><path class="cls-2" d="M179.82,576.45c-5.19-15.34-8.57-29.3-8.19-38.62C174,478,321,419.18,301,364.55c-9.21-25.29-53.74-12.76-113.89-41.63-16.74,5-24.74-3.45-40,1.74,20.05,22,98.79,23.06,95.8,54.21-4.48,46.72-115.33,52-174.85,128C54.63,524.06,49.83,549,49.27,574.14Z"/><path class="cls-2" d="M102.05,321.48s-32.88,20,79.39,18.45c0,0,113.87-4,79.39-20.85Z"/><path class="cls-3" d="M262.48,394a1.34,1.34,0,0,1-1.29,1.11l-9.54-.07a1.54,1.54,0,0,1-1.39-1.1l-.78-3.12a.73.73,0,0,1,.82-1l11.54,1.21a1,1,0,0,1,.92,1.23Z"/><path class="cls-3" d="M278.63,371.8a1.71,1.71,0,0,1,1.46-1.61l11.39-.54a1.89,1.89,0,0,1,1.74,1.42l1.19,4.25c.22.82-.19,1.45-.92,1.4l-13.86-.89a1.42,1.42,0,0,1-1.2-1.64Z"/><path class="cls-3" d="M258.92,363.19a1.41,1.41,0,0,1-1.19,1.34l-9.4.52a1.57,1.57,0,0,1-1.44-1.16l-1-3.5c-.19-.67.14-1.19.75-1.16l11.44.64a1.17,1.17,0,0,1,1,1.34Z"/><path class="cls-3" d="M254.8,367.71a1.24,1.24,0,0,1,1.11-1.12l8.25,0a1.38,1.38,0,0,1,1.21,1.09l.69,3.12c.14.6-.19,1-.71,1l-10-1.16a1,1,0,0,1-.8-1.22Z"/><path class="cls-3" d="M256.8,398.48a2,2,0,0,1,2-1.51l13.82.81a2.18,2.18,0,0,1,1.91,1.7l.83,4.59a1.07,1.07,0,0,1-1.3,1.35l-16.61-2.6a1.5,1.5,0,0,1-1.22-1.86Z"/><path class="cls-3" d="M248.77,419.25a4.22,4.22,0,0,1-2.78,1.87l-13.35.25c-.86,0-1.31-.77-1-1.74l1.58-5.06a2.17,2.17,0,0,1,2-1.63l15.18,1.51c.81.09.91,1,.24,2Z"/><path class="cls-3" d="M160.79,446.21a6,6,0,0,1,3.87-2.55l18.91-.84c1.21-.05,1.88.95,1.48,2.24L183,451.75a3,3,0,0,1-2.79,2.2l-21.57-1.4c-1.13-.07-1.31-1.23-.4-2.57Z"/><path class="cls-3" d="M243.49,424.25a3.11,3.11,0,0,1,2-1.53l8.83.06c.56,0,.8.68.51,1.5l-1.47,4.27c-.28.83-.94,1.43-1.46,1.35L242,428.3c-.52-.08-.52-.84,0-1.69Z"/><path class="cls-3" d="M188.22,434.67a4.36,4.36,0,0,1,2.61-2.29l12.48-1.23c.8-.08,1.22.77.94,1.88l-1.5,5.8c-.29,1.12-1.14,2-1.89,2l-14.2-.63c-.75,0-.84-1-.21-2.2Z"/><path class="cls-3" d="M169.31,494a4.29,4.29,0,0,1,2.65-1.91l12.23-.55c.78,0,1.15.73.81,1.7l-1.75,5a2.26,2.26,0,0,1-1.93,1.65l-13.8-1.15c-.73-.06-.77-.94-.1-1.95Z"/><path class="cls-3" d="M132.44,494.28a7.57,7.57,0,0,1-5,3l-23.88.45c-1.53,0-2.34-1.23-1.8-2.8l2.82-8.14a3.82,3.82,0,0,1,3.59-2.62l27.17,2.39c1.43.13,1.62,1.56.43,3.18Z"/><path class="cls-3" d="M169.74,576l1.56-2.33c1.11-1.66.9-3.09-.48-3.19l-26.13-1.76a3.69,3.69,0,0,0-3.39,2.72l-1.05,3.46Q155,575.42,169.74,576Z"/><path class="cls-3" d="M109.31,508.19c-.79,1.44-2.26,2.71-3.27,2.82l-15.75,1.68c-1,.11-1.55-.92-1.2-2.27l1.85-7.06c.35-1.36,1.42-2.45,2.36-2.42l17.92.54c1,0,1.08,1.24.29,2.67Z"/><path class="cls-3" d="M61.37,549c.82-1.42,2.32-2.66,3.33-2.75l15.78-1.34c1-.08,1.53,1,1.15,2.3l-2,7c-.38,1.35-1.47,2.41-2.41,2.37l-17.91-.93c-1-.05-1.05-1.26-.23-2.68Z"/><path class="cls-3" d="M80.87,560.24c.65-1.86,2.33-3.48,3.73-3.61l21.78-1.87c1.4-.12,2.5,1.22,2.44,3l-.33,9.16c-.06,1.77-1.22,3.16-2.56,3.11l-25.6-1.06c-1.35-.06-1.92-1.63-1.28-3.49Z"/><path class="cls-3" d="M181.58,486.1c-1.09,1.6-3,2.91-4.13,2.91l-18.27-.17c-1.17,0-1.65-1.3-1.06-2.87l3.07-8.16c.59-1.58,2-2.73,3-2.56l20.46,3.11c1.08.17,1.07,1.62,0,3.23Z"/><path class="cls-3" d="M185.25,467.39c.92-1.43,2.51-2.63,3.54-2.65l16-.36c1,0,1.48,1.09,1,2.48l-2.46,7.22c-.48,1.39-1.64,2.44-2.59,2.32l-18-2.16c-.95-.12-1-1.38-.06-2.82Z"/><path class="cls-3" d="M143.58,534.3c-1.26,1.88-3.42,3.43-4.81,3.44l-21.58.21c-1.38,0-2-1.47-1.32-3.29l3.44-9.48c.66-1.82,2.25-3.18,3.53-3l24.24,3.15c1.27.17,1.29,1.84,0,3.72Z"/><path class="cls-3" d="M133.11,543.07a5,5,0,0,1,3.11-2.34l14.28-.58c.91,0,1.34.91.94,2.11l-2.08,6.22c-.4,1.2-1.42,2.11-2.27,2L131,549c-.85-.09-.9-1.17-.1-2.42Z"/><path class="cls-2" d="M554.25,384s-1.66,25.26,66.77,25.58c30,.14,92.33-4.2,64.72-27.63Z"/><path class="cls-2" d="M616.71,514c-.22,18.88-4.67,40.27-10.72,60.86l104.3-.8c1.13-23.87.35-50.57-4.39-77.56C698.44,454,664,393.63,646.19,381.5L595,383S617.56,440.91,616.71,514Z"/><path class="cls-3" d="M635.34,459.65a2.48,2.48,0,0,1,2.13-2.34l16.54-.72a2.78,2.78,0,0,1,2.53,2.08l1.69,6.18c.33,1.18-.27,2.1-1.33,2l-20.14-1.37a2.08,2.08,0,0,1-1.73-2.39Z"/><path class="cls-3" d="M607.23,408.12a1.47,1.47,0,0,1,1.39-1.17l11.27-.93a1.87,1.87,0,0,1,1.77.89l1.3,2.84c.26.54-.13,1-.86,1l-13.76.07a1.1,1.1,0,0,1-1.24-1.06Z"/><path class="cls-3" d="M673.23,480.24a2.65,2.65,0,0,1,2.31-2.47l17.94-.76a3,3,0,0,1,2.74,2.19l1.84,6.53c.35,1.26-.31,2.23-1.46,2.15l-21.82-1.45a2.19,2.19,0,0,1-1.88-2.52Z"/><path class="cls-3" d="M646.78,477.43a3.07,3.07,0,0,1-2.63,2.88l-20.38.88a3.4,3.4,0,0,1-3.11-2.56L618.57,471c-.4-1.46.35-2.59,1.65-2.5L645,470.21a2.57,2.57,0,0,1,2.13,2.94Z"/><path class="cls-3" d="M625.77,418.11a2.1,2.1,0,0,1,2-1.69l16-.93a2.64,2.64,0,0,1,2.48,1.38l1.75,4.27c.34.82-.23,1.48-1.25,1.45l-19.5-.43a1.59,1.59,0,0,1-1.71-1.62Z"/><path class="cls-3" d="M647.16,440.71a2.55,2.55,0,0,1-2.17,2.38l-16.81.72a2.81,2.81,0,0,1-2.57-2.11l-1.72-6.28c-.33-1.2.28-2.13,1.36-2.06l20.46,1.4a2.1,2.1,0,0,1,1.76,2.42Z"/><path class="cls-3" d="M668.39,505a2.88,2.88,0,0,1,2.46-2.7l19.08-.82a3.21,3.21,0,0,1,2.91,2.39l1.95,7.13c.38,1.37-.32,2.42-1.54,2.34L670,511.75a2.41,2.41,0,0,1-2-2.76Z"/><path class="cls-3" d="M656.3,574.07a2.7,2.7,0,0,0-1.1-.22l-6.47.28Q652.51,574.09,656.3,574.07Z"/><path class="cls-3" d="M661.57,554.68a3.8,3.8,0,0,1,3.26-3.57L690.12,550a4.23,4.23,0,0,1,3.86,3.17l2.59,9.45c.5,1.81-.42,3.21-2,3.1l-30.79-2.1A3.17,3.17,0,0,1,661.1,560Z"/><path class="cls-3" d="M655.77,522.68a2.89,2.89,0,0,1-2.48,2.72l-19.26.83a3.23,3.23,0,0,1-2.94-2.42l-2-7.19c-.38-1.38.32-2.44,1.56-2.36l23.43,1.59a2.43,2.43,0,0,1,2,2.78Z"/><path class="cls-3" d="M648.14,537.54a3.24,3.24,0,0,1-2.79,3.06l-21.65.94a3.64,3.64,0,0,1-3.3-2.72l-2.21-8.08c-.43-1.56.36-2.75,1.75-2.66l26.34,1.8a2.72,2.72,0,0,1,2.27,3.12Z"/><path class="cls-3" d="M658.8,404.46c-.06.42-.7.81-1.43.87l-11.41.86a2.15,2.15,0,0,1-1.78-.6l-1.28-2c-.24-.39.16-.71.89-.73l13.92-.3c.74,0,1.29.32,1.24.74Z"/><path class="cls-3" d="M629.72,400.81c-.1.55-1,1-1.92,1l-15,.33a2.72,2.72,0,0,1-2.28-.92L609,398.5c-.29-.54.25-.94,1.21-.91l18.2.59c1,0,1.66.52,1.56,1.07Z"/><path class="cls-4" d="M400.35,453.87c4.39-6.85,12.57-1.46,5.92,2.73,5.58.47,6,2.8,4.65,3.79a7,7,0,0,1-7.51-.33c-4.72,7.31-12.5,1.79-6.12-2.4C386.05,453.81,393.37,448.62,400.35,453.87Z"/><ellipse class="cls-5" cx="401.41" cy="456.59" rx="2" ry="4.08" transform="translate(-119.19 770.58) rotate(-79.77)"/><path class="cls-4" d="M352.62,331.29c3.34-5.45,9.85-1.36,4.69,2,4.4.28,4.75,2.11,3.72,2.9a5.44,5.44,0,0,1-5.9-.13c-3.59,5.82-9.79,1.61-4.85-1.78C341.39,331.47,347.05,327.28,352.62,331.29Z"/><ellipse class="cls-5" cx="353.5" cy="333.41" rx="1.57" ry="3.2" transform="translate(-31.22 630.25) rotate(-80.98)"/><path class="cls-4" d="M450.14,545.46c-3.85-7.17-12.42-2.42-6.11,2.26-5.61,0-6.19,2.34-4.93,3.43a7,7,0,0,0,7.52.24c4.14,7.65,12.32,2.75,6.28-1.92C464.4,546.48,457.5,540.75,450.14,545.46Z"/><ellipse class="cls-5" cx="448.87" cy="548.09" rx="4.08" ry="2" transform="matrix(0.99, -0.1, 0.1, 0.99, -53.49, 48.57)"/><path class="cls-4" d="M737,508.62c-3.49-6.92-11.76-2.61-5.87,2-5.34-.11-5.94,2.07-4.78,3.13a6.62,6.62,0,0,0,7.15.42c3.76,7.39,11.67,2.92,6-1.67C750.58,510,744.16,504.32,737,508.62Z"/><ellipse class="cls-5" cx="735.76" cy="511.09" rx="3.88" ry="1.91" transform="translate(-36.69 57.35) rotate(-4.36)"/><path class="cls-4" d="M834.36,405.53c-2.77-5.48-9.32-2.07-4.65,1.59-4.23-.08-4.71,1.64-3.79,2.48a5.23,5.23,0,0,0,5.66.33c3,5.85,9.24,2.31,4.78-1.32C845.09,406.58,840,402.13,834.36,405.53Z"/><ellipse class="cls-5" cx="833.35" cy="407.49" rx="3.08" ry="1.51" transform="translate(-28.54 64.46) rotate(-4.36)"/><path class="cls-4" d="M1238.08,379c-3.25-7.1-11.75-3.08-6,1.8-5.37-.31-6.07,1.86-4.93,3a6.67,6.67,0,0,0,7.18.69c3.51,7.59,11.65,3.38,6.14-1.46C1251.68,380.86,1245.42,375,1238.08,379Z"/><ellipse class="cls-5" cx="1236.71" cy="381.45" rx="3.92" ry="1.92" transform="translate(-13.73 47.75) rotate(-2.2)"/><path class="cls-4" d="M1038.73,531.33c-3.26-7.1-11.76-3.08-6,1.8-5.37-.31-6.06,1.86-4.93,3a6.71,6.71,0,0,0,7.19.69c3.51,7.58,11.65,3.38,6.14-1.46C1052.33,533.18,1046.07,527.27,1038.73,531.33Z"/><ellipse class="cls-5" cx="1037.35" cy="533.77" rx="3.92" ry="1.92" transform="translate(-19.72 40.21) rotate(-2.2)"/><path class="cls-4" d="M1211.74,480.74c3.6-6.18,11-1.74,5.3,2.18,4.92.2,5.36,2.24,4.23,3.16a6.12,6.12,0,0,1-6.62,0c-3.88,6.6-10.92,2-5.46-1.87C1199.17,481.21,1205.41,476.38,1211.74,480.74Z"/><ellipse class="cls-5" cx="1212.77" cy="483.09" rx="1.76" ry="3.59" transform="translate(568.96 1618.74) rotate(-82.17)"/><path class="cls-4" d="M914.72,308.43c3.19-5.48,9.73-1.55,4.69,1.93,4.37.18,4.76,2,3.75,2.8a5.43,5.43,0,0,1-5.86,0c-3.44,5.85-9.68,1.81-4.84-1.66C903.58,308.84,909.11,304.56,914.72,308.43Z"/><ellipse class="cls-5" cx="915.63" cy="310.51" rx="1.56" ry="3.18" transform="translate(483.28 1175.3) rotate(-82.17)"/><path class="cls-4" d="M247.85,533.56c-3.67-7.26-12.35-2.74-6.17,2.11-5.6-.11-6.24,2.18-5,3.3a7,7,0,0,0,7.51.43c3.95,7.76,12.25,3.07,6.33-1.75C262.08,535,255.33,529.05,247.85,533.56Z"/><ellipse class="cls-5" cx="246.52" cy="536.16" rx="4.08" ry="2" transform="matrix(1, -0.08, 0.08, 1, -40.06, 20.3)"/><path class="cls-4" d="M136.21,378.75c-3.67-6.59-12.36-2.49-6.17,1.91-5.6-.1-6.24,2-5,3,1.65,1.37,5.39,1.68,7.51.4,3.95,7,12.25,2.78,6.33-1.6C150.43,380,143.69,374.65,136.21,378.75Z"/><ellipse class="cls-5" cx="134.87" cy="381.11" rx="4.08" ry="1.82" transform="translate(-24.65 9.64) rotate(-3.75)"/><path class="cls-2" d="M874.22,574.75l165.41.25c-37-37.48-68.52-72.4-73.46-89.11-12-40.67,53.83-127,149.1-172.34-14.71-3.6-50.13.73-65.83-2.71-101.2,63.47-235,142.37-208.73,209.65C844.8,531,858.38,552,874.22,574.75Z"/><path class="cls-3" d="M943.74,403.22A5.32,5.32,0,0,1,940,405l-16.77-1.46c-1.08-.1-1.55-1.07-1-2.16l2.6-5.68a2.71,2.71,0,0,1,2.72-1.62l18.87,3.75c1,.2,1,1.25.05,2.33Z"/><path class="cls-3" d="M979.37,391a3.84,3.84,0,0,1-2.82,1l-12-2.33c-.77-.15-1-.89-.59-1.64l2.31-3.9a2,2,0,0,1,2.08-1l13.33,4.15c.71.22.64,1-.13,1.69Z"/><path class="cls-3" d="M1007.75,356.28a3.84,3.84,0,0,1,2.81-1l12,2.17c.77.14,1,.87.62,1.63l-2.26,3.93a2,2,0,0,1-2.07,1l-13.39-4c-.7-.21-.65-1,.12-1.69Z"/><path class="cls-3" d="M1010.07,377.34a2.81,2.81,0,0,1-1.93,1l-8.79-.65c-.57-.05-.82-.55-.57-1.13l1.33-3a1.41,1.41,0,0,1,1.41-.86l9.9,1.84c.52.09.54.64,0,1.22Z"/><path class="cls-3" d="M1000.29,368.23a2,2,0,0,1,1.4-.62l6.24.73c.4.05.56.42.36.82l-1,2.08a1,1,0,0,1-1,.58l-7-1.62c-.37-.09-.37-.48,0-.87Z"/><path class="cls-3" d="M962.93,370.4c1.1-1.31,2.91-2.26,4-2.11l17.25,2.37c1.1.16,1.5,1.38.87,2.72l-3.25,7c-.63,1.34-2,2.21-3,1.92L959.65,377c-1-.28-.93-1.58.17-2.89Z"/><path class="cls-3" d="M922.83,412.71a4,4,0,0,1-2.5,1.81H909.16c-.71,0-1-.78-.66-1.75l1.82-5c.35-1,1.18-1.68,1.84-1.59l12.52,1.77c.66.1.66,1,0,2Z"/><path class="cls-3" d="M960.45,429.59C959.54,430.93,958,432,957,432L941.8,432c-1,0-1.37-1.08-.89-2.39l2.53-6.84c.49-1.31,1.62-2.28,2.52-2.14l17,2.53c.9.13.89,1.34,0,2.69Z"/><path class="cls-3" d="M953,435.56a3.52,3.52,0,0,1,2.22-1.69l10.07-.27c.64,0,.93.69.64,1.57l-1.54,4.57c-.29.88-1,1.54-1.62,1.47l-11.33-1.32c-.6-.07-.62-.87,0-1.78Z"/><path class="cls-3" d="M883.43,432.37a5.38,5.38,0,0,1,4.07-2.09l19.38,1.93a1.79,1.79,0,0,1,1.43,2.56l-2.38,6.69a2.75,2.75,0,0,1-2.95,1.89l-22-4.67c-1.17-.25-1.3-1.49-.31-2.76Z"/><path class="cls-3" d="M903.23,452.58A2.75,2.75,0,0,1,901,454l-12-.81a1.3,1.3,0,0,1-1.15-1.58l.73-4.24a1.41,1.41,0,0,1,1.58-1.24l13.9,2.47c.73.13,1,.91.48,1.72Z"/><path class="cls-3" d="M910,465.72a3,3,0,0,1,2.91-2.84l24.84-.87a4.64,4.64,0,0,1,4.07,2.51l3.34,7.46c.64,1.44-.15,2.55-1.76,2.46l-30.5-1.65a3,3,0,0,1-2.91-2.88Z"/><path class="cls-3" d="M865,534.7a3.85,3.85,0,0,1,3.77-3.66l32.14-1.13a6,6,0,0,1,5.27,3.25l4.32,9.65c.84,1.87-.19,3.3-2.27,3.18l-39.48-2.12a3.9,3.9,0,0,1-3.77-3.74Z"/><path class="cls-3" d="M885.66,499.88a5.89,5.89,0,0,1-3.95,2.29l-20.58.7c-1.32,0-2.16-.87-1.88-2l1.49-6a2.8,2.8,0,0,1,2.8-2l23.76,1.33c1.25.07,1.58,1.12.73,2.33Z"/><path class="cls-3" d="M961.82,524.17a5.79,5.79,0,0,1-3.94,2.29l-20.59.7c-1.32,0-2.16-.86-1.88-2l1.5-6a2.8,2.8,0,0,1,2.8-2l23.75,1.33c1.26.07,1.58,1.12.73,2.33Z"/><path class="cls-3" d="M906.94,479.14a1.71,1.71,0,0,1,1.66-1.63l14.29-.6a2.67,2.67,0,0,1,2.35,1.42l2,4.28c.38.83-.07,1.47-1,1.42l-17.56-.82a1.73,1.73,0,0,1-1.68-1.65Z"/><path class="cls-3" d="M925.89,536.27a1.71,1.71,0,0,1,1.66-1.64l14.29-.6a2.67,2.67,0,0,1,2.35,1.42l1.95,4.28c.38.83-.07,1.47-1,1.42l-17.55-.82a1.74,1.74,0,0,1-1.69-1.65Z"/><path class="cls-3" d="M955.14,550.11a2.29,2.29,0,0,1,2.23-2.19l19.17-.81a3.6,3.6,0,0,1,3.15,1.92l2.62,5.74c.5,1.11-.1,2-1.34,1.9l-23.56-1.11a2.32,2.32,0,0,1-2.26-2.21Z"/><path class="cls-3" d="M971.69,573.14a5,5,0,0,0,1.29,1.64q17.58,0,35.15.08l.41,0a3.8,3.8,0,0,0,3.67-3.64l0-5.35a3.83,3.83,0,0,0-3.75-3.63l-38.89-1.7c-2-.09-3,1.33-2.2,3.16Z"/><path class="cls-3" d="M890.45,557.6a3.58,3.58,0,0,1,3.49-3.44l30-1.26a5.63,5.63,0,0,1,4.94,3l4.1,9c.79,1.73-.16,3.08-2.1,3L894,566.14a3.64,3.64,0,0,1-3.54-3.46Z"/><path class="cls-2" d="M977.27,308.37s-2.19,23.94,94.89,26c33,.69,92.23-1.26,98.84-24.85Z"/><path class="cls-6" d="M818.57,552.89s5-4.41-.22-15.67c0,0,5.1,1.86,4.84,9.62,0,0,3.32-3.09,1.91-14.63,0,0,3.65,9,2.22,18.16,0,0,2.18-6.89,6.94-5.14,0,0-5.68-.24-4.27,7.66Z"/><path class="cls-6" d="M741,480.68a8.67,8.67,0,0,0-1.89-10.77s3.9,1,5.62,6.94c0,0-.61-11.91,6.53-18.9,0,0-7.74,18.56-.61,22.73Z"/><path class="cls-6" d="M460.58,439.42s3.77-3.87-.16-13.76c0,0,3.82,1.64,3.62,8.45,0,0,2.48-2.71,1.42-12.84a39.6,39.6,0,0,1,1.67,15.94s1.62-6,5.18-4.51c0,0-4.24-.22-3.18,6.72Z"/><path class="cls-6" d="M293.84,562.61s6-3.5.29-11.57c0,0,4.48,2.9,5.2,8,0,0,1.49-10.76-2.61-16,0,0,4.57,2.22,5.15,11.91,0,0,.95-14.1,5.24-21.73,0,0-3.53,18-2.43,25.38,0,0,3.76-5.84,8,.73,0,0-5.72-5.57-6,3.25Z"/><path class="cls-6" d="M1070.4,526.53s-5-4.41.22-15.67c0,0-5.11,1.86-4.84,9.62,0,0-3.32-3.09-1.91-14.63,0,0-3.65,9-2.22,18.16,0,0-2.18-6.89-6.94-5.14,0,0,5.67-.24,4.26,7.66Z"/><path class="cls-6" d="M894.41,360.16s5-2.8.24-9.23c0,0,3.72,2.31,4.32,6.34,0,0,1.24-8.58-2.16-12.76,0,0,3.78,1.78,4.26,9.51,0,0,.8-11.26,4.35-17.34,0,0-2.92,14.37-2,20.25,0,0,3.12-4.66,6.6.58,0,0-4.74-4.45-5,2.59Z"/><path class="cls-6" d="M560,509.23s-5-3.94.21-14c0,0-5.1,1.66-4.84,8.62,0,0-3.32-2.77-1.9-13.11,0,0-3.65,8.08-2.22,16.27,0,0-2.18-6.17-6.94-4.6,0,0,5.67-.22,4.26,6.86Z"/><path class="cls-6" d="M1204.08,343.71a7.17,7.17,0,0,0-1.56-8.9s3.22.87,4.64,5.74c0,0-.51-9.83,5.39-15.61,0,0-6.39,15.32-.51,18.77Z"/><path class="cls-6" d="M1246.67,515.31s4.83-2.8.23-9.23a10,10,0,0,1,4.17,6.35s1.19-8.58-2.09-12.76c0,0,3.66,1.77,4.12,9.5,0,0,.76-11.25,4.2-17.33,0,0-2.83,14.37-1.94,20.24,0,0,3-4.66,6.36.58,0,0-4.57-4.44-4.8,2.59Z"/><path class="cls-6" d="M338.67,398.9s3.84-3.35-.16-11.92c0,0,3.88,1.41,3.68,7.32,0,0,2.52-2.35,1.45-11.13,0,0,2.77,6.86,1.69,13.81,0,0,1.65-5.24,5.27-3.91,0,0-4.31-.18-3.24,5.83Z"/><path class="cls-6" d="M96.3,464.27s-3.77-3.87.16-13.75c0,0-3.82,1.63-3.62,8.44,0,0-2.48-2.71-1.42-12.84a39.6,39.6,0,0,0-1.67,15.94s-1.62-6.05-5.18-4.51c0,0,4.24-.21,3.19,6.72Z"/><path class="cls-6" d="M163.52,353.52s3.65-2.12.17-7a7.65,7.65,0,0,1,3.16,4.82s.9-6.51-1.59-9.69c0,0,2.77,1.35,3.12,7.22,0,0,.58-8.55,3.18-13.16,0,0-2.14,10.91-1.47,15.37,0,0,2.27-3.54,4.81.44,0,0-3.46-3.38-3.63,2Z"/><path class="cls-6" d="M57.92,405.2a7,7,0,0,0-1.53-8.69s3.15.85,4.54,5.6c0,0-.5-9.61,5.27-15.25,0,0-6.24,15-.5,18.34Z"/></g></svg>