<svg xmlns="http://www.w3.org/2000/svg" viewBox="0 0 581.08 545.38" width="581.08" height="545.38" preserveAspectRatio="none"><defs><style>.cls-1{fill:#156a44;}.cls-2{fill:#09463d;}.cls-3{fill:#d49839;}.cls-4{fill:#b37c59;}.cls-5{fill:#7e3e21;}.cls-6{fill:#dead88;}.cls-7{fill:#ffe7c6;}.cls-8{fill:#ed1941;}.cls-9{fill:#8b172e;}.cls-10{fill:#fbce75;}.cls-11{fill:#7f3e1c;}.cls-12{fill:#662614;}.cls-13{fill:#a65928;}.cls-14{fill:#a8e0f9;}.cls-15{fill:#e8f8ff;}.cls-16{fill:#aa5b2b;}.cls-17{fill:#fff;}.cls-18{fill:#9e6835;}.cls-19{fill:#ff64ff;}.cls-20{fill:#ffcd3c;}.cls-21{fill:#ff682d;}</style></defs><title>Home_Map_Screen_new</title><g id="new_main_building" data-name="new main building"><polygon class="cls-1" points="520.36 290.95 551.36 339.62 539.12 497.85 519.82 483.44 496.44 439.94 510.03 311.62 520.36 290.95"/><path class="cls-1" d="M479.77,308.44s-4.79-24.56-10-16.47c0,0-.72,44.63,6.06,80.19,0,0-8.18-29.52-8.7-18,0,0-4.1,39.47,6.32,85,0,0-7.15-22.36-11.06-18,0,0,2.43,30.81,15.2,70.3,0,0-17.35-24.92,3,27,0,0-24.77-3.27-.79,3.27,0,0-42.07,10.79,2.51,4.79,0,0-8.1,26.21,11.19,1.27,0,0,26.88,21.25,11.49.58,0,0,48.86,2,7.75-7.81,12.38-28,28.19-103.41,5.53-64.43,0,0,26.15-130.44,7.12-83.56,0,0,6.85-95.7-4.24-42.79,0,0,11.47-117.54-4.43-80.82,0,0-10.23-197-27.17-12.48C489.52,236.54,480.82,158.58,479.77,308.44Z"/><path class="cls-2" d="M478.55,414.84s-7.65-63.9,6.52-22.07c0,0,2.77-80,9.6-20.34,0,0,6-26.39,5.38,32,0,0,4.56-48,8.14-15.58,0,0,6.51-18.74,3.58,11.54,0,0,2.28-25.24-3.58-9.66,0,0-3.39-34.53-8.41,21,0,0,1.5-57.74-5.5-36.11,0,0-5.9-55.94-8.58,20.43C485.7,396.07,472.76,352.18,478.55,414.84Z"/><path class="cls-2" d="M492.11,500.07s1.15-57.37,6.3-17.5c0,0,7.21-69.19,8.24-19,0,0,6.76-14.86,2.35,23.45,0,0,10.15-35.7,8.09-9.38,0,0,.79-21.05-8.63,13,0,0,4.44-39.35-2.14-25,0,0-2.28-50-7.43,24.83C498.89,490.38,494.37,442.55,492.11,500.07Z"/><path class="cls-2" d="M492.56,275.8s-2.12-52.91,4.24-20.66c0,0,3.89-72.95,8.66-2.66,0,0,6.36-60.11,5.83,11.74,0,0,5.48-22.07,6.37-3,0,0,5.83-19.73,1.06,20,0,0,4.23-34.92-1.42-17.84,0,0-.33-21.3-6.5,4.57,0,0,1.28-67.59-5.35-12,0,0-4.24-67.14-8.47,1.51C497,257.49,491.37,225.26,492.56,275.8Z"/><path class="cls-1" d="M531.82,294.47s-4.49-26-9.38-17.47c0,0-.68,47.33,5.68,85.05,0,0-7.67-31.31-8.16-19.06a346.38,346.38,0,0,0,5.93,90.1s-6.71-23.71-10.38-19.06c0,0,2.29,32.68,14.27,74.56,0,0-16.28-26.43,2.79,28.67,0,0-23.23-3.47-.75,3.47,0,0-39.45,11.45,2.36,5.08,0,0-7.6,27.8,10.49,1.35,0,0,25.21,22.53,10.78.61,0,0,45.82,2.11,7.26-8.28,11.62-29.71,26.45-109.67,5.19-68.33,0,0,24.52-138.33,6.68-88.62,0,0,6.42-101.49-4-45.38,0,0,10.76-124.65-4.15-85.71,0,0-9.59-208.89-25.48-13.23C541,218.22,532.81,135.54,531.82,294.47Z"/><path class="cls-2" d="M530.69,407.3s-7.18-67.75,6.1-23.4c0,0,2.6-84.89,9-21.56,0,0,5.65-28,5,34,0,0,4.28-50.93,7.64-16.52,0,0,6.1-19.88,3.36,12.24,0,0,2.13-26.77-3.36-10.25,0,0-3.18-36.62-7.89,22.27,0,0,1.41-61.24-5.16-38.29,0,0-5.53-59.33-8,21.66C537.38,387.4,525.25,340.86,530.69,407.3Z"/><path class="cls-2" d="M543.4,497.7s1.08-60.85,5.91-18.56c0,0,6.76-73.38,7.72-20.18,0,0,6.35-15.75,2.21,24.88,0,0,9.52-37.87,7.59-9.95,0,0,.73-22.32-8.1,13.75,0,0,4.17-41.74-2-26.56,0,0-2.14-53-7,26.34C549.75,487.42,545.52,436.69,543.4,497.7Z"/><path class="cls-2" d="M543.82,259.86s-2-56.11,4-21.91c0,0,3.65-77.37,8.12-2.83,0,0,6-63.75,5.47,12.45,0,0,5.14-23.4,6-3.15,0,0,5.47-20.92,1,21.25,0,0,4-37-1.33-18.93,0,0-.31-22.58-6.1,4.85,0,0,1.21-71.68-5-12.75,0,0-4-71.21-7.95,1.6C548,240.44,542.7,206.25,543.82,259.86Z"/><polygon class="cls-1" points="51.81 298.41 80.77 332.86 81.08 463.33 69.19 499.92 51.81 481.32 36.26 377.06 51.81 298.41"/><path class="cls-1" d="M64.56,307.33s-4.24-24.56-8.86-16.47c0,0-.64,44.63,5.36,80.19,0,0-7.24-29.52-7.7-18A325.93,325.93,0,0,0,59,438s-6.34-22.36-9.8-18c0,0,2.15,30.81,13.47,70.3,0,0-15.38-24.92,2.63,27,0,0-21.94-3.27-.7,3.26,0,0-37.26,10.8,2.22,4.8,0,0-7.17,26.21,9.92,1.27,0,0,23.81,21.25,10.17.58,0,0,43.28,2,6.87-7.81,11-28,25-103.41,4.9-64.43,0,0,23.16-130.44,6.3-83.56,0,0,6.07-95.71-3.75-42.79,0,0,10.16-117.54-3.93-80.83,0,0-9.05-197-24.06-12.47C73.2,235.43,65.5,157.47,64.56,307.33Z"/><path class="cls-2" d="M63.49,413.72s-6.78-63.89,5.77-22.06c0,0,2.45-80.05,8.5-20.34,0,0,5.34-26.39,4.76,32,0,0,4-48,7.22-15.58,0,0,5.76-18.75,3.17,11.54,0,0,2-25.24-3.17-9.66,0,0-3-34.53-7.46,21,0,0,1.34-57.74-4.87-36.11,0,0-5.22-55.95-7.6,20.43C69.81,395,58.35,351.07,63.49,413.72Z"/><path class="cls-2" d="M75.49,499s1-57.37,5.58-17.5c0,0,6.39-69.19,7.3-19,0,0,6-14.86,2.09,23.45,0,0,9-35.7,7.16-9.38,0,0,.7-21.05-7.64,13,0,0,3.93-39.35-1.9-25,0,0-2-50-6.58,24.83C81.5,489.27,77.49,441.44,75.49,499Z"/><path class="cls-2" d="M75.89,274.69S74,221.78,79.65,254c0,0,3.45-72.95,7.67-2.66,0,0,5.64-60.12,5.17,11.74,0,0,4.85-22.07,5.63-3,0,0,5.17-19.72.94,20,0,0,3.76-34.92-1.25-17.84,0,0-.3-21.3-5.76,4.57,0,0,1.13-67.59-4.74-12,0,0-3.76-67.15-7.5,1.51C79.81,256.38,74.84,224.15,75.89,274.69Z"/><path class="cls-1" d="M16.86,295.36s-4.5-26-9.38-17.47c0,0-.68,47.34,5.67,85.05,0,0-7.66-31.3-8.15-19.06A346.46,346.46,0,0,0,10.93,434S4.22,410.27.55,414.93c0,0,2.28,32.67,14.26,74.55,0,0-16.28-26.43,2.79,28.67,0,0-23.23-3.46-.74,3.47,0,0-39.46,11.45,2.35,5.09,0,0-7.59,27.79,10.5,1.35,0,0,25.21,22.52,10.77.6,0,0,45.82,2.12,7.27-8.28,11.61-29.7,26.44-109.66,5.19-68.32,0,0,24.52-138.34,6.67-88.62,0,0,6.43-101.5-4-45.38,0,0,10.75-124.65-4.16-85.72,0,0-9.59-208.89-25.48-13.22C26,219.12,17.85,136.44,16.86,295.36Z"/><path class="cls-2" d="M15.72,408.2s-7.18-67.76,6.11-23.4c0,0,2.59-84.89,9-21.57,0,0,5.65-28,5,34,0,0,4.27-50.94,7.63-16.52,0,0,6.11-19.89,3.36,12.23,0,0,2.14-26.76-3.36-10.24,0,0-3.17-36.62-7.89,22.27,0,0,1.41-61.24-5.15-38.3,0,0-5.54-59.33-8,21.67C22.42,388.3,10.28,341.75,15.72,408.2Z"/><path class="cls-2" d="M28.43,498.59s1.08-60.85,5.91-18.56c0,0,6.76-73.38,7.73-20.17,0,0,6.34-15.76,2.2,24.87,0,0,9.52-37.86,7.59-10,0,0,.74-22.32-8.09,13.75,0,0,4.16-41.73-2-26.55,0,0-2.14-53-7,26.33C34.79,488.31,30.55,437.59,28.43,498.59Z"/><path class="cls-2" d="M28.86,260.75s-2-56.11,4-21.91c0,0,3.65-77.36,8.12-2.82,0,0,6-63.75,5.47,12.45,0,0,5.14-23.41,6-3.16,0,0,5.47-20.91,1,21.26,0,0,4-37-1.32-18.93,0,0-.32-22.59-6.1,4.85,0,0,1.2-71.68-5-12.76,0,0-4-71.21-8,1.6C33,241.33,27.74,207.15,28.86,260.75Z"/><path class="cls-3" d="M294,145s-5.28-.25-5.76-8.63c-.2-3.58,0-9-5-10.73l-.05-3-5.54-.21v3.39c-2.07,1.18-4.1,3.88-3.85,8.47.34,6.38-.32,9-3.49,11.52l8.23-.28a2.07,2.07,0,0,0,2.13,1.82c1.53,0,2.24-.91,2.14-2Z"/><path class="cls-4" d="M253.86,115.86l7,44,7.57-.18c.81-1-2.2-39.75-1.85-41,2.51-9,23.63-10.38,29.91.41l-.77,40.16,5.6.43.21-42.24s.71-11.88,11.27-7.63l2.43-5.35C308.91,97.6,299.56,91,287.32,91.29,287.32,91.29,254.71,89.21,253.86,115.86Z"/><polygon class="cls-5" points="256.89 116.36 305.63 115.94 305.53 122.81 255.48 123.51 256.89 116.36"/><path class="cls-6" d="M258.26,159.63l5.42.21-2.81-49.06s3.92-11.46,18.7-10.26c0,0,13.28.06,20.52,12.22l.27,46.63,4.34.26,1.81-52.27a40,40,0,0,0-30-14.58S259,92.28,252.43,112Z"/><polygon class="cls-7" points="93.41 275.84 100.61 513.85 475.75 515.75 488.02 268.9 93.41 275.84"/><polygon class="cls-6" points="40.72 490.93 528.51 490.25 529.73 540.34 36.77 540.5 40.72 490.93"/><polygon class="cls-6" points="79.34 485.07 76.58 350.3 82.71 350.38 82.71 337.22 56.38 336.48 56.75 350.02 62.43 350.1 55.78 485.59 50.53 485.7 50.53 495.94 83.81 496.31 83.81 484.97 79.34 485.07"/><polygon class="cls-6" points="515 351.6 522.28 351.2 521.48 340.16 495.85 338.98 495.33 352.69 501.22 352.36 496.3 483.67 490.64 483.67 491.85 494.71 519.07 495.5 519.07 483.67 515.46 483.67 515 351.6"/><polygon class="cls-8" points="42.08 340.36 538.14 340.36 495.96 249.06 72.73 243.69 42.08 340.36"/><polygon class="cls-9" points="71.51 247.43 70.42 231.75 499.86 232.25 497.13 251.7 71.51 247.43"/><polygon class="cls-7" points="224.37 188.33 222.1 275.11 334.54 278.13 333.79 187.57 224.37 188.33"/><polygon class="cls-7" points="213.82 518.79 345.45 516.55 346.73 528.9 212.23 529.18 213.82 518.79"/><polygon class="cls-7" points="205.78 532.47 355.02 531.91 353.8 545.38 207.3 545.1 205.78 532.47"/><path class="cls-7" d="M240.31,79.12,245,164l67.43,5.44L318.58,80Zm62,80-42.17.38-4.52-49.12s3.76-15.23,23.72-14.46c11.3.43,22.22,5.71,25.23,16Z"/><polygon class="cls-7" points="217.98 504.12 340.89 503.89 341.76 513.5 218.99 514.37 217.98 504.12"/><polygon class="cls-8" points="213.82 194.11 346.15 196.97 328.87 156.08 226.68 157.87 213.82 194.11"/><polygon class="cls-9" points="212.73 190.06 213 199 347.39 200.19 346.85 189.46 212.73 190.06"/><polygon class="cls-8" points="227.87 81.74 326.55 83.89 281.6 14.16 227.87 81.74"/><polygon class="cls-9" points="277.73 19.14 277.2 12.28 286.71 12.1 286 20.37 277.73 19.14"/><path class="cls-9" d="M281.86,0c-2.33.06-3.78,2.59-3.92,6.81,0,0-.22,6,4.21,6.64,0,0,3.86,0,3.71-7.93C285.86,5.52,285.5-.09,281.86,0Z"/><polygon class="cls-9" points="498.38 288.46 509.17 317.44 508.51 317.7 497.59 287.75 498.38 288.46"/><polygon class="cls-9" points="493.65 289.42 502.96 316.65 502.33 317.58 493.87 291.08 493.65 289.42"/><polygon class="cls-9" points="485.06 282.06 495.21 319.18 495.75 319.38 485.68 282.98 485.06 282.06"/><polygon class="cls-9" points="485.48 302.31 490.72 327.94 491.48 328.13 485.86 302.44 485.48 302.31"/><path class="cls-9" d="M488.65,316.18s2-4.22,5.68-1.37l-.17-.79s-2.64-2.76-5.62,1.73Z"/><path class="cls-9" d="M486.86,307.54s1.4-4.28,5-2l-.22-.57a3.58,3.58,0,0,0-5,1.82Z"/><path class="cls-9" d="M494.16,314s3.42-4.65,7.45-.2v.52s-4.09-4.69-7.27.08Z"/><path class="cls-9" d="M492,305.44s.88-6.27,6.24-1.46l.26.58s-5.17-5-6.4,1.35Z"/><path class="cls-9" d="M489.31,295.85s3-6.52,6.25-.41l-.31-1s-3.39-5.33-6.17.93Z"/><path class="cls-9" d="M489,294.82s-3-3.41-5,1.58c0,0,2.59-4.32,5.22-.93Z"/><path class="cls-9" d="M486.54,286.45s1.79-6.18,6.17-1.46c0,0-4.4-4.08-6,2.13Z"/><path class="cls-9" d="M486.57,306.75s-2.51-3.82-5.57.92c0,0,3.09-4.12,5.71-.38Z"/><path class="cls-9" d="M488.3,316.19s-4.84-4.25-5.89.72c0,0,1-4.1,6.15-.25Z"/><path class="cls-9" d="M490.67,326s2.62-6.17,5.46-1.85c0,0-2.79-3.45-5.26,2.41Z"/><path class="cls-9" d="M495.1,293.92s2.26-5.17,4.88-.24l.29.68s-2.75-5.6-5,.06Z"/><path class="cls-9" d="M498.62,304.79s2.5-5.45,5.53-.36l-.41-1.28s-2-4.4-5.31,1.17Z"/><path class="cls-9" d="M501.61,313.82s2.14-6,5.27-1.44l.11.6s-2.59-5.11-5.18,1.12Z"/><path class="cls-9" d="M503.74,303.15s1.2-5.06,4.74-1.63c0,0-2.89-2.36-4.48,2.09Z"/><path class="cls-9" d="M507.17,312.74s1.76-5.05,4.86-.38c0,0-3-3.63-4.61.73Z"/><polygon class="cls-9" points="122.86 261.74 117.62 283.86 118.14 282.62 123.6 260.24 122.86 261.74"/><polygon class="cls-9" points="127.69 262.01 121.18 293.01 121.81 294.01 127.66 263.68 127.69 262.01"/><polygon class="cls-9" points="135.37 253.72 129.55 291.76 129.04 292.01 134.86 254.7 135.37 253.72"/><polygon class="cls-9" points="138.23 264.17 135.76 293.73 135.03 294 137.86 265.75 138.23 264.17"/><path class="cls-9" d="M135.73,288s-2.5-4-5.81-.71l.08-.8s2.31-3.05,5.79,1.07Z"/><path class="cls-9" d="M136.51,279.24s-1.88-4.1-5.15-1.46l.14-.6a3.59,3.59,0,0,1,5.21,1.24Z"/><path class="cls-9" d="M130,286.51s-3.93-4.23-7.42.65l.07.52s3.52-5.12,7.23-.76Z"/><path class="cls-9" d="M131.22,277.73s-1.6-6.13-6.37-.73l-.2.61s4.57-5.55,6.52.6Z"/><path class="cls-9" d="M132.73,267.9s-3.74-6.13-6.25.31l.19-1s2.76-5.69,6.23.2Z"/><path class="cls-9" d="M133,266.84s2.61-3.74,5.17,1c0,0-3.06-4-5.29-.33Z"/><path class="cls-9" d="M134.41,258.24s-2.29-5.94-5.71-.77c0,0,3.51-4.54,5.66,1.46Z"/><path class="cls-9" d="M136.71,278.42s2-4.08,5.64.27c0,0-3.55-3.74-5.72.28Z"/><path class="cls-9" d="M136.08,288s4.32-4.77,5.93,0c0,0-1.46-4-6.14.46Z"/><path class="cls-9" d="M126.76,266.65s-2.83-4.88-4.87.32l-.21.71s2.08-5.88,5-.51Z"/><path class="cls-9" d="M124.51,277.85s-3.11-5.13-5.53.27l.26-1.31s1.52-4.61,5.41.55Z"/><path class="cls-9" d="M122.58,287.16s-2.85-5.46-5.73-.64c0,0,2.46-3.75,5.56,1Z"/><path class="cls-9" d="M119.61,276.22s-2.8-4.34-5.75,0c0,0,2.53-3.15,5.59.51Z"/><path class="cls-9" d="M121.77,266.14s-2.87-4.7-5.79.44c0,0,3-4.09,5.55-.05Z"/><polygon class="cls-9" points="443.57 262.39 447.1 282 446.73 282.38 443.54 263.7 443.57 262.39"/><polygon class="cls-9" points="448.55 263.9 454.39 287.57 454.04 289.04 448.28 264.16 448.55 263.9"/><path class="cls-9" d="M451.43,276.85s-3.4-2.75-5.34,1.11l-.17-.73s1.12-3.38,5.43-.79Z"/><path class="cls-9" d="M449.47,268.86s-2.89-3.05-5,.26l-.05-.57a3.35,3.35,0,0,1,5-.48Z"/><path class="cls-9" d="M445.92,277.23s-3.58-2.68-5.65,2c0,0,1.93-4.06,5.66-1.61Z"/><path class="cls-9" d="M444.63,269.17s-3.42-4.88-6,1.32c0,0,2.7-5.35,6.11-.88Z"/><path class="cls-9" d="M451.35,276.52s2.14-3.72,5.42-.91c0,0-3-2.34-5.17,1.34Z"/><path class="cls-9" d="M453.46,284.69s-3.4-3.9-5.51,1.29c0,0,2.3-4.23,5.34-.9Z"/><path class="cls-9" d="M453.35,285.32s1.4-5,5.54-1.2c0,0-3.9-2.83-5.22,1.49Z"/><polygon class="cls-9" points="91.58 294.84 87.01 314.23 87.36 314.62 91.54 296.15 91.58 294.84"/><polygon class="cls-9" points="86.53 296.07 79.44 319.4 79.7 320.88 86.79 296.35 86.53 296.07"/><path class="cls-9" d="M83,308.85s3.54-2.56,5.26,1.4l.21-.72s-.93-3.44-5.37-1.08Z"/><path class="cls-9" d="M85.34,301s3-2.89,5,.53l.08-.57a3.35,3.35,0,0,0-4.94-.74Z"/><path class="cls-9" d="M88.44,309.53S92.16,307,94,311.84c0,0-1.71-4.16-5.57-1.91Z"/><path class="cls-9" d="M90.16,301.55s3.68-4.69,5.93,1.64c0,0-2.4-5.49-6-1.21Z"/><path class="cls-9" d="M83.06,308.53s-1.93-3.82-5.36-1.2c0,0,3.08-2.18,5.09,1.61Z"/><path class="cls-9" d="M80.51,316.58s3.61-3.71,5.45,1.57c0,0-2.08-4.34-5.3-1.17Z"/><path class="cls-9" d="M80.59,317.21s-1.13-5-5.46-1.5c0,0,4-2.61,5.13,1.77Z"/><polygon class="cls-9" points="195.12 266.9 197.38 314.04 197.11 312.73 194.62 265.34 195.12 266.9"/><polygon class="cls-9" points="191.49 280.42 192.16 322.36 191.35 323.23 191.19 284.73 191.49 280.42"/><polygon class="cls-9" points="185.62 281.1 184.18 319.55 184.63 319.9 185.94 282.15 185.62 281.1"/><polygon class="cls-9" points="180.85 290.83 177.71 320.32 178.38 320.73 180.91 292.45 180.85 290.83"/><path class="cls-9" d="M178.81,314.72s3.21-3.42,5.84.39l.07-.79s-1.69-3.43-5.88,0Z"/><path class="cls-9" d="M179.7,305.94s2.62-3.66,5.34-.46l0-.61a3.6,3.6,0,0,0-5.36.23Z"/><path class="cls-9" d="M184.72,314.32s4.65-3.42,7.17,2l-.17.49s-2.49-5.69-6.95-2.1Z"/><path class="cls-9" d="M185.18,305.47s2.72-5.73,6.39.47l.08.64s-3.44-6.31-6.52-.63Z"/><path class="cls-9" d="M185.54,295.52s4.84-5.31,6.09,1.48V296s-1.65-6.11-6.17-1Z"/><path class="cls-9" d="M185.53,294.45s-1.86-4.17-5.27,0c0,0,3.76-3.35,5.26.68Z"/><path class="cls-9" d="M185.71,285.72s3.38-5.4,5.76.32c0,0-2.59-5.12-5.84.37Z"/><path class="cls-9" d="M179.65,305.1s-1.24-4.39-5.58-.79c0,0,4.18-3,5.56,1.35Z"/><path class="cls-9" d="M178.48,314.63s-3.35-5.51-5.84-1.08c0,0,2.18-3.62,6,1.6Z"/><path class="cls-9" d="M191.64,295.42s3.7-4.26,4.73,1.24l.07.73s-.94-6.17-4.8-1.44Z"/><path class="cls-9" d="M191.75,306.84s3.82-5.81,5.37,1.31v-1.34s-1.51-5.82-5.41-.47Z"/><path class="cls-9" d="M191.89,316.35s3.83-4.83,5.75.45c0,0-1.71-4.15-5.65-.11Z"/><path class="cls-9" d="M196.86,306.17s2.7-4.2,4.26-.39c0,0-1.93-3.21-4.19.92Z"/><path class="cls-9" d="M196.32,296.09s2.52-4.59,4.59-.26c0,0-2.37-3.62-4.52.68Z"/><polygon class="cls-9" points="201.53 319.76 199.44 276.13 199.86 277 201.95 320.94 201.53 319.76"/><polygon class="cls-9" points="204.33 285.32 205.56 316.99 205.9 316.49 204.83 284.02 204.33 285.32"/><polygon class="cls-9" points="175.48 293.2 172.75 320.69 172.38 320.16 175.33 291.16 175.48 293.2"/><path class="cls-9" d="M196,285.9s2.15-5.13,4.19-.22c0,0-2.07-3.93-4.22.77Z"/><path class="cls-9" d="M195.35,274s2.65-4.41,4.16.15c0,0-1.86-4.26-4.16.73Z"/><path class="cls-9" d="M195.16,274.5s-1.47-3.43-3.82-.34c0,0,1.86-3.77,3.87-.44Z"/><path class="cls-9" d="M201.12,305.78s3-4.1,4.28.52c0,0-.58-5.08-4.28-1Z"/><path class="cls-9" d="M201.59,315.57s2.57-4.3,4-.57c0,0-1.65-3.62-4,1.18Z"/><path class="cls-9" d="M200.6,295.55s3-4.91,4.37.18c0,0-.78-5.67-4.4-.47Z"/><path class="cls-9" d="M200.2,285s2.4-4.42,4.33.64c0,0-2.08-4.65-4.42,0Z"/><path class="cls-9" d="M205.16,294.79s1.53-3.19,3.37-.06c0,0-1.18-3.67-3.52-.18Z"/><path class="cls-9" d="M205.46,305.39s2.16-3.94,3.79.12c0,0-1.54-3.52-3.79.3Z"/><path class="cls-9" d="M205.76,314.75s1.74-3.49,3.28,0c0,0-1.51-3.34-3.28.51Z"/><path class="cls-9" d="M174.07,304.31s-3.35-4.48-5.67.39c0,0,1.6-5.46,5.88-.89Z"/><path class="cls-9" d="M173.43,312.43s-3.47-3.66-5.6.44c0,0,2.56-3.57,5.46,0Z"/><polygon class="cls-9" points="354.53 285.95 357.4 320.75 357.85 320.38 355.01 283.44 354.53 285.95"/><polygon class="cls-9" points="359.15 271.28 363.94 325.2 364.28 324.45 359.85 269.47 359.15 271.28"/><polygon class="cls-9" points="365.98 274.66 368.85 322.84 369.44 323.01 366.55 272.68 365.98 274.66"/><polygon class="cls-9" points="372.94 263.93 375.09 326.71 375.45 326.23 373.49 262.21 372.94 263.93"/><polygon class="cls-9" points="378.96 272.13 382.19 325.7 382.53 324.57 379.42 269.33 378.96 272.13"/><polygon class="cls-9" points="385.31 277.16 389.16 322.52 389.51 322.08 385.82 274.87 385.31 277.16"/><polygon class="cls-9" points="391.43 285.24 395.65 326.29 396.15 326.29 391.98 282.95 391.43 285.24"/><polygon class="cls-9" points="394.73 268.04 402.48 322.39 403.01 322.04 395.24 265.92 394.73 268.04"/><polygon class="cls-9" points="402.74 282.57 406.9 319.07 407.41 318.51 403.16 279.78 402.74 282.57"/><polygon class="cls-9" points="408.96 290.19 413.95 322.7 414.34 321.95 409.59 288.88 408.96 290.19"/><path class="cls-9" d="M407,315.44s3.17-5.35,6.22.75c0,0-2.62-7.09-6.42-1.07Z"/><path class="cls-9" d="M405.71,304.82s3.45-6.18,5.74-.28c0,0-2.37-5.07-5.74.95Z"/><path class="cls-9" d="M404.28,292s3.09-5.79,5.47.55c0,0-2-7.33-5.63-.87Z"/><path class="cls-9" d="M406.7,315.68s-2.06-4.64-4.92.16l-.12-.6S404.83,310.65,406.7,315.68Z"/><path class="cls-9" d="M400.47,305.89s1.91-4.64,5.24-.4l-.16-.67S402,300.5,400.47,305.89Z"/><path class="cls-9" d="M398.53,291.06s2.66-5.51,5.59.76c0,0-3.05-5.59-5.55,0Z"/><path class="cls-9" d="M396.59,277.9s2.38-5.23,5.83,0c0,0-2.54-6.22-6-.43Z"/><path class="cls-9" d="M398.37,290.79s-2.89-5.47-6,.63c0,0,3.13-5.43,6-.08Z"/><path class="cls-9" d="M394.05,305.69s3.1-5.47,6.31,0c0,0-3-4.91-6.31.56Z"/><path class="cls-9" d="M394.89,316s4.16-6.58,6.93.08c0,0-2.49-6-6.85.47Z"/><path class="cls-9" d="M386.76,290.07s2.58-5.67,5.55.12c0,0-3.13-5.19-5.55.68Z"/><path class="cls-9" d="M387.87,304s4.72-5.08,6,1.78c0,0-2.14-6.54-6-1Z"/><path class="cls-9" d="M388.86,317.5s3.29-7.13,6.07-.51c0,0-2.5-5.95-5.95.91Z"/><path class="cls-9" d="M386,277.19s2.49-5.07,5-.16c0,0-3.21-4-5,.91Z"/><path class="cls-9" d="M385.43,277.33s-1.65-5.46-5.64-.3c0,0,3.51-4.38,5.9.87Z"/><path class="cls-9" d="M380.44,290.56s3.17-6.59,6.29,0c0,0-3.3-6-6.33,1Z"/><path class="cls-9" d="M381.31,304.06c.13,0,4.05-5.88,6.6.68v.62s-1.82-7-6.63-.74Z"/><path class="cls-9" d="M382,317.46c0-.13,3.31-7.59,6.86,0,0,0-3.39-6.89-6.81.7Z"/><path class="cls-9" d="M373.76,277.11s2.43-7.63,5.77,0c0,0-3.08-6.72-5.86.83Z"/><path class="cls-9" d="M380.44,290.56s-1.95-7.37-6.33-.08c0,0,4.16-6.38,6.29.69Z"/><path class="cls-9" d="M381.14,304.19s-3.39-7.29-6.64-.22l.08.87S377.06,297.81,381.14,304.19Z"/><path class="cls-9" d="M374.93,316.77s4.34-6.94,6.94.52l.18.91S380.14,310.74,374.93,316.77Z"/><path class="cls-9" d="M373.63,276.68s-3-8.63-7.07,1c0,0,3.86-8.37,7-.44Z"/><path class="cls-9" d="M367.21,288.65s3.56-7.37,6.9,1.52c0,0-3.47-7.72-6.81-.95Z"/><path class="cls-9" d="M368.08,303.4s1.91-6.76,6.33.31l.13.74S370.94,297.55,368.08,303.4Z"/><path class="cls-9" d="M368.64,316.51s1.74-6.55,6.25-.05c0,0-4.12-5.64-6.08.7Z"/><path class="cls-9" d="M373.2,264.32s-3.39-4.56-6.38.08c0,0,1.82-5.33,6.55-.56Z"/><path class="cls-9" d="M409.71,290.89s2.45-5.78,5.85.07c0,0-3.34-4.89-5.78.64Z"/><path class="cls-9" d="M411.64,303.82s2.83-5.72,6.24.32c0,0-2.88-4.79-6.43.4Z"/><path class="cls-9" d="M361.13,289.37s2.76-6.84,6-.5c0,0-2.58-5.75-5.88,1Z"/><path class="cls-9" d="M362.3,303.26c.14-.13,2.94-6.88,5.66-.54,0,0-3.17-5.39-5.52,1.27Z"/><path class="cls-9" d="M363.34,315.62s3.4-6,5.39.68c0,0-2-6.11-5.39-.09Z"/><path class="cls-9" d="M360,275.74s2.08-6.07,6.11.5l.23.86S363.07,270.62,360,275.74Z"/><path class="cls-9" d="M361.08,289.59s-1.72-5.07-5.89-.27c0,0,2.86-5.52,5.94-.41Z"/><path class="cls-9" d="M356.22,301.88s2.87-5.41,5.95,1c0,0-3.17-5.84-5.84-.09Z"/><path class="cls-9" d="M357.29,315.42s2.78-5.57,6,0l0,.69S361.1,310.49,357.29,315.42Z"/><path class="cls-9" d="M359.82,275.51s-3.72-4.76-6,1.35c0,0,2-7.29,6-1.75Z"/><path class="cls-9" d="M357.11,315.46s-1.7-4.88-5.33.32c0,0,2.91-5.91,5.42-.76Z"/><path class="cls-9" d="M356,301.23s-2.51-4.75-6,1.21c0,0,3.9-5.67,6.13-.23Z"/><polygon class="cls-9" points="438.34 263.79 441.97 287.95 441.59 287.91 437.85 263.1 438.34 263.79"/><path class="cls-9" d="M439,269.42s-2.36-3.95-4.85.36c0,0,2.83-3.83,4.85,0Z"/><path class="cls-9" d="M440.33,278.41s-2.76-6-5.77-.27c0,0,2.59-4.78,5.89,1Z"/><polygon class="cls-9" points="319.5 294.02 320.3 319.04 320.74 316.93 320.12 292.41 319.5 294.02"/><polygon class="cls-9" points="324.46 297.82 325.57 320.12 325.94 319.51 325.22 296.1 324.46 297.82"/><polygon class="cls-9" points="328.8 288.83 330.83 312.54 331.42 311.89 329.72 289.78 328.8 288.83"/><path class="cls-9" d="M325.28,307.11s2.38-6,5.36-.58c0,0-2.68-4.51-5.32,1.36Z"/><path class="cls-9" d="M325.66,316.87s2.95-5.56,5.52-.44c0,0-2.34-4.81-5.49,1.12Z"/><path class="cls-9" d="M329.49,292.22s-1.87-4.1-4.58.85c0,0,3.29-4.54,4.54.24Z"/><path class="cls-9" d="M320.06,306.56s2.34-5.49,5,.17c0,0-2.74-5.18-4.88.65Z"/><path class="cls-9" d="M320.64,315.82s2.92-4.17,4.88.78c0,0-2-4.54-5-.1Z"/><path class="cls-9" d="M320.1,306.36s-1.73-4.71-5-.3c0,0,3.18-3.73,5,.88Z"/><path class="cls-9" d="M320.37,315.89s-2.31-4.68-5.22.13c0,0,2.71-4.13,5.22.27Z"/><path class="cls-9" d="M319.66,294.16s-2.27-5.06-5.19.88c0,0,3.08-5.53,5.25.07Z"/><path class="cls-9" d="M330.77,306.09s3.1-4.87,5.64-.25c0,0-2.57-3.81-5.67.87Z"/><polygon class="cls-9" points="250.11 288.9 249.06 312.66 249.52 312.33 250.94 287.56 250.11 288.9"/><polygon class="cls-9" points="254.85 293.15 253.81 328.79 254.32 327.57 255.68 291.82 254.85 293.15"/><polygon class="cls-9" points="260.41 287.4 259.74 325.58 260.25 324.58 260.92 288.69 260.41 287.4"/><polygon class="cls-9" points="265.09 289.3 265.51 330.38 265.95 328.8 265.66 287.16 265.09 289.3"/><polygon class="cls-9" points="271.64 286.44 270.85 325.47 271.42 325.36 272.04 288.59 271.64 286.44"/><polygon class="cls-9" points="245.72 293.17 244.35 324.8 243.83 323.11 245.33 291.67 245.72 293.17"/><polygon class="cls-9" points="276.93 300.58 277.77 329.21 278.33 328.75 277.47 299.33 276.93 300.58"/><polygon class="cls-9" points="281.49 290.83 283.22 316.59 283.74 315.37 281.98 289.26 281.49 290.83"/><path class="cls-9" d="M277.51,302.51s2.15-5.7,5-.41c0,0-2.83-4.27-5.1,1.09Z"/><path class="cls-9" d="M277.62,311.73s3-6.54,5.47,0c0,0-2.49-5.74-5.51.86Z"/><path class="cls-9" d="M278,322.79s3.06-5.55,5.56,0c0,0-2.38-4.83-5.71.6Z"/><path class="cls-9" d="M283.24,311.45s3.27-5.1,5,.23c0,0-1.1-6-5.06-.61Z"/><path class="cls-9" d="M282.63,301.55s2.36-6,4.83.38c0,0-2.17-5.67-4.83.35Z"/><path class="cls-9" d="M282,291.31s3-4.8,5,.4c0,0-.64-5.77-5.19-.83Z"/><path class="cls-9" d="M277.73,322.72s-2.07-6.91-6.51-.61l.07.79S274.33,316.31,277.73,322.72Z"/><path class="cls-9" d="M271.54,312.48s3.61-6.7,5.94-.15l0,.65S275.83,306.64,271.54,312.48Z"/><path class="cls-9" d="M271.75,301.81s2.83-5.63,5.52.5c0,0-2.62-5.45-5.55.14Z"/><path class="cls-9" d="M271.72,301.16s-3.05-7.05-6.31.11c0,0,3.55-5.91,6.34.54Z"/><path class="cls-9" d="M271.86,291.13s-3.4-7.77-6.48.58c0,0,3.19-7.09,6.52,0Z"/><path class="cls-9" d="M265.56,311.83s2.79-5.41,5.94.29c0,0-3.61-4.69-5.94.36Z"/><path class="cls-9" d="M265.68,323.09s2.32-5.88,5.45-.65l-.08.58S269.47,317.8,265.68,323.09Z"/><path class="cls-9" d="M260.66,290s2.89-6.1,4.59,1.39c0,0-2.33-6.7-4.53-.6Z"/><path class="cls-9" d="M260.41,300.25s2.29-5,4.94,0l0,.79S263.58,296,260.41,300.25Z"/><path class="cls-9" d="M260.41,312s1.73-6.16,5.12-.25c0,0-2.76-5.19-5.22.88Z"/><path class="cls-9" d="M260.09,322.65s2-6.33,5.48,0l0,.63S263.05,316.83,260.09,322.65Z"/><path class="cls-9" d="M255.06,300.12s2.39-6.32,5.28-.15c0,0-2.73-5.63-5.15.59Z"/><path class="cls-9" d="M254.56,311.92s2.51-6,5.53-.16c0,0-3.11-4.87-5.5.7Z"/><path class="cls-9" d="M254.18,322.68s2.58-6.54,5.91-.66v.63S257.83,316.67,254.18,322.68Z"/><path class="cls-9" d="M250.15,297.86s1.86-5,4.75.94c0,0-2.45-5.19-4.72-.34Z"/><path class="cls-9" d="M249.43,311.07s2.42-5.13,5.06.06c0,0-2.61-4.37-5,.32Z"/><path class="cls-9" d="M254.15,321.89s-2.27-4.78-4.85-.28c0,0,2.49-4,4.85.75Z"/><path class="cls-9" d="M249.9,298s-2.52-5.41-4.78.57c0,0,2.58-5.28,4.75.1Z"/><path class="cls-9" d="M249.43,311.07s-2.46-5.6-4.72.41c0,0,2.14-5.22,4.75,0Z"/><path class="cls-9" d="M244.18,320.82s-2.21-4.75-4.5.13c0,0,2.17-4.12,4.46.31Z"/><path class="cls-9" d="M244.62,310.6s-2.58-5.22-5.1.72c0,0,2.55-5.09,5.06-.37Z"/><path class="cls-9" d="M245.18,298s-2-4.59-4.81.13c0,0,2.89-4,4.84.28Z"/><polygon class="cls-9" points="285.14 163.32 285.94 188.34 286.38 186.23 285.76 161.71 285.14 163.32"/><polygon class="cls-9" points="290.11 167.12 291.21 189.42 291.59 188.8 290.86 165.39 290.11 167.12"/><polygon class="cls-9" points="294.45 158.13 296.48 181.84 297.06 181.19 295.36 159.08 294.45 158.13"/><path class="cls-9" d="M290.93,176.4s2.37-6,5.36-.57c0,0-2.68-4.51-5.33,1.35Z"/><path class="cls-9" d="M291.3,186.17s2.95-5.56,5.53-.44c0,0-2.34-4.82-5.49,1.12Z"/><path class="cls-9" d="M295.13,161.52s-1.86-4.1-4.57.85c0,0,3.28-4.55,4.54.24Z"/><path class="cls-9" d="M285.71,175.86s2.34-5.49,5,.17c0,0-2.75-5.19-4.89.64Z"/><path class="cls-9" d="M286.28,185.12s2.92-4.17,4.89.78c0,0-2-4.55-5-.11Z"/><path class="cls-9" d="M285.74,175.66s-1.73-4.71-4.95-.31c0,0,3.19-3.73,5,.88Z"/><path class="cls-9" d="M286,185.18s-2.3-4.67-5.22.14c0,0,2.71-4.14,5.22.27Z"/><path class="cls-9" d="M285.3,163.45s-2.27-5-5.19.88c0,0,3.09-5.52,5.26.07Z"/><path class="cls-9" d="M296.42,175.38s3.09-4.86,5.63-.24c0,0-2.57-3.81-5.66.86Z"/><polygon class="cls-9" points="239.94 161.79 235.37 181.18 235.72 181.58 239.9 163.1 239.94 161.79"/><polygon class="cls-9" points="234.9 163.03 227.8 186.36 228.07 187.84 235.15 163.31 234.9 163.03"/><path class="cls-9" d="M231.33,175.81s3.54-2.56,5.27,1.39l.2-.71s-.93-3.44-5.37-1.09Z"/><path class="cls-9" d="M233.71,167.93s3-2.88,5,.53l.08-.56a3.35,3.35,0,0,0-4.93-.75Z"/><path class="cls-9" d="M236.8,176.49s3.73-2.5,5.54,2.31c0,0-1.71-4.16-5.57-1.91Z"/><path class="cls-9" d="M238.52,168.5s3.69-4.69,5.93,1.64c0,0-2.4-5.48-6-1.21Z"/><path class="cls-9" d="M231.42,175.49s-1.93-3.83-5.36-1.2c0,0,3.08-2.18,5.09,1.61Z"/><path class="cls-9" d="M228.88,183.53s3.6-3.71,5.44,1.58c0,0-2.08-4.34-5.29-1.18Z"/><path class="cls-9" d="M229,184.17s-1.14-5-5.47-1.5c0,0,4-2.62,5.13,1.76Z"/><polygon class="cls-9" points="317.89 159.77 321.42 179.38 321.05 179.76 317.87 161.09 317.89 159.77"/><polygon class="cls-9" points="322.87 161.28 328.71 184.95 328.37 186.42 322.6 161.54 322.87 161.28"/><path class="cls-9" d="M325.75,174.23s-3.4-2.75-5.33,1.11l-.17-.72s1.11-3.39,5.42-.8Z"/><path class="cls-9" d="M323.8,166.24s-2.9-3-5,.27l-.05-.57a3.35,3.35,0,0,1,5-.48Z"/><path class="cls-9" d="M320.25,174.62s-3.59-2.69-5.65,2c0,0,1.92-4.06,5.66-1.61Z"/><path class="cls-9" d="M319,166.55s-3.42-4.88-6,1.32c0,0,2.7-5.35,6.12-.88Z"/><path class="cls-9" d="M325.67,173.91s2.14-3.72,5.42-.92c0,0-2.95-2.34-5.17,1.34Z"/><path class="cls-9" d="M327.79,182.07s-3.41-3.89-5.52,1.29c0,0,2.3-4.23,5.35-.89Z"/><path class="cls-9" d="M327.67,182.71s1.41-5,5.54-1.21c0,0-3.9-2.83-5.21,1.49Z"/><polygon class="cls-8" points="354.49 251.37 356.82 234.72 359.73 251.66 354.49 251.37"/><polygon class="cls-8" points="390.05 251.67 392.13 234.14 395.4 252.5 390.05 251.67"/><polygon class="cls-8" points="428.35 253.43 430.56 235.69 432.08 253.24 428.35 253.43"/><polygon class="cls-8" points="462.69 253.61 465.8 238 466.42 253.43 462.69 253.61"/><polygon class="cls-8" points="203.78 250.9 201.45 234.25 198.54 251.18 203.78 250.9"/><polygon class="cls-8" points="168.21 251.2 166.13 233.67 162.87 252.02 168.21 251.2"/><polygon class="cls-8" points="129.91 252.96 127.7 235.22 126.18 252.77 129.91 252.96"/><polygon class="cls-8" points="95.57 253.13 92.47 237.53 91.85 252.96 95.57 253.13"/><path class="cls-10" d="M283.19,125.61l-1,1.57s2.33.49,3.11,4.45.14,7.44,1.37,9.23,1.88,2.88,5.61,4.17L294,145s-3.55-.17-5.12-4.88c-1.29-3.85.26-8-2.22-11.85A6.06,6.06,0,0,0,283.19,125.61Z"/><path class="cls-9" d="M246.15,64.52s-3.83,9.12,2.78,10.68c0,0,5.45.55,7.29-9.12,0,0-1.73,8,4.17,9.34,0,0,6.22.94,6.06-8.45,0,0-1.56,9.11-5.95,7.61,0,0-4.9-.44-4-9.89,0,0-2,9.56-7.33,9.67C249.16,74.36,244.15,75.08,246.15,64.52Z"/><path class="cls-9" d="M254.27,55s-3.28,9.23,2.39,9.39c0,0,5.62-.11,6.9-8.78,0,0-.34,10.51-7.4,9.56C256.16,65.13,250.27,63.63,254.27,55Z"/><path class="cls-9" d="M312.54,70.77s3.32,9.32-3.37,10.51c0,0-5.47.25-6.77-9.51,0,0,1.28,8-4.68,9.1,0,0-6.27.6-5.58-8.78,0,0,1.05,9.19,5.52,7.94,0,0,4.91-.18,4.54-9.66,0,0,1.47,9.66,6.8,10.06C309,80.43,314,81.43,312.54,70.77Z"/><path class="cls-9" d="M297.74,43.42s3.33,9.32-3.37,10.51c0,0-5.47.26-6.77-9.51,0,0,1.29,8-4.67,9.1,0,0-6.27.6-5.59-8.77,0,0,1.05,9.19,5.52,7.93,0,0,4.91-.17,4.54-9.66,0,0,1.48,9.66,6.8,10.07C294.2,53.09,299.16,54.08,297.74,43.42Z"/><path class="cls-9" d="M290.34,33.58s3.28,9.23-2.39,9.4c0,0-5.62-.11-6.9-8.79,0,0,.34,10.51,7.4,9.57C288.45,43.76,294.34,42.25,290.34,33.58Z"/><path class="cls-9" d="M292.14,72.09s-.34,8.3-6.69,8.26c0,0-6.71-.11-4.09-8.38,0,0-2,7.35,4.21,7.72C285.57,79.69,289.85,80.23,292.14,72.09Z"/><path class="cls-9" d="M306,60.72s3.32,9.31-3.37,10.5c0,0-5.47.26-6.77-9.5,0,0,1.28,8-4.68,9.09,0,0-6.27.6-5.58-8.77,0,0,1.05,9.19,5.52,7.93,0,0,4.91-.17,4.54-9.66,0,0,1.47,9.66,6.8,10.07C302.44,70.38,307.39,71.37,306,60.72Z"/><path class="cls-9" d="M263.44,44.13s-3.28,9.23,2.39,9.4c0,0,5.61-.11,6.89-8.79,0,0-.33,10.51-7.39,9.57C265.33,54.31,259.43,52.81,263.44,44.13Z"/><polygon class="cls-11" points="250.86 490.57 247.82 412.85 312.79 412.7 312.34 490.57 250.86 490.57"/><polygon class="cls-3" points="275.54 449.74 285.23 449.59 284.83 461.37 275.8 461.37 275.54 449.74"/><polygon class="cls-12" points="278.83 412.84 279.95 490.52 280.07 490.57 280.02 412.83 278.83 412.84"/><polygon class="cls-12" points="253.82 446.58 252.42 418.75 273.8 418.66 273.54 446.41 272.93 446.23 272.58 420.67 254.08 420.93 255.13 445.97 253.82 446.58"/><polygon class="cls-12" points="286.15 445.69 285.19 418.47 308.13 418.29 307.78 445.69 307.17 445.34 306.82 420.56 287.02 419.95 287.37 445.08 286.15 445.69"/><polygon class="cls-12" points="255.48 486.28 254.6 463.07 274.15 462.99 274.41 486.19 274.06 486.02 272.58 464.82 256.52 465.25 256.87 485.58 255.48 486.28"/><polygon class="cls-12" points="285.54 485.56 286.15 462.88 308.13 462.62 308.57 484.52 307.52 484.17 306.65 465.23 287.63 464.19 286.84 484.78 285.54 485.56"/><polygon class="cls-12" points="254.64 459.67 254.17 450.77 262 450.6 262.46 459.85 262 459.32 260.98 451.56 255.81 451.9 255.42 458.88 254.64 459.67"/><polygon class="cls-12" points="265.99 459.06 265.8 450.68 273.93 450.68 274.41 459.5 273.17 458.71 272.69 451.64 266.94 451.82 266.85 458.71 265.99 459.06"/><polygon class="cls-12" points="286.32 450.4 286.69 459.32 287.19 459.04 287.37 451.36 294.96 451.62 295.13 459.3 295.57 459.65 295.57 450.49 286.32 450.4"/><polygon class="cls-12" points="299.18 459.04 298.51 450.23 307.67 450.31 308.05 459.13 307.09 458.95 306.9 451.1 300.23 451.62 299.94 458.51 299.18 459.04"/><polygon class="cls-13" points="253.82 446.58 273.54 446.41 272.93 446.23 255.13 445.97 253.82 446.58"/><polygon class="cls-13" points="286.15 445.69 307.78 445.69 307.17 445.34 287.37 445.08 286.15 445.69"/><polygon class="cls-13" points="254.64 459.67 262.46 459.85 262 459.32 255.42 458.88 254.64 459.67"/><polygon class="cls-13" points="265.99 459.06 274.41 459.5 273.17 458.71 266.85 458.71 265.99 459.06"/><polygon class="cls-13" points="255.48 486.28 274.41 486.19 274.06 486.02 256.87 485.58 255.48 486.28"/><polygon class="cls-13" points="287.19 459.04 286.69 459.32 295.57 459.65 295.13 459.3 287.19 459.04"/><polygon class="cls-13" points="299.18 459.04 308.05 459.13 307.09 458.95 299.94 458.51 299.18 459.04"/><polygon class="cls-13" points="285.54 485.56 308.57 484.52 307.52 484.17 286.84 484.78 285.54 485.56"/><polygon class="cls-14" points="176.07 358.61 177.46 403.96 207.63 404.4 208.49 359.7 176.07 358.61"/><polygon class="cls-15" points="177.16 358.63 207.7 389.54 207.17 393.69 176.71 367.89 177.16 358.63"/><polygon class="cls-15" points="177.45 371.53 207.1 397.8 206.9 398.95 177.61 375.72 177.45 371.53"/><path class="cls-11" d="M209.79,403.21l.61-45.27-36.55-.88,1.77,45.2-4.18.07.22,4.39,41.64.44.22-3.73ZM193.17,373l13.5-.3-.32,17.44-12.66.13Zm-1.42,17.1-13.3-.35-.34-16.42,13.44-.3Zm15-19.28-13.6.13-.32-10.62,14.1.5Zm-15.27-10.53.09,10.67-13.48.14-.33-11.3Zm-12.79,31.43,13,.26.09,10.72L179,402.5Zm15.42,11L193.75,392l12.56.25-.19,10.64Z"/><polygon class="cls-14" points="246.72 353.7 248.67 399.86 309.71 401.23 310.79 353.93 246.72 353.7"/><polygon class="cls-15" points="247.62 353.04 294.59 399.95 287.99 399.81 247.01 365.38 247.62 353.04"/><polygon class="cls-15" points="248.01 370.25 283.93 401.29 283.71 403.28 248.23 375.83 248.01 370.25"/><polygon class="cls-15" points="282.69 354.28 310.03 384.78 310.33 382.13 287.28 354.17 282.69 354.28"/><path class="cls-11" d="M244.57,352.57l2.76,51,64.28,1.51,1.76-52.74Zm64.23,25.68-11.73-.36,0-10.77,12-.08Zm-13.5-.42-13-.4-.48-10.2,13.85-.1Zm-13.57-12.32-.49-10.37,14.8.05-.33,10.13Zm-3.51.05-14.31.19-.5-10.67,14.82.05Zm0,1.69,0,10.05-13.76-.42-.45-9.53ZM263,376.83l-14-.43-.4-8.95,14.15-.09Zm-14,1.67,14,.21.26,8.76-13.87-.17Zm15.49.24,13.67.2,0,8.72-13.24-.17Zm13.65,10.89v7.87l-12.77-.27-.37-7.86Zm4.67.09,12,.24-.26,7.89-11.43-.24Zm-.1-2-.4-8.71,12.9.19-.28,8.67Zm14.32-8.49,11.7.17-.21,8.64-11.46-.15Zm12.05-14.09L297,365.3l0-10.11,12.36,0Zm-46.78-10.07.32,10.7-14.18.19L248,355Zm-12.83,34,13.85.27.23,7.85-13.73-.29Zm47.62,8.84,0-7.91,11.4.23-.19,7.91Z"/><polygon class="cls-14" points="425.28 357.5 425.08 404.18 456.13 403.53 459.58 356.85 425.28 357.5"/><polygon class="cls-15" points="426.03 356.72 457.24 388.03 456.7 392.23 425.57 366.09 426.03 356.72"/><polygon class="cls-15" points="426.33 369.79 456.63 396.4 456.42 397.56 426.49 374.02 426.33 369.79"/><path class="cls-11" d="M464.92,401.62l-5-.21,1.54-45.85H422.54l.19,46.7h-3.08l-.2,3.4,46.24,1.06Zm-7.62-31.4-13.44-.2.08-11.29,14.21-.27Zm-30,1.43,14.71.64-.33,15.56-14.45.18Zm16.54.71,13.26.57L456,387.68l-12.3.15Zm-1.55-13.59L442.05,370l-14.74-.23,0-10.7Zm-15.07,31.59,14.41-.1-.23,11.26-14.23.31Zm16.4,11.11.09-11.23,12.14-.09-.8,11.08Z"/><polygon class="cls-14" points="357.55 469.28 356.24 421.6 391.55 422.66 390.79 469.28 357.55 469.28"/><polygon class="cls-15" points="357.43 421.25 390.63 453.87 390.05 458.24 356.94 431.02 357.43 421.25"/><polygon class="cls-15" points="357.75 434.87 389.98 462.59 389.76 463.8 357.92 439.28 357.75 434.87"/><path class="cls-11" d="M396.34,467.36l-3.75,0,.83-47.21-40.36-.23,2.12,47-3.82,0,.24,4.27,45,1Zm-6.54-31.43-13.18.18V423.84l13.37.4Zm-.3,18.41-12.88-.43V438.3l13.14.21Zm-31-16.34,15.43.25-.06,15.57-15-.49ZM374,423.76l0,12.38-15.49.21-.35-13.07Zm-15,31.47,14.91.21,0,11.31H359.25Zm17.69,11.52V455.48l12.86.18-.18,11.09Z"/><polygon class="cls-14" points="423.56 421.21 423.78 468.75 457.64 468.75 459.14 421.01 423.56 421.21"/><polygon class="cls-15" points="424.88 420.72 457.46 453.33 456.89 457.71 424.4 430.48 424.88 420.72"/><polygon class="cls-15" points="425.19 434.33 456.82 462.06 456.6 463.27 425.36 438.75 425.19 434.33"/><path class="cls-11" d="M461.65,467l-3.13-.13,3.25-47.5-40.33.25.5,46.87h-3.51l.25,4.18,43.47.38Zm-5.42-13.7H442.78l.14-14.94,13.75.16Zm-30.34-15.13,14.82.17-.29,15H426Zm30.85-2-13.8.26.14-14,14.08-.09ZM441,422.45l-.27,14.07-14.87.27-.06-14.25ZM426,454.74l14.43.31-.22,11.6H426Zm16.69,11.91.11-11.55,13.41.28-.33,11.27Z"/><polygon class="cls-14" points="177.06 425.28 179.32 472.42 208.76 472.2 208.99 426.39 177.06 425.28"/><polygon class="cls-15" points="177.51 424.88 208.67 456.34 208.13 460.56 177.06 434.3 177.51 424.88"/><polygon class="cls-15" points="177.81 438.01 208.06 464.76 207.85 465.93 177.98 442.27 177.81 438.01"/><path class="cls-11" d="M210.23,469.62l1.1-45.15-36.42-.5,1.59,46.08-4.18-.22.65,4.39h41.64l.38-4.7ZM194.8,440.78l12.5.22-.09,17.47-11.78-.37ZM193.57,458l-14-.43-.81-17.11,14.63.25Zm13.74-19.52-12.58.14-.41-11.33,13,.46Zm-14-11.23.11,11.39-14.69.16-.57-12.09ZM179.7,460l13.89.47.09,10.14-13.47.1Zm16.18,10.59-.36-10.06,11.68.4,0,9.57Z"/><polygon class="cls-14" points="116.39 426.12 148.38 426.12 149.54 471.14 118.25 472.05 116.39 426.12"/><polygon class="cls-15" points="117.56 426.15 149.13 457.54 148.58 461.75 117.09 435.55 117.56 426.15"/><polygon class="cls-15" points="117.86 439.25 148.51 465.93 148.3 467.1 118.03 443.5 117.86 439.25"/><path class="cls-11" d="M155.7,469.47l-4.23-.62-.41-45.26-36.35,1.09,1.06,44.49-4.42.17.53,4.77,44.07.35ZM134.19,441.7l12.77-.34.39,15.43-12.64-.31Zm-1.91,14.72-13.15-.32-.55-14,13-.34Zm14.63-17.36-12.81,0-.39-11.24h12.91ZM131,427.79l.51,11.23-13,0L118,427.79Zm-11.69,31.83,13.15-.12.46,10-13.21.39Zm15.89,9.79-.35-9.93,12.61-.11.24,9.67Z"/><polygon class="cls-14" points="114.84 358.89 145.56 358.89 145.34 403.27 117.94 404.19 114.84 358.89"/><polygon class="cls-15" points="115.53 359.49 146.07 390.39 145.54 394.54 115.08 368.74 115.53 359.49"/><polygon class="cls-15" points="115.83 372.39 145.47 398.66 145.27 399.81 115.99 376.57 115.83 372.39"/><path class="cls-11" d="M153.87,402.37l-6-.14.13-45.48-35.94.87,2.09,44.89-5,.14-.57,4.72h45.8Zm-9.26-13-12.1-.11.24-15.57,11.94-.61Zm-14.46-.13-12.21-.12-1-14.62,13.08-.67Zm14.55-18.39-11.92.39.16-10.43h11.82Zm-14.85-10,.11,10.52-13.25.43-.77-10.95Zm-11.72,31,12-.19.1,9.88-11.43.37Zm14.2,9.62.15-9.85,12.12-.19,0,9.65Z"/><polygon class="cls-14" points="356.49 357.63 358.31 403.74 391.06 404.39 393.56 357.84 356.49 357.63"/><polygon class="cls-15" points="357.23 356.4 391.7 388.68 391.1 393.02 356.73 366.06 357.23 356.4"/><polygon class="cls-15" points="357.56 369.87 391.02 397.32 390.79 398.52 357.75 374.25 357.56 369.87"/><path class="cls-11" d="M393.59,402.5l2-46.74L354.8,356l.44,45.89h-3.07l-.44,4.21,46,.21V402.5Zm-2.19-31.94-16.46.23.14-11.85L392,359Zm-32.66,1.69,14.27.22-.42,15.88L359.35,388Zm16.18.25,16.36.26-.85,16.09-15.71-.44Zm-1.54-13.57-.32,11.89-14.37.2-.47-12.18Zm-13.93,31.62,13.07.32-.3,10.82-12.35-.24Zm15.11,11.19.13-10.82,15.61.37-.57,10.76Z"/><polygon class="cls-6" points="362.85 483.94 359.43 349.69 365.31 349.79 365.31 338.98 339.69 339.75 341.29 349.4 345.5 349.47 342.53 484.71 337.69 484.89 338.49 494.16 366.92 494.16 368.12 483.74 362.85 483.94"/><polygon class="cls-6" points="227.44 484.6 222.35 484.7 216.57 350.06 221.39 349.93 221.71 339.89 197.02 339.89 198.62 350.55 203.07 350.43 202.37 485.08 195.19 485.21 195.69 494.37 227.99 495.68 227.44 484.6"/><polygon class="cls-9" points="38.77 332.06 541.79 332.92 540.06 345.06 39.64 344.2 38.77 332.06"/><path class="cls-16" d="M278.35,451.77l-1.77.22.09,8.06,1.94.13ZM277,459.64l0-7.21.95-.06.27,7.29Z"/><path class="cls-16" d="M282.75,451.81l-1.47-.08-.08,8.36,2,.05Zm-1.15,7.85v-7.37l.86,0,.27,7.25Z"/><polygon class="cls-6" points="472.72 346.56 472.2 354.61 483.76 354.76 484.17 346.4 472.72 346.56"/><polygon class="cls-6" points="477 356.3 476.75 367.07 483.14 367.26 483.67 356.51 477 356.3"/><polygon class="cls-6" points="472.59 369.15 483.04 369.09 482.57 378.52 473.11 378.37 472.59 369.15"/><polygon class="cls-6" points="477.64 380.5 477.78 391.74 481.91 391.94 482.46 380.56 477.64 380.5"/><polygon class="cls-6" points="481.82 393.35 474.28 393.16 473.51 405.13 481.27 405.03 481.82 393.35"/><polygon class="cls-6" points="481.13 407.09 475.96 406.84 476.04 419.05 480.54 419.34 481.13 407.09"/><polygon class="cls-6" points="480.41 421.85 472.33 421.85 472.78 435.75 479.7 436.05 480.41 421.85"/><polygon class="cls-6" points="479.61 437.72 475.36 437.85 474.75 449.82 478.98 450.38 479.61 437.72"/><polygon class="cls-6" points="478.92 451.66 472.19 451.32 472.19 464.02 478.31 463.97 478.92 451.66"/><polygon class="cls-6" points="478.24 465.25 474.45 465.36 474.43 475.56 477.76 475.66 478.24 465.25"/><polygon class="cls-6" points="477.67 477.06 470 477.06 469.77 487.74 477.14 488.11 477.67 477.06"/><polygon class="cls-6" points="95.52 345.04 102.83 345.3 103.8 355.56 95.83 355.22 95.52 345.04"/><polygon class="cls-6" points="95.86 356.93 100.7 357.22 100.78 367.8 96.2 367.92 95.86 356.93"/><polygon class="cls-6" points="96.28 370.62 103.65 370.67 104.2 379.39 96.55 379.64 96.28 370.62"/><polygon class="cls-6" points="96.62 381.76 100.48 381.65 101.03 393.12 96.97 393.06 96.62 381.76"/><polygon class="cls-6" points="97.01 395.58 104.83 395.72 104.18 406.97 97.39 407.07 97.01 395.58"/><polygon class="cls-6" points="97.43 409.13 100.89 409.07 101.78 420.32 97.77 420.35 97.43 409.13"/><polygon class="cls-6" points="97.84 422.43 105.14 422.53 105.29 433.34 98.19 433.99 97.84 422.43"/><polygon class="cls-6" points="98.27 436.43 102.17 436.3 102.86 448.16 98.63 448.23 98.27 436.43"/><polygon class="cls-6" points="98.7 450.22 105.79 450 106.32 462.36 99.08 462.51 98.7 450.22"/><polygon class="cls-6" points="99.08 464.14 103.1 463.79 103.87 476.59 99.47 476.62 99.08 464.14"/><polygon class="cls-6" points="99.52 478.15 107.01 477.81 106.75 489.94 99.89 490.08 99.52 478.15"/><polygon class="cls-6" points="395.82 424.65 395.52 433.98 414.19 434.07 414.29 424.65 395.82 424.65"/><polygon class="cls-6" points="404.24 435.38 420.46 435.59 420.78 445.56 403.7 444.71 404.24 435.38"/><polygon class="cls-6" points="374.4 477.23 374.68 486.74 395.27 486.46 395.41 477.09 374.4 477.23"/><polygon class="cls-6" points="398.65 351.19 397.97 360.67 418.3 360.93 418.84 350.42 398.65 351.19"/><polygon class="cls-6" points="315.22 458.35 315.22 467.01 335.1 468.29 334.39 457.5 315.22 458.35"/><polygon class="cls-6" points="323.31 447.27 322.89 456.08 340.35 456.36 340.5 447.27 323.31 447.27"/><polygon class="cls-6" points="317.74 376.26 317.74 385.07 336.91 385.92 336.2 375.83 317.74 376.26"/><polygon class="cls-6" points="223.35 406.16 224.49 416.67 244.09 416.38 243.66 406.16 223.35 406.16"/><polygon class="cls-6" points="150.31 349.85 150.03 360.5 171.18 360 171.47 350.1 150.31 349.85"/><polygon class="cls-6" points="137.24 409.35 137.39 419.57 158.83 420.14 157.84 409.49 137.24 409.35"/><polygon class="cls-6" points="160.53 409.63 161.24 419.72 181.83 420.14 181.41 409.92 160.53 409.63"/><polygon class="cls-6" points="152.72 422.13 152.72 432.07 172.04 433.06 171.61 421.7 152.72 422.13"/><polygon class="cls-6" points="130.29 478.08 130.85 489.01 153.43 489.16 152.3 477.51 130.29 478.08"/><polygon class="cls-7" points="363.66 496.95 364.23 508.41 390.1 508.41 389.53 496.12 363.66 496.95"/><polygon class="cls-7" points="393.63 496.39 393.63 509.1 418.37 509.31 418.18 497.22 393.63 496.39"/><polygon class="cls-7" points="377.26 513.09 377.83 523.51 405.96 524.35 405.21 512.26 377.26 513.09"/><polygon class="cls-7" points="475.14 510.37 474.95 521.16 498.95 521.55 498.4 509.79 475.14 510.37"/><polygon class="cls-7" points="461.29 496.12 461.84 507.1 486.38 507.49 486.01 496.5 461.29 496.12"/><polygon class="cls-7" points="74.79 495.94 74.96 507.8 100.17 507.98 99.63 496.3 74.79 495.94"/><polygon class="cls-7" points="88.2 510.49 88.63 521.61 114.09 523.72 112.76 509.83 88.2 510.49"/><polygon class="cls-7" points="159.44 498.1 159.26 510.22 185.47 510.41 185.11 496.15 159.44 498.1"/><polygon class="cls-7" points="60.09 510.49 60.86 522.5 85.83 522.35 85.64 510.72 60.09 510.49"/><polygon class="cls-6" points="293.12 85.2 303.52 85.2 303.6 89.88 293.2 89.32 293.12 85.2"/><polygon class="cls-6" points="305.3 85.2 305.38 89.88 315.46 90.37 315.71 85.45 305.3 85.2"/><polygon class="cls-6" points="299.57 90.77 299.49 96.02 310.79 96.02 310.87 91.17 299.57 90.77"/><polygon class="cls-6" points="247.21 89.64 247.45 94.48 259.55 94.08 259.31 89.32 247.21 89.64"/><polygon class="cls-6" points="243.82 124.5 254.06 124.34 254.39 129.74 243.9 129.1 243.82 124.5"/><polygon class="cls-6" points="243.9 130.47 248.66 130.55 248.9 135.31 244.38 135.47 243.9 130.47"/><path class="cls-11" d="M310.69,236.59c0,17-13.25,30.74-29.6,30.74s-29.6-13.76-29.6-30.74,13.25-30.73,29.6-30.73S310.69,219.62,310.69,236.59Z"/><path class="cls-17" d="M306.32,236.59c0,14.47-11.3,26.2-25.23,26.2s-25.22-11.73-25.22-26.2,11.29-26.19,25.22-26.19S306.32,222.13,306.32,236.59Z"/><polygon class="cls-11" points="286.34 227.35 281.8 222.03 277.38 227.38 280.54 227.37 281.54 242.91 283.05 243.04 283.56 227.36 286.34 227.35"/><path class="cls-11" d="M288.58,238.48l-4.31-1.13a2.12,2.12,0,0,0-2-1.63,2.08,2.08,0,0,0-1.53.68l-14.23-3.76,1-2.81-6.4,1.88,3.33,6.5,1-2.67,14.93,3.36a2.06,2.06,0,0,0,3.23.73l4.57,1Z"/><path class="cls-11" d="M280.43,217.38l-.06.73-2.84,0,0-.75h.91v-4.17l-.94,0,.06-.79,2,0,0,4.9Z"/><path class="cls-11" d="M285.79,214a1.51,1.51,0,0,1-.14.65,2,2,0,0,1-.38.49,2.66,2.66,0,0,1-.54.39l-.63.32-.65.29a4.57,4.57,0,0,0-.58.32,2.29,2.29,0,0,0-.44.36,1.05,1.05,0,0,0-.24.47l2.43,0,.07-.8,1,0-.07,1.54-4.58,0a2.64,2.64,0,0,1,.16-.94,2.14,2.14,0,0,1,.41-.69,2.79,2.79,0,0,1,.58-.5,6.29,6.29,0,0,1,.67-.37l.66-.31a4.46,4.46,0,0,0,.58-.3,1.68,1.68,0,0,0,.41-.38.8.8,0,0,0,.16-.49,1.5,1.5,0,0,0-.05-.37.74.74,0,0,0-.16-.32.83.83,0,0,0-.33-.24,1.49,1.49,0,0,0-.56-.09,2.1,2.1,0,0,0-.7.11,1.46,1.46,0,0,0-.47.3,1,1,0,0,0-.28.41,1.36,1.36,0,0,0-.12.47l-1,0-.13-2.07,1.08,0V213a1.55,1.55,0,0,1,.33-.3,1.79,1.79,0,0,1,.39-.2,2.06,2.06,0,0,1,.46-.12,4.58,4.58,0,0,1,.55,0,2.86,2.86,0,0,1,.94.14,2,2,0,0,1,.66.38,1.44,1.44,0,0,1,.38.54A1.68,1.68,0,0,1,285.79,214Z"/><path class="cls-11" d="M283.35,259.1a1.86,1.86,0,0,1-.14.73,1.74,1.74,0,0,1-.43.62,2.3,2.3,0,0,1-.75.45,3.23,3.23,0,0,1-1.08.16,2.91,2.91,0,0,1-1-.15,2,2,0,0,1-.68-.4,1.77,1.77,0,0,1-.4-.58,2.74,2.74,0,0,1-.21-.67,4.06,4.06,0,0,1-.08-.69c0-.23,0-.44,0-.63a4,4,0,0,1,0-.57,3.5,3.5,0,0,1,.12-.63,4,4,0,0,1,.27-.6,1.88,1.88,0,0,1,.43-.51,2.07,2.07,0,0,1,.66-.35,2.78,2.78,0,0,1,.92-.14,2.75,2.75,0,0,1,.84.12,2.46,2.46,0,0,1,.67.33,1.86,1.86,0,0,1,.46.47,1.34,1.34,0,0,1,.22.56l-1.08.08a.86.86,0,0,0-.09-.3.8.8,0,0,0-.22-.27,1.06,1.06,0,0,0-.33-.19,1.25,1.25,0,0,0-.45-.07,1.3,1.3,0,0,0-.51.08,1.21,1.21,0,0,0-.37.22,1.48,1.48,0,0,0-.25.31,1.31,1.31,0,0,0-.15.37,1.53,1.53,0,0,0-.07.36,2,2,0,0,0,0,.33v.13a.78.78,0,0,0,0,.14,2.38,2.38,0,0,1,.66-.32,2.56,2.56,0,0,1,.79-.12,2.52,2.52,0,0,1,.93.16,2.36,2.36,0,0,1,.7.39,1.86,1.86,0,0,1,.46.56A1.38,1.38,0,0,1,283.35,259.1Zm-1.09.07a1,1,0,0,0-.32-.75,1.1,1.1,0,0,0-.41-.25,1.82,1.82,0,0,0-.61-.09,1.19,1.19,0,0,0-.51.11,1,1,0,0,0-.38.26,1,1,0,0,0-.24.34.8.8,0,0,0-.08.35,1.56,1.56,0,0,0,.06.41,1.49,1.49,0,0,0,.22.41,1.22,1.22,0,0,0,.39.31,1.2,1.2,0,0,0,.59.13,1.26,1.26,0,0,0,1-.42,1.31,1.31,0,0,0,.22-.4A1.22,1.22,0,0,0,282.26,259.17Z"/><path class="cls-11" d="M303.83,240.63a1.33,1.33,0,0,1-.62,1.2,3.39,3.39,0,0,1-1.81.38,3.46,3.46,0,0,1-1-.13,2.63,2.63,0,0,1-.75-.37,1.64,1.64,0,0,1-.47-.55,1.41,1.41,0,0,1-.17-.66c0-.05,0-.1,0-.15s0-.1,0-.15l1,0a1.61,1.61,0,0,0,.08.48,1,1,0,0,0,.25.42,1.33,1.33,0,0,0,.47.31,1.85,1.85,0,0,0,.71.12,2,2,0,0,0,.53-.07,1,1,0,0,0,.36-.17.73.73,0,0,0,.2-.27,1,1,0,0,0,.06-.36.66.66,0,0,0-.12-.39,1.21,1.21,0,0,0-.33-.35,1.59,1.59,0,0,0-.48-.26,1.67,1.67,0,0,0-.59-.11h-.55v-.66h.54a1.89,1.89,0,0,0,.6-.09,1.33,1.33,0,0,0,.46-.23,1.15,1.15,0,0,0,.3-.33.82.82,0,0,0,.1-.4.87.87,0,0,0-.06-.32.69.69,0,0,0-.2-.28,1.11,1.11,0,0,0-.34-.19,1.45,1.45,0,0,0-.49-.07,1.77,1.77,0,0,0-.49.06,1.26,1.26,0,0,0-.66.4,1.47,1.47,0,0,0-.33.6,1.81,1.81,0,0,0-.09.31l-1,0-.14-2.08H300V237l.32-.3a1.33,1.33,0,0,1,.34-.22,1.64,1.64,0,0,1,.41-.12,2.9,2.9,0,0,1,.56,0,3.33,3.33,0,0,1,.93.12,2.05,2.05,0,0,1,.7.32,1.34,1.34,0,0,1,.43.49,1.24,1.24,0,0,1-.2,1.48,2.23,2.23,0,0,1-1.09.53,2.51,2.51,0,0,1,.58.23,2,2,0,0,1,.46.32,1.36,1.36,0,0,1,.3.39A1,1,0,0,1,303.83,240.63Z"/><path class="cls-11" d="M262.67,239.41c0,.18,0,.37,0,.58a4.56,4.56,0,0,1-.13.62,2.66,2.66,0,0,1-.26.6,1.78,1.78,0,0,1-.44.51,2.08,2.08,0,0,1-.66.36,2.77,2.77,0,0,1-.91.13,2.82,2.82,0,0,1-.85-.12,2.31,2.31,0,0,1-.67-.32,1.86,1.86,0,0,1-.46-.47,1.56,1.56,0,0,1-.22-.56l1.08-.08a.88.88,0,0,0,.1.3.93.93,0,0,0,.22.27,1.3,1.3,0,0,0,.33.19,1.61,1.61,0,0,0,1,0,1.28,1.28,0,0,0,.36-.22,1,1,0,0,0,.25-.32,2.75,2.75,0,0,0,.15-.36,2.41,2.41,0,0,0,.07-.37c0-.12,0-.22,0-.32v-.13a.53.53,0,0,0,0-.13,2.86,2.86,0,0,1-.66.31,2.56,2.56,0,0,1-.79.11,2.67,2.67,0,0,1-.93-.15,2.12,2.12,0,0,1-.71-.4,1.56,1.56,0,0,1-.45-.55,1.3,1.3,0,0,1-.16-.62,2.06,2.06,0,0,1,.14-.73,1.76,1.76,0,0,1,.44-.63,2.1,2.1,0,0,1,.75-.44,3.2,3.2,0,0,1,1.09-.17,2.87,2.87,0,0,1,1,.16,1.76,1.76,0,0,1,.67.4,1.8,1.8,0,0,1,.41.58,3.73,3.73,0,0,1,.21.67,5.38,5.38,0,0,1,.07.69C262.67,239,262.67,239.22,262.67,239.41Zm-1.14-1.19a1.6,1.6,0,0,0-.07-.41,1.53,1.53,0,0,0-.21-.4,1.24,1.24,0,0,0-.39-.32,1.2,1.2,0,0,0-.59-.13,1.4,1.4,0,0,0-.6.12,1.19,1.19,0,0,0-.63.7,1.53,1.53,0,0,0-.07.4,1.11,1.11,0,0,0,.08.41.92.92,0,0,0,.24.35,1.17,1.17,0,0,0,.41.24,1.82,1.82,0,0,0,.61.09,1.19,1.19,0,0,0,.51-.1,1.33,1.33,0,0,0,.39-.26,1.08,1.08,0,0,0,.23-.34A.79.79,0,0,0,261.53,238.22Z"/><path class="cls-11" d="M264.12,224.76a1.15,1.15,0,1,1-2.29,0,1.15,1.15,0,0,1,2.29,0Z"/><path class="cls-11" d="M272.3,216.2a1.14,1.14,0,1,1-1.14-1.15A1.14,1.14,0,0,1,272.3,216.2Z"/><path class="cls-11" d="M295.89,220.19a1.14,1.14,0,1,0-1.27,1A1.14,1.14,0,0,0,295.89,220.19Z"/><path class="cls-11" d="M302.94,229.72a1.14,1.14,0,1,0-1.28,1A1.15,1.15,0,0,0,302.94,229.72Z"/><path class="cls-11" d="M289.49,254.92a1.14,1.14,0,1,0-.17,2.28,1.14,1.14,0,0,0,.17-2.28Z"/><path class="cls-11" d="M298.66,247.42a1.13,1.13,0,0,0-1.22,1.05,1.14,1.14,0,0,0,1.05,1.23,1.13,1.13,0,0,0,1.22-1A1.14,1.14,0,0,0,298.66,247.42Z"/><path class="cls-11" d="M272.3,256.62a1.16,1.16,0,0,0,1.21,1.08,1.14,1.14,0,1,0-1.21-1.08Z"/><path class="cls-11" d="M263.68,248.5a1.14,1.14,0,0,0,1.2,1.08,1.15,1.15,0,0,0,1.08-1.2,1.14,1.14,0,0,0-2.28.12Z"/><path class="cls-18" d="M278.49,145.51l4.27-.15a1.57,1.57,0,0,1,0,.59l-4,.35A1.94,1.94,0,0,1,278.49,145.51Z"/><polygon class="cls-7" points="226.41 493.31 334.99 493.31 335.85 501 225.35 501 226.41 493.31"/><polygon class="cls-6" points="228.31 204.17 238.72 204.17 238.8 208.85 228.4 208.28 228.31 204.17"/><polygon class="cls-6" points="240.5 204.17 240.58 208.85 250.66 209.33 250.91 204.41 240.5 204.17"/><polygon class="cls-6" points="234.77 209.73 234.69 214.98 245.98 214.98 246.06 210.14 234.77 209.73"/><polygon class="cls-6" points="318.11 258.5 318.19 263.18 328.27 263.66 328.51 258.74 318.11 258.5"/><polygon class="cls-6" points="312.38 264.06 312.3 269.31 323.59 269.31 323.67 264.47 312.38 264.06"/><path class="cls-1" d="M349.85,528.23l-1-11.92s-3.38-14,7.65-1.62c0,0-1.47-7.8,3.39-3.24,0,0-3.09-12.8,1.47-13.54,0,0,3.39-.88,4.42,6,0,0-1.77-16,2.65-16.34,0,0,2.64-.29,3.38,6.92,0,0,2.36-18,11.19-15.6,0,0,4.94,1.37-.45,12.8,0,0,3.83-6.33,7.07-3.38,0,0,3.83,3.38-4,15.75,0,0,5.45-3.68,8.54,0,0,0,4.12,4.41-4.12,14.42,0,0,5.89-7.21,9.86-4.86,0,0,4.27,3.53-4,13.25,0,0,8.53-5,6,5.74,0,0,4.12-7.07,9.27-4.12,0,0,2.21,1.17.59,6,0,0,13.54-.73,3.53,6.62,0,0,4.71-.58,4.42,3.54l-63.73-1,1.33-14.28Z"/><path class="cls-1" d="M450,543.29l73.17.22s5.31-6.83-4.88-4.23c0,0,4.23-2.71,2.17-5.85,0,0-2.28-1.41-6.94,1,0,0,6.83-5,3.68-9.53,0,0-2.6-1.41-6,2.71,0,0,4.34-7.59.44-9.65,0,0-3.69-1.41-8,8.89,0,0,1.51-8-5.32-2.82,0,0,9.65-9.32,1-9.65,0,0,11.06-12.36,5.2-15.07,0,0-4.22-2.27-11.27,10,0,0,3.14-7.27-1-8,0,0-3-.33-4.87,8.23,0,0-.55-17.12-7.59-15.5,0,0-4.88,2.28-1.95,14.42,0,0-3.36-5.31-6.29-2.39,0,0-2.38,3.47,1.09,10.09,0,0-5.1-4-8-1.09,0,0-2.38,3.47,2.82,10.62,0,0-9.54-11.27-13.76-6.39,0,0-2.39,5.2,4,10.51,0,0-6.62-2.16-7.48.76,0,0-1.74,4,4.23,6.4,0,0-8-2.06-9.11,1.73,0,0,.54,2.39,5.64,2.49C451,541.12,449,542.1,450,543.29Z"/><path class="cls-1" d="M215.06,504.23s2.48-12.53-2.67-14.45c0,0-4.26-.26-6,8.07,0,0-.18-23.93-10.6-13.4,0,0-2.2-10.47-8.13-8.52,0,0-6.25,2-2.85,13.41,0,0-5.05-3.73-5.71,4a16.14,16.14,0,0,0,3.73,11.86s-12.2-6.29-5.39,8.39c0,0-7.41-4.85-11.22-1.45,0,0-3.87,3.69,4.46,6.88,0,0-7.52-1.43-8.69,3.26,0,0-1.3,5.66,7.25,8.2,0,0-12.07-2.77-8.69,4.83,0,0-5.92-4.11-12,7.57l55.88-.52-2.67-11.63,7.31-.51,2.16-13.59,5.45-.1Z"/><path class="cls-1" d="M128.23,542.74l-84.72.49s.37-6.52,7.12-5c0,0-4-15,3-7.6,0,0,2.17-17.38,10.86,1.32,0,0,2.54-4.7,6-1.45,0,0-3.26-7.84.48-9,0,0,3-1.44,5.31.37,0,0-7.24-8.21-3.38-10.26a5.21,5.21,0,0,1,5.67,1.69s-5.79-11.95.12-13c0,0,3.62-1,6.64,5.07,0,0,.73-7.24,6.52-6.88,0,0,6.88.12,5.91,17.26,0,0,1-4.46,4.35-3.26,0,0,3.38.85,2.77,8.09,0,0,1.33-10.14,5.92-9.42,0,0,5.67,1.57,2,13.4,0,0,4.34-9.77,7.48-7.6,0,0,2.29,1.33-2.17,10.38,0,0,5.43-2.9,6.51-.49,0,0,.85,2.78-4.1,6.52,0,0,6-2.9,7.36,1,0,0,1,4.34-3,6C125,540.33,130.65,541.66,128.23,542.74Z"/><path class="cls-2" d="M467.45,525.62a36,36,0,0,1,4.49,5.19s-2.21-8,.89-8.62c0,0,2.23-.42,4.26,5.3,0,0,.89-2.57,2.43-2.35,0,0,2.1.48,1.55,6.18,0,0,1.47-7.36,3.83-6.55,0,0,2.57.59,1,12.22,0,0,1.55-3.39,3.61-2.87a2.63,2.63,0,0,1,1.62,2.94s-.59-2-2.13-2c0,0-1.48-.51-3.39,3.61,0,0,1.1-11.85-1-12.5,0,0-1.9-.09-3.38,6.91,0,0-.5-6.75-1.82-7.19,0,0-1.12-.35-2.11,3.06,0,0-2.38-6.05-4.29-5.76,0,0-2.38-.49-.09,9.3A86.91,86.91,0,0,0,467.45,525.62Z"/><path class="cls-2" d="M496.4,522s3.66-7.42-.18-6.8c0,0-1.56.32-2.9,3.27,0,0,.26-2.94-1.72-3.23,0,0-1.36-.34-2.47,3.46,0,0,1.75-7.13-1.82-7.3,0,0-3.38.09-3.89,9.55,0,0-.19-2.42-2.25-2.22,0,0-1.59.13-2.27,2.59,0,0,.69-2.13,2.5-2.06,0,0,1.55.34,2,2.94,0,0,1.44-10.55,4.18-10,0,0,2,.32,1.32,7.74,0,0,1-4.27,2.95-3.84,0,0,1.43.25,1.24,3.91,0,0,1.62-4.84,3.37-4.13C496.41,516,498.94,516.19,496.4,522Z"/><path class="cls-2" d="M401,539.67s1.82-6.6-1.72-7.58c0,0-2.48-.63-5.1,3.83,0,0,3-6.15-.44-7.58,0,0-2.61-.89-5.41,4.14,0,0,2.22-8.66-2.87-9.11,0,0-4.59-.06-4.59,12.16,0,0,.18-6.63-4.39-5.47,0,0-2.74.57-2.93,6.56,0,0-1.23-3-4.46-1.28a4.91,4.91,0,0,0-2.42,3.89s1.13-3.42,3.33-3.87c0,0,2.36-.86,3.7,2.32,0,0,1.19-6.8,3.74-6.73,0,0,2.54-.32,3.37,6.18,0,0,1.53-13,4.78-12.36,0,0,3.5.06,2.23,9.36,0,0,3.5-6,5.86-4.65,0,0,2.16,1.28-.64,8.35,0,0,3.08-5.6,6.08-5.14C399.09,532.69,402,533.07,401,539.67Z"/><path class="cls-2" d="M362.43,516s-1.27-5.47,1.66-6.3a2.59,2.59,0,0,1,3,1.09s-1.45-7.58,1.24-8.06c0,0,2.14-.64,3,2.83,0,0-.29-6.06,1.95-6,0,0,1.87-.24,2.1,3.81,0,0,1.08-1.95,2.64-1.32,0,0,1.7.45.48,7.58,0,0,1.32-2.6,2.54-1.92,0,0,2.3.73-.68,6.83,0,0,1.37-1.66,2.49-1.36,0,0,1.17.39-.49,3.27,0,0,.93-2,0-2.69,0,0-1.17-.29-2.88,2.44,0,0,2.84-7.34,1.31-7.91,0,0-1.31,0-2.72,2.89,0,0,.91-7.94-.6-8.58,0,0-1.6-.34-2.58,3.2,0,0,.28-5.74-1.68-5.45,0,0-1.5-.65-1.67,6.5,0,0-1-4.4-3.11-3.49,0,0-2.44.41-1,8.28a3,3,0,0,0-3.54-1.27S362,511.37,362.43,516Z"/><path class="cls-2" d="M187.9,505.75s-4.7-10.07.08-9.16c0,0,2,.45,3.68,4.46,0,0-.38-4,2.07-4.33,0,0,1.69-.43,3.15,4.72,0,0-2.31-9.66,2.12-9.82,0,0,4.21.19,5,13,0,0,.19-3.25,2.75-2.94,0,0,2,.2,2.88,3.53,0,0-.89-2.88-3.14-2.83,0,0-1.93.43-2.38,3.93,0,0-2-14.26-5.38-13.53,0,0-2.5.39-1.51,10.42,0,0-1.38-5.78-3.74-5.24,0,0-1.76.31-1.47,5.26,0,0-2.1-6.57-4.26-5.65C187.77,497.53,184.62,497.82,187.9,505.75Z"/><path class="cls-2" d="M171.43,529.27s-1.82-6.6,1.72-7.58c0,0,2.48-.63,5.09,3.82,0,0-3-6.14.45-7.58,0,0,2.61-.89,5.41,4.14,0,0-2.22-8.65,2.87-9.1,0,0,4.58-.07,4.58,12.16,0,0-.17-6.63,4.4-5.48,0,0,2.74.58,2.93,6.56,0,0,1.23-3,4.45-1.27a4.93,4.93,0,0,1,2.43,3.89s-1.13-3.43-3.33-3.87c0,0-2.36-.87-3.7,2.32,0,0-1.19-6.8-3.74-6.73,0,0-2.55-.32-3.37,6.17,0,0-1.53-13-4.78-12.35,0,0-3.5.06-2.23,9.36,0,0-3.5-6.05-5.86-4.65,0,0-2.16,1.27.64,8.34,0,0-3.08-5.6-6.08-5.13C173.31,522.29,170.43,522.67,171.43,529.27Z"/><path class="cls-2" d="M90.84,539.23s-1.48-5.74,1.93-6.62a3.19,3.19,0,0,1,3.43,1.15s-1.68-8,1.44-8.48c0,0,2.5-.67,3.52,3,0,0-.34-6.36,2.27-6.26,0,0,2.17-.25,2.44,4,0,0,1.25-2,3.06-1.38,0,0,2,.47.56,8,0,0,1.54-2.74,3-2,0,0,2.67.77-.79,7.19,0,0,1.58-1.75,2.89-1.44,0,0,1.36.41-.57,3.44,0,0,1.08-2.11,0-2.82,0,0-1.36-.31-3.35,2.56,0,0,3.31-7.72,1.53-8.32,0,0-1.53,0-3.17,3,0,0,1.06-8.35-.69-9,0,0-1.87-.35-3,3.37,0,0,.34-6-1.94-5.73,0,0-1.75-.68-1.95,6.84,0,0-1.11-4.63-3.61-3.67,0,0-2.84.42-1.12,8.7a3.64,3.64,0,0,0-4.11-1.33S90.31,534.32,90.84,539.23Z"/><path class="cls-2" d="M79.23,521.09s-3.52-6.58.29-6.1c0,0,1.56.26,2.84,2.88,0,0-.2-2.63,1.77-2.93,0,0,1.36-.33,2.41,3.06,0,0-1.62-6.37,1.94-6.58,0,0,3.37,0,3.71,8.49a2.19,2.19,0,0,1,2.28-2s1.59.08,2.22,2.28a2.64,2.64,0,0,0-2.45-1.81s-1.55.34-2,2.68c0,0-1.24-9.44-4-8.87,0,0-2,.32-1.46,7,0,0-1-3.82-2.87-3.39,0,0-1.43.25-1.31,3.53,0,0-1.53-4.32-3.29-3.65C79.32,515.63,76.79,515.9,79.23,521.09Z"/><path class="cls-19" d="M366.27,524.26s-2-2.92-3.35-2.2c-.84.46.09,2.49,1.72,3.86,0,0-3.15.4-2.79,1.84.27,1.12,2.71.88,3.88-.21,0,0,.47,3.13,1.5,3.19,1.41.07,2.14-2.27,1-3.51,0,0,3.49.46,3.59-.91.06-.89-1.13-2.16-3.31-1.31,0,0,1.65-2.47.79-3.29S367,521.45,366.27,524.26Z"/><path class="cls-20" d="M366.44,524.78a1.16,1.16,0,0,0-.89,1.35,1.32,1.32,0,0,0,1.64,1,1.23,1.23,0,0,0,.88-1.53A1.28,1.28,0,0,0,366.44,524.78Z"/><path class="cls-19" d="M381,496.16s-1.67-2.38-2.75-1.79c-.69.37.08,2,1.41,3.15,0,0-2.57.33-2.28,1.51.22.92,2.22.71,3.17-.17,0,0,.39,2.55,1.23,2.6,1.15.07,1.75-1.85.83-2.87,0,0,2.85.38,2.93-.74.06-.73-.92-1.77-2.7-1.07,0,0,1.34-2,.65-2.69S381.64,493.86,381,496.16Z"/><path class="cls-20" d="M381.16,496.59a1,1,0,0,0-.73,1.1,1.09,1.09,0,0,0,1.35.86,1,1,0,0,0,.72-1.25A1.05,1.05,0,0,0,381.16,496.59Z"/><path class="cls-19" d="M387.57,518.2s-3.54-.37-3.86,1.1c-.2.94,2,1.55,4.05,1.22,0,0-1.75,2.64-.42,3.32,1,.52,2.43-1.49,2.37-3.08,0,0,2.67,1.68,3.39.94,1-1-.32-3.1-2-3.06,0,0,2.62-2.34,1.65-3.31-.63-.63-2.38-.55-3.15,1.65,0,0-.8-2.86-2-2.74S385.92,515.8,387.57,518.2Z"/><path class="cls-20" d="M388.07,518.41a1.17,1.17,0,0,0,.44,1.56,1.33,1.33,0,0,0,1.87-.56,1.24,1.24,0,0,0-.58-1.67A1.28,1.28,0,0,0,388.07,518.41Z"/><path class="cls-19" d="M199.1,506.76s-2-2.92-3.35-2.2c-.84.46.09,2.49,1.72,3.86,0,0-3.15.4-2.79,1.85.27,1.12,2.71.87,3.88-.21,0,0,.47,3.12,1.51,3.18,1.4.08,2.13-2.27,1-3.51,0,0,3.48.46,3.58-.91.06-.89-1.13-2.16-3.3-1.31,0,0,1.64-2.47.79-3.28S199.85,504,199.1,506.76Z"/><path class="cls-20" d="M199.27,507.28a1.16,1.16,0,0,0-.89,1.35,1.32,1.32,0,0,0,1.64,1.05,1.23,1.23,0,0,0,.88-1.53A1.28,1.28,0,0,0,199.27,507.28Z"/><path class="cls-19" d="M177.52,531.24s.32-3.54-1.16-3.84c-.94-.19-1.52,2-1.16,4.06,0,0-2.67-1.72-3.32-.38-.51,1,1.51,2.41,3.1,2.33,0,0-1.65,2.7-.89,3.41,1,1,3.09-.37,3-2,0,0,2.37,2.59,3.33,1.61.62-.64.52-2.38-1.69-3.13,0,0,2.85-.84,2.72-2S179.9,529.57,177.52,531.24Z"/><path class="cls-20" d="M177.31,531.74a1.18,1.18,0,0,0-1.55.46,1.32,1.32,0,0,0,.58,1.86,1.22,1.22,0,0,0,1.66-.6A1.29,1.29,0,0,0,177.31,531.74Z"/><path class="cls-19" d="M188.46,490.86s-1.33-1.9-2.19-1.43c-.55.3.06,1.62,1.13,2.52,0,0-2.06.26-1.83,1.2.18.74,1.77.57,2.54-.13,0,0,.3,2,1,2.07.92.06,1.39-1.48.66-2.28,0,0,2.28.29,2.34-.6,0-.58-.74-1.41-2.16-.85,0,0,1.07-1.62.52-2.15S189,489,188.46,490.86Z"/><path class="cls-20" d="M188.57,491.2a.77.77,0,0,0-.58.89.86.86,0,0,0,1.07.68.81.81,0,0,0,.58-1A.85.85,0,0,0,188.57,491.2Z"/><path class="cls-21" d="M478.79,511.3s-1.64-2.34-2.69-1.76c-.68.37.07,2,1.38,3.1,0,0-2.53.31-2.24,1.47.22.9,2.17.7,3.11-.17,0,0,.38,2.51,1.21,2.55,1.13.07,1.71-1.81.81-2.81,0,0,2.79.37,2.87-.73.05-.71-.9-1.73-2.65-1.05,0,0,1.32-2,.64-2.63S479.38,509.05,478.79,511.3Z"/><path class="cls-20" d="M478.92,511.71a1,1,0,0,0-.72,1.09,1.07,1.07,0,0,0,1.32.84,1,1,0,0,0,.71-1.22A1,1,0,0,0,478.92,511.71Z"/><path class="cls-21" d="M493.93,524.12s-1.63-2.34-2.69-1.76c-.68.36.07,2,1.38,3.09,0,0-2.52.32-2.24,1.48.22.9,2.18.7,3.11-.17,0,0,.38,2.5,1.21,2.55,1.13.07,1.71-1.82.81-2.81,0,0,2.8.37,2.88-.73.05-.71-.91-1.73-2.66-1,0,0,1.32-2,.64-2.63S494.53,521.86,493.93,524.12Z"/><path class="cls-20" d="M494.06,524.53a.94.94,0,0,0-.71,1.09,1.06,1.06,0,0,0,1.31.84,1,1,0,0,0,.71-1.23A1,1,0,0,0,494.06,524.53Z"/><path class="cls-21" d="M464,531.61s-1.63-2.34-2.69-1.76c-.67.37.08,2,1.38,3.1,0,0-2.52.32-2.24,1.47.23.9,2.18.7,3.11-.16,0,0,.38,2.5,1.21,2.55,1.13.06,1.71-1.82.81-2.81,0,0,2.8.36,2.88-.73,0-.72-.91-1.74-2.65-1.06,0,0,1.31-2,.63-2.63S464.61,529.36,464,531.61Z"/><path class="cls-20" d="M464.14,532a.93.93,0,0,0-.71,1.08,1.06,1.06,0,0,0,1.32.84,1,1,0,0,0,.7-1.22A1,1,0,0,0,464.14,532Z"/><path class="cls-21" d="M59.87,534s-1.63-2.34-2.69-1.76c-.67.37.08,2,1.38,3.1,0,0-2.52.31-2.24,1.47.22.9,2.18.7,3.11-.16,0,0,.38,2.5,1.21,2.55,1.13.06,1.71-1.82.81-2.81,0,0,2.8.36,2.88-.74,0-.71-.91-1.73-2.65-1,0,0,1.31-2,.63-2.63S60.47,531.76,59.87,534Z"/><path class="cls-20" d="M60,534.43a.93.93,0,0,0-.71,1.08,1.06,1.06,0,0,0,1.32.84,1,1,0,0,0,.7-1.22A1,1,0,0,0,60,534.43Z"/><path class="cls-21" d="M83.71,521.91s-1.63-2.34-2.68-1.76c-.68.37.07,2,1.38,3.1,0,0-2.53.32-2.24,1.47.22.9,2.17.7,3.11-.16,0,0,.37,2.5,1.21,2.55,1.13.06,1.71-1.82.81-2.81,0,0,2.79.36,2.87-.73,0-.72-.9-1.74-2.65-1.06,0,0,1.32-2,.64-2.63S84.31,519.66,83.71,521.91Z"/><path class="cls-20" d="M83.85,522.33a.94.94,0,0,0-.72,1.08,1.06,1.06,0,0,0,1.32.84,1,1,0,0,0,.71-1.22A1,1,0,0,0,83.85,522.33Z"/><path class="cls-21" d="M105.22,531s-1.13-1.61-1.86-1.21c-.47.25,0,1.37,1,2.14,0,0-1.74.22-1.54,1,.15.62,1.5.48,2.15-.12,0,0,.26,1.73.83,1.76.78,0,1.18-1.25.56-1.94,0,0,1.93.25,2-.5,0-.5-.63-1.2-1.83-.73,0,0,.91-1.37.43-1.82S105.63,529.46,105.22,531Z"/><path class="cls-20" d="M105.31,531.3a.64.64,0,0,0-.49.75.73.73,0,0,0,.91.58.7.7,0,0,0,.49-.85A.72.72,0,0,0,105.31,531.3Z"/></g></svg>