<svg xmlns="http://www.w3.org/2000/svg" viewBox="0 0 63.49 50.91" width="63.49" height="50.91" preserveAspectRatio="none"><defs><style>.cls-1{fill:#157258;}.cls-2{fill:#09463d;}</style></defs><title>Home_Map_Screen_new</title><g id="trees"><path class="cls-1" d="M17.38,5.87A29.32,29.32,0,0,1,9.76,20.35c-2,2-.56,1.5,1,.9a11.08,11.08,0,0,0,3-1.81s-.53,2.59-3.44,7.32C9,29,5.93,31.74,8,30.9a15.17,15.17,0,0,0,3.54-2S9.1,35.18,1.14,40.5c-2,1.31.59,1,2.11.68a31,31,0,0,0,4.38-1.42,8.58,8.58,0,0,1-1.91,2c-2.25,2-.11,1.53,1.35,1.13a25.7,25.7,0,0,0,5.7-2.2,12.14,12.14,0,0,0,.74,1.54c.58,1,1.39,1.39,1.84-.1a6.32,6.32,0,0,1,.9-2.18,6.37,6.37,0,0,0,3.37,2.75c1.13.49,4.36,1.28,3.45,0a5.18,5.18,0,0,1-1.32-3.08A12.26,12.26,0,0,0,25.9,41.7c2.73.83,5.42.83,4.07-.12a5.21,5.21,0,0,1-2.14-2.17,28.82,28.82,0,0,0,6.74,1.31c1.8.2.91-.6-.62-1.36a29.71,29.71,0,0,1-8.62-6.18,24.4,24.4,0,0,0,3.32,1.38c1.45.43.78-.37-1.35-2.87-1.89-2.21-5.19-7-5.27-8.63,0,0,1.14.47,1.42.57,4.22,1.44,2.75.25.43-2.73-4.45-5.72-4.28-9.77-5.45-14C17.94,5.15,17.82,3.82,17.38,5.87Z"/><path class="cls-2" d="M12,32.66S6.67,39,11.6,35.25c0,0-3.37,8.91,2.8.13,0,0,2.43,6.4,2.15,0,0,0,5.4,8.48,3.26,1.76,0,0,4.1,3.59.77-2.81,0,0,3.71,5.14,2.72.92,0,0,.95,3.85-3.07-1.46,0,0,3,6.16-.58,3.09,0,0,2.24,6.43-3.33-2.17,0,0,.71,6.65-1.92.25,0,0-5.84,8.87-2.52,0C11.88,35,7.49,38.48,12,32.66Z"/><path class="cls-2" d="M22,23.06a9.56,9.56,0,0,1-2-1.79s2.48,5.37.05,2.49c0,0-.19,6-1.54-1.41,0,0-1.73,5.45-2,.47,0,0-1.92,3.62-.64-1.3,0,0-2.38,3,0-1.74,0,0-2.16,4,.12,1.6,0,0-1.25,4,.58,1.25,0,0,.11,5,2-.67,0,0,1.1,7,1.44,1.53,0,0,2.12,3.07-.21-2.66A12.51,12.51,0,0,0,22,23.06Z"/><path class="cls-1" d="M39.61,1.86a38.08,38.08,0,0,1-9.87,18.76c-2.59,2.57-.73,1.94,1.34,1.16A14.49,14.49,0,0,0,35,19.44s-.69,3.36-4.46,9.48c-1.78,2.88-5.72,6.45-3.09,5.37A20,20,0,0,0,32,31.68s-3.08,8.14-13.4,15c-2.54,1.7.77,1.3,2.74.89A41.42,41.42,0,0,0,27,45.76a10.86,10.86,0,0,1-2.48,2.57c-2.91,2.53-.14,2,1.75,1.47A33.52,33.52,0,0,0,33.64,47a14.64,14.64,0,0,0,1,2c.74,1.28,1.8,1.79,2.37-.14A8.35,8.35,0,0,1,38.14,46s.92,2.08,4.38,3.57c1.46.63,5.64,1.65,4.45-.06s-1.58-2.33-1.7-4a15.77,15.77,0,0,0,5.37,2.77c3.54,1.06,7,1.06,5.27-.16s-2.29-1.81-2.77-2.82c0,0,2.41,1,8.73,1.7,2.34.27,1.18-.78-.8-1.75s-7.39-3.78-11.17-8A30.78,30.78,0,0,0,54.21,39c1.88.55,1-.48-1.76-3.72-2.44-2.86-6.71-9.09-6.82-11.17,0,0,1.48.61,1.84.73,5.46,1.87,3.56.33.56-3.53C42.27,13.92,42.48,8.68,41,3.22,40.33.93,40.18-.8,39.61,1.86Z"/><path class="cls-2" d="M32.64,36.56s-6.9,8.2-.52,3.36c0,0-4.37,11.53,3.63.16,0,0,3.15,8.29,2.78,0,0,0,7,11,4.23,2.28,0,0,5.31,4.66,1-3.63,0,0,4.8,6.66,3.51,1.19,0,0,1.23,5-4-1.89,0,0,3.85,8-.75,4,0,0,2.9,8.33-4.31-2.82,0,0,.91,8.62-2.49.33,0,0-7.56,11.49-3.27,0C32.48,39.54,26.8,44.1,32.64,36.56Z"/><path class="cls-2" d="M45.63,24.13a12.57,12.57,0,0,1-2.52-2.32s3.2,7,.06,3.22c0,0-.24,7.77-2-1.82,0,0-2.25,7.06-2.62.6,0,0-2.49,4.69-.83-1.68,0,0-3.08,3.84,0-2.25,0,0-2.8,5.23.17,2.07,0,0-1.63,5.19.75,1.62,0,0,.14,6.44,2.57-.87,0,0,1.42,9,1.87,2,0,0,2.74,4-.28-3.45A16.44,16.44,0,0,0,45.63,24.13Z"/></g></svg>