<svg xmlns="http://www.w3.org/2000/svg" viewBox="0 0 234.34 259.7" width="234.34" height="259.7" preserveAspectRatio="none"><defs><style>.cls-1{fill:#157258;}.cls-2{fill:#09463d;}.cls-3{fill:#aa5e5a;}.cls-4{fill:#943847;}.cls-5{fill:#006c70;}.cls-6{fill:#094550;}</style></defs><title>Home_Map_Screen_new</title><g id="trees"><path class="cls-1" d="M156.17,156.32a35.12,35.12,0,0,1-8.69,17.09c-2.28,2.35-.65,1.77,1.17,1.06a12.6,12.6,0,0,0,3.41-2.13s-.6,3.06-3.93,8.63c-1.56,2.62-5,5.88-2.71,4.89a17.33,17.33,0,0,0,4-2.37s-2.71,7.41-11.8,13.69c-2.23,1.54.68,1.18,2.42.81a36.17,36.17,0,0,0,5-1.68,10.3,10.3,0,0,1-2.18,2.34c-2.57,2.31-.13,1.82,1.54,1.34a28.49,28.49,0,0,0,6.5-2.6,13.09,13.09,0,0,0,.84,1.82c.66,1.17,1.59,1.63,2.1-.12a7.56,7.56,0,0,1,1-2.57s.8,1.89,3.84,3.25c1.29.57,5,1.5,3.93-.05s-1.39-2.13-1.5-3.64a13.8,13.8,0,0,0,4.73,2.52c3.11,1,6.18,1,4.63-.14a6.09,6.09,0,0,1-2.43-2.57s2.12.9,7.68,1.55c2.06.24,1-.71-.7-1.6a34.18,34.18,0,0,1-9.84-7.3,26.43,26.43,0,0,0,3.8,1.63c1.65.51.89-.43-1.55-3.39-2.15-2.6-5.91-8.28-6-10.17,0,0,1.29.55,1.62.67,4.8,1.7,3.13.29.48-3.22-5.07-6.75-4.88-11.52-6.21-16.49C156.8,155.48,156.67,153.91,156.17,156.32Z"/><path class="cls-2" d="M150,187.93s-6.08,7.47-.46,3.06c0,0-3.84,10.5,3.2.15,0,0,2.77,7.55,2.44,0,0,0,6.17,10,3.73,2.08,0,0,4.67,4.24.87-3.31,0,0,4.23,6.07,3.1,1.08,0,0,1.08,4.54-3.49-1.72,0,0,3.38,7.27-.67,3.65,0,0,2.56,7.59-3.79-2.57,0,0,.8,7.85-2.19.3,0,0-6.66,10.46-2.88,0C149.89,190.65,144.89,194.8,150,187.93Z"/><path class="cls-2" d="M161.47,176.61a10.89,10.89,0,0,1-2.22-2.12s2.82,6.34.05,2.94c0,0-.22,7.08-1.75-1.66,0,0-2,6.43-2.3.55,0,0-2.2,4.27-.74-1.53,0,0-2.71,3.49,0-2,0,0-2.46,4.76.14,1.88,0,0-1.42,4.73.66,1.48,0,0,.13,5.87,2.27-.79,0,0,1.25,8.2,1.65,1.81,0,0,2.41,3.62-.25-3.14A14.58,14.58,0,0,0,161.47,176.61Z"/><polygon class="cls-3" points="115.68 134.62 115.39 211.72 127.43 212.58 123.99 130.9 115.68 134.62"/><path class="cls-4" d="M115.66,141a20,20,0,0,0,3.64-2.56,20.48,20.48,0,0,0,5.28,6.67l-.13-3.67-5-8.69-3.85,3.18Z"/><path class="cls-5" d="M120.38,41.58c-.5,1.7-8.13,35.63-25.47,55.17-2.32,2.6-.71,2.39,3,.33a49.86,49.86,0,0,0,12.36-9.74s-8.52,23.87-27.22,40c-1.45,1.25-3.89,2.84,0,2.16,3.5-.62,6.75-1.93,13.68-5.7,0,0-5,10.28-21.23,21-2.58,1.71-2.25,3,1.14,2.28,3.07-.62,11.58-1.41,25-10,0,0-.79,2.63-8.07,9.29-1.39,1.28-1,2.46,4.3.62s14.47-5.61,20.76-11.71c0,0,3.44,6.62,12.3,13.73,1.79,1.43,3.42,1.66,1.4-1.85-.39-.69-3.07-6.92-3.12-9.64a58.15,58.15,0,0,0,15.53,9.5c4.87,1.9,11.52,4,6.45-.56-4.83-4.38-9.65-10.61-10.7-14,0,0,10.57,6.95,26.83,6.23,1.78-.08-.35-1.49-2.28-2.37-1.55-.71-15.23-8-21.53-17.16,0,0,7.6,3.67,11.63,4.36,2.32.4,1.31-.88-1.23-2.9-1.86-1.47-19.64-19-24.2-40.22A32.62,32.62,0,0,0,139.81,86c1.22.36-.08-2-3.23-5.65-11.17-13.13-14.2-36.91-14.65-38.65S120.87,39.88,120.38,41.58Z"/><path class="cls-6" d="M110.24,87.34s3.9-4.62,5.12-7.54c0,0,4.78,20.58,4.22,3.44,0,0,1.33,19.35-4.4-2.48A33.46,33.46,0,0,1,110.24,87.34Z"/><path class="cls-6" d="M131,110.87s-2.24,5.71-5.5,9.12c-.73.76-1.82,1.42-1.74-.73s.44-6.46-.52-9.77c0,0-4.14,7.11-10.39,9.23-1.52.52-3.48,1.17-1.33-1.28a24.63,24.63,0,0,0,4.3-6.08s-10.37,7.37-3.67,0c0,0-8.3,8.2,3.21.54a46.26,46.26,0,0,1-4.26,5.53c-1.26,1.33-2.73,3.32,1.71,1.75s7.45-4.37,10.19-8.28c0,0,.58,1.89.4,8.44-.07,2.71,1.5,1.95,3.16,0a46.55,46.55,0,0,0,4.64-7.1,30.12,30.12,0,0,0,12.29,7A40.06,40.06,0,0,1,131,110.87Z"/><polygon class="cls-4" points="117.3 148.31 117.13 187.19 117.63 188.94 117.55 148.89 117.3 148.31"/><polygon class="cls-4" points="118.48 146.17 119.3 177.63 119.65 177.23 118.89 145.53 118.48 146.17"/><polygon class="cls-4" points="120.68 159.88 120.97 185.36 121.49 185.94 121.14 159.3 120.68 159.88"/><polygon class="cls-4" points="119.15 162.72 120.95 162.72 120.95 163.21 119.15 163.02 119.15 162.72"/><polygon class="cls-4" points="119.27 167.77 120.95 167.69 120.91 168.12 119.27 168.04 119.27 167.77"/><polygon class="cls-4" points="119.27 168.88 120.95 168.77 120.91 169.15 119.27 169.19 119.27 168.88"/><polygon class="cls-4" points="119.46 173.29 120.91 173.4 120.99 174.01 119.42 173.71 119.46 173.29"/><polygon class="cls-4" points="121.14 164.86 122.52 164.82 122.56 165.13 121.14 165.13 121.14 164.86"/><polygon class="cls-4" points="121.22 170.99 122.6 171.07 122.41 171.26 121.14 171.26 121.22 170.99"/><polygon class="cls-4" points="121.18 174.63 122.44 174.55 122.48 174.86 121.14 174.9 121.18 174.63"/><polygon class="cls-4" points="121.13 181.61 119.72 181.68 119.75 181.92 121.02 181.85 121.13 181.61"/><polygon class="cls-4" points="117.51 175.38 119.3 175.31 119.41 175.86 117.48 175.69 117.51 175.38"/><polygon class="cls-4" points="117.45 170.98 119.23 171.04 119.2 171.32 117.48 171.25 117.45 170.98"/><polygon class="cls-4" points="117.51 184.91 118.89 184.98 118.86 185.32 117.48 185.08 117.51 184.91"/><polygon class="cls-4" points="117.48 161.31 119.03 160.97 118.99 160.48 117.34 160.83 117.48 161.31"/><polygon class="cls-4" points="117.39 154.58 118.88 154.46 118.84 154.78 117.36 154.89 117.39 154.58"/><polygon class="cls-4" points="117.39 152.62 118.84 152.15 118.84 152.43 117.39 152.86 117.39 152.62"/><polygon class="cls-4" points="119.12 156.5 120.21 156.5 120.25 156.85 119.12 156.77 119.12 156.5"/><polygon class="cls-4" points="117.31 156.09 116.1 156.09 116.1 156.44 117.31 156.4 117.31 156.09"/><polygon class="cls-4" points="117.35 164.15 115.97 164.15 115.97 164.67 117.31 164.5 117.35 164.15"/><polygon class="cls-4" points="117.31 171.7 116.06 171.61 116.02 171.95 117.31 171.95 117.31 171.7"/><polygon class="cls-4" points="117.27 173.89 116.14 173.98 116.36 174.24 117.27 174.15 117.27 173.89"/><polygon class="cls-4" points="117.18 182.34 116.23 182.38 116.27 182.69 117.31 182.6 117.18 182.34"/><polygon class="cls-3" points="165.6 137.73 165.26 227.69 179.31 228.69 175.3 133.38 165.6 137.73"/><path class="cls-4" d="M165.57,145.15a23.61,23.61,0,0,0,4.26-3,23.64,23.64,0,0,0,6.16,7.78l-.16-4.28L170,135.52l-4.5,3.71Z"/><path class="cls-5" d="M171.08,29.17c-.58,2-9.48,41.58-29.72,64.37-2.7,3-.82,2.8,3.47.39a57.79,57.79,0,0,0,14.42-11.37s-9.94,27.85-31.76,46.72c-1.69,1.46-4.54,3.32,0,2.52,4.09-.72,7.88-2.25,16-6.65,0,0-5.82,12-24.76,24.56-3,2-2.63,3.45,1.33,2.66,3.58-.72,13.51-1.64,29.17-11.67,0,0-.93,3.07-9.42,10.85-1.62,1.48-1.12,2.86,5,.71s16.89-6.54,24.24-13.66c0,0,4,7.73,14.34,16,2.09,1.67,4,1.94,1.64-2.15-.46-.8-3.58-8.08-3.64-11.25A67.71,67.71,0,0,0,199.5,152.3c5.68,2.22,13.44,4.73,7.52-.65-5.63-5.12-11.26-12.38-12.48-16.37,0,0,12.34,8.11,31.31,7.26,2.07-.09-.41-1.74-2.66-2.76-1.82-.82-17.78-9.39-25.13-20,0,0,8.87,4.27,13.57,5.08,2.71.46,1.53-1-1.44-3.39C208,119.75,187.28,99.34,182,74.54A38,38,0,0,0,193.75,81c1.43.42-.09-2.27-3.76-6.59-13-15.32-16.57-43.07-17.09-45.1S171.66,27.18,171.08,29.17Z"/><path class="cls-6" d="M159.25,82.56s4.55-5.39,6-8.79c0,0,5.58,24,4.92,4,0,0,1.55,22.58-5.13-2.9C165,74.88,162,80.09,159.25,82.56Z"/><path class="cls-6" d="M183.49,110s-2.62,6.67-6.42,10.64c-.85.89-2.13,1.66-2-.84s.5-7.54-.61-11.4c0,0-4.83,8.29-12.12,10.76-1.78.61-4.07,1.37-1.57-1.49a28.51,28.51,0,0,0,5-7.09s-12.09,8.6-4.27,0c0,0-9.69,9.58,3.74.63a54.2,54.2,0,0,1-5,6.46c-1.47,1.55-3.19,3.88,2,2s8.69-5.1,11.88-9.66c0,0,.68,2.2.47,9.85-.08,3.16,1.75,2.27,3.69,0a53.76,53.76,0,0,0,5.41-8.29s4.94,5.26,14.34,8.17A46.81,46.81,0,0,1,183.49,110Z"/><polygon class="cls-4" points="167.49 153.7 167.29 199.07 167.88 201.11 167.78 154.38 167.49 153.7"/><polygon class="cls-4" points="168.87 151.2 169.82 187.92 170.23 187.44 169.35 150.46 168.87 151.2"/><polygon class="cls-4" points="171.44 167.2 171.78 196.94 172.38 197.61 171.98 166.53 171.44 167.2"/><polygon class="cls-4" points="169.65 170.51 171.75 170.51 171.75 171.09 169.65 170.87 169.65 170.51"/><polygon class="cls-4" points="169.78 176.41 171.75 176.32 171.71 176.81 169.78 176.72 169.78 176.41"/><polygon class="cls-4" points="169.78 177.71 171.75 177.57 171.71 178.02 169.78 178.06 169.78 177.71"/><polygon class="cls-4" points="170.01 182.85 171.71 182.98 171.79 183.69 169.96 183.34 170.01 182.85"/><polygon class="cls-4" points="171.97 173.01 173.58 172.97 173.63 173.33 171.97 173.33 171.97 173.01"/><polygon class="cls-4" points="172.06 180.16 173.67 180.25 173.45 180.48 171.97 180.48 172.06 180.16"/><polygon class="cls-4" points="172.02 184.41 173.49 184.32 173.54 184.68 171.97 184.72 172.02 184.41"/><polygon class="cls-4" points="171.96 192.55 170.31 192.63 170.35 192.91 171.84 192.84 171.96 192.55"/><polygon class="cls-4" points="167.74 185.29 169.83 185.21 169.95 185.85 167.7 185.65 167.74 185.29"/><polygon class="cls-4" points="167.66 180.15 169.75 180.23 169.71 180.55 167.7 180.47 167.66 180.15"/><polygon class="cls-4" points="167.74 196.41 169.35 196.49 169.31 196.89 167.7 196.61 167.74 196.41"/><polygon class="cls-4" points="167.7 168.87 169.51 168.47 169.47 167.91 167.54 168.31 167.7 168.87"/><polygon class="cls-4" points="167.6 161.02 169.34 160.88 169.29 161.25 167.56 161.38 167.6 161.02"/><polygon class="cls-4" points="167.6 158.74 169.29 158.19 169.29 158.51 167.6 159.01 167.6 158.74"/><polygon class="cls-4" points="169.61 163.25 170.89 163.25 170.93 163.66 169.61 163.57 169.61 163.25"/><polygon class="cls-4" points="167.5 162.79 166.09 162.79 166.09 163.19 167.5 163.14 167.5 162.79"/><polygon class="cls-4" points="167.55 172.19 165.94 172.19 165.94 172.79 167.5 172.59 167.55 172.19"/><polygon class="cls-4" points="167.5 180.99 166.04 180.89 165.99 181.29 167.5 181.29 167.5 180.99"/><polygon class="cls-4" points="167.45 183.55 166.14 183.65 166.4 183.96 167.45 183.85 167.45 183.55"/><polygon class="cls-4" points="167.35 193.41 166.24 193.46 166.29 193.81 167.5 193.71 167.35 193.41"/><polygon class="cls-3" points="57.69 127.82 57.3 230.45 73.33 231.59 68.75 122.86 57.69 127.82"/><path class="cls-4" d="M57.66,136.28a26.74,26.74,0,0,0,4.85-3.42,27,27,0,0,0,7,8.89l-.18-4.89L62.75,125.3l-5.13,4.23Z"/><path class="cls-5" d="M63.94,4C63.28,6.22,53.13,51.39,30,77.4c-3.07,3.46-.94,3.19,4,.44a66.26,66.26,0,0,0,16.46-13S39.1,96.65,14.21,118.17c-1.92,1.66-5.18,3.79,0,2.88,4.67-.82,9-2.57,18.21-7.59,0,0-6.64,13.69-28.25,28-3.44,2.28-3,3.94,1.52,3C9.8,143.7,21.12,142.64,39,131.2c0,0-1,3.51-10.74,12.38-1.85,1.69-1.28,3.27,5.72.82s19.27-7.48,27.65-15.59c0,0,4.57,8.81,16.37,18.27,2.38,1.91,4.55,2.22,1.86-2.45-.52-.92-4.08-9.22-4.15-12.83a77.47,77.47,0,0,0,20.67,12.64c6.49,2.53,15.33,5.39,8.58-.74C98.52,137.86,92.1,129.57,90.7,125c0,0,14.08,9.25,35.72,8.29,2.37-.11-.46-2-3-3.16-2.07-.94-20.28-10.71-28.67-22.83,0,0,10.11,4.87,15.48,5.79,3.1.53,1.75-1.17-1.64-3.85-2.47-2-26.14-25.24-32.21-53.54a43.48,43.48,0,0,0,13.46,7.4c1.63.49-.1-2.58-4.3-7.51C70.64,38.13,66.61,6.47,66,4.15S64.6,1.69,63.94,4Z"/><path class="cls-2" d="M50.45,64.87s5.19-6.15,6.81-10c0,0,6.37,27.39,5.62,4.57,0,0,1.77,25.77-5.85-3.3C57,56.11,53.6,62.05,50.45,64.87Z"/><path class="cls-6" d="M78.09,96.19s-3,7.61-7.31,12.14c-1,1-2.43,1.89-2.32-1s.58-8.6-.69-13c0,0-5.51,9.47-13.83,12.28-2,.69-4.64,1.57-1.78-1.7a32.52,32.52,0,0,0,5.72-8.09s-13.8,9.81-4.87,0c0,0-11.06,10.92,4.26.72A60.9,60.9,0,0,1,51.61,105c-1.68,1.77-3.64,4.42,2.28,2.33s9.91-5.82,13.55-11c0,0,.78,2.51.54,11.23-.1,3.61,2,2.59,4.21-.05A63,63,0,0,0,78.37,98s5.62,6,16.35,9.31A53.36,53.36,0,0,1,78.09,96.19Z"/><polygon class="cls-4" points="59.84 146.04 59.62 197.79 60.29 200.12 60.17 146.81 59.84 146.04"/><polygon class="cls-4" points="61.42 143.18 62.5 185.07 62.97 184.53 61.96 142.33 61.42 143.18"/><polygon class="cls-4" points="64.35 161.43 64.73 195.36 65.42 196.13 64.96 160.67 64.35 161.43"/><polygon class="cls-4" points="62.31 165.21 64.7 165.21 64.7 165.88 62.31 165.62 62.31 165.21"/><polygon class="cls-4" points="62.46 171.94 64.7 171.84 64.65 172.4 62.46 172.3 62.46 171.94"/><polygon class="cls-4" points="62.46 173.42 64.7 173.27 64.65 173.78 62.46 173.83 62.46 173.42"/><polygon class="cls-4" points="62.72 179.29 64.65 179.44 64.75 180.25 62.66 179.85 62.72 179.29"/><polygon class="cls-4" points="64.96 168.07 66.8 168.02 66.85 168.42 64.96 168.42 64.96 168.07"/><polygon class="cls-4" points="65.06 176.23 66.9 176.33 66.64 176.58 64.96 176.58 65.06 176.23"/><polygon class="cls-4" points="65.01 181.07 66.69 180.97 66.74 181.38 64.96 181.43 65.01 181.07"/><polygon class="cls-4" points="64.94 190.36 63.06 190.45 63.11 190.77 64.8 190.68 64.94 190.36"/><polygon class="cls-4" points="60.13 182.07 62.51 181.98 62.65 182.71 60.09 182.48 60.13 182.07"/><polygon class="cls-4" points="60.04 176.21 62.42 176.3 62.38 176.67 60.09 176.58 60.04 176.21"/><polygon class="cls-4" points="60.13 194.76 61.96 194.85 61.92 195.31 60.09 194.99 60.13 194.76"/><polygon class="cls-4" points="60.09 163.34 62.15 162.88 62.1 162.24 59.9 162.7 60.09 163.34"/><polygon class="cls-4" points="59.97 154.38 61.95 154.22 61.9 154.64 59.92 154.8 59.97 154.38"/><polygon class="cls-4" points="59.97 151.78 61.9 151.15 61.9 151.52 59.97 152.09 59.97 151.78"/><polygon class="cls-4" points="62.26 156.93 63.72 156.93 63.77 157.4 62.26 157.3 62.26 156.93"/><polygon class="cls-4" points="59.86 156.4 58.25 156.4 58.25 156.86 59.86 156.8 59.86 156.4"/><polygon class="cls-4" points="59.91 167.13 58.08 167.13 58.08 167.82 59.86 167.59 59.91 167.13"/><polygon class="cls-4" points="59.86 177.17 58.19 177.05 58.14 177.51 59.86 177.51 59.86 177.17"/><polygon class="cls-4" points="59.8 180.09 58.31 180.21 58.59 180.55 59.8 180.44 59.8 180.09"/><polygon class="cls-4" points="59.69 191.34 58.42 191.4 58.48 191.8 59.86 191.68 59.69 191.34"/><path class="cls-1" d="M188.42,183.75c-1.51,7-5.43,19.05-15.08,28.65-4,3.93-1.12,3,2,1.77a21.63,21.63,0,0,0,5.92-3.57s-1.05,5.13-6.82,14.48c-2.72,4.4-8.73,9.85-4.71,8.2a30.43,30.43,0,0,0,7-4s-4.71,12.43-20.47,23c-3.88,2.59,1.18,2,4.19,1.36a65.27,65.27,0,0,0,8.66-2.82s-.51,1.09-3.79,3.93c-4.45,3.87-.21,3,2.67,2.24a50.72,50.72,0,0,0,11.29-4.35,22,22,0,0,0,1.46,3c1.14,2,2.75,2.74,3.63-.21.73-2.44,1.22-3.66,1.79-4.31,0,0,1.39,3.18,6.67,5.45,2.24,1,8.63,2.53,6.82-.08s-2.42-3.56-2.6-6.1a24.17,24.17,0,0,0,8.2,4.23c5.4,1.63,10.73,1.62,8-.25s-3.49-2.76-4.22-4.3c0,0,3.68,1.5,13.32,2.6,3.58.4,1.81-1.2-1.21-2.68-2.83-1.39-11.3-5.77-17.07-12.24a47.18,47.18,0,0,0,6.58,2.73c2.88.85,1.55-.73-2.68-5.69-3.72-4.37-10.25-13.88-10.41-17,0,0,2.25.92,2.81,1.11,8.33,2.86,5.43.51.84-5.39-8.8-11.31-8.47-19.32-10.78-27.66C189.52,182.33,189.29,179.69,188.42,183.75Z"/><path class="cls-2" d="M177.78,236.75s-10.55,12.53-.8,5.13c0,0-6.67,17.62,5.55.25,0,0,4.81,12.66,4.24.06,0,0,10.69,16.78,6.45,3.48,0,0,8.11,7.11,1.53-5.55,0,0,7.34,10.17,5.37,1.82,0,0,1.88,7.61-6.06-2.89,0,0,5.87,12.19-1.15,6.12,0,0,4.43,12.72-6.59-4.31,0,0,1.4,13.17-3.79.51,0,0-11.56,17.54-5-.06C177.52,241.31,168.85,248.27,177.78,236.75Z"/><path class="cls-2" d="M197.62,217.77a19.19,19.19,0,0,1-3.86-3.55s4.9,10.62.09,4.92c0,0-.37,11.87-3-2.79,0,0-3.44,10.79-4,.93,0,0-3.81,7.16-1.27-2.57,0,0-4.71,5.86,0-3.44,0,0-4.27,8,.25,3.16,0,0-2.48,7.94,1.15,2.48,0,0,.21,9.84,3.93-1.33,0,0,2.17,13.76,2.85,3,0,0,4.19,6.07-.43-5.27A25.56,25.56,0,0,0,197.62,217.77Z"/><path class="cls-1" d="M217,151.51a26.22,26.22,0,0,1-6.49,12.76c-1.7,1.75-.48,1.32.88.79a9.41,9.41,0,0,0,2.54-1.59,23.26,23.26,0,0,1-2.93,6.44c-1.17,2-3.76,4.39-2,3.65a12.71,12.71,0,0,0,3-1.77s-2,5.54-8.81,10.22c-1.67,1.16.5.88,1.8.61a27.65,27.65,0,0,0,3.73-1.25,7.4,7.4,0,0,1-1.63,1.74c-1.92,1.72-.09,1.36,1.15,1a21.34,21.34,0,0,0,4.85-1.94,9.34,9.34,0,0,0,.63,1.36c.49.87,1.18,1.22,1.56-.09a5.93,5.93,0,0,1,.77-1.92,5.44,5.44,0,0,0,2.88,2.43c1,.43,3.71,1.12,2.93,0a4.63,4.63,0,0,1-1.12-2.71,10.39,10.39,0,0,0,3.53,1.88c2.32.72,4.61.72,3.46-.11a4.55,4.55,0,0,1-1.82-1.92,23.84,23.84,0,0,0,5.73,1.16c1.54.18.78-.53-.52-1.19a25.43,25.43,0,0,1-7.34-5.45,19.37,19.37,0,0,0,2.83,1.21c1.24.38.66-.32-1.15-2.53-1.61-1.94-4.42-6.18-4.49-7.59,0,0,1,.41,1.21.49,3.59,1.28,2.34.23.37-2.4-3.79-5-3.65-8.6-4.64-12.31C217.48,150.88,217.38,149.71,217,151.51Z"/><path class="cls-2" d="M212.43,175.11s-4.54,5.58-.35,2.28c0,0-2.87,7.85,2.39.11,0,0,2.07,5.64,1.83,0,0,0,4.6,7.47,2.77,1.55,0,0,3.49,3.17.66-2.47,0,0,3.16,4.53,2.31.81,0,0,.81,3.39-2.61-1.28,0,0,2.53,5.42-.49,2.72,0,0,1.9,5.66-2.83-1.92,0,0,.59,5.86-1.64.23,0,0-5,7.8-2.15,0C212.32,177.14,208.59,180.24,212.43,175.11Z"/><path class="cls-2" d="M221,166.66a8.35,8.35,0,0,1-1.65-1.58s2.1,4.73,0,2.19c0,0-.16,5.28-1.31-1.24,0,0-1.48,4.8-1.72.41,0,0-1.64,3.19-.55-1.14,0,0-2,2.61,0-1.53,0,0-1.84,3.56.1,1.4,0,0-1.06,3.54.5,1.11,0,0,.09,4.38,1.69-.6,0,0,.93,6.13,1.23,1.36,0,0,1.8,2.7-.19-2.35A11.26,11.26,0,0,0,221,166.66Z"/></g></svg>