<svg xmlns="http://www.w3.org/2000/svg" xmlns:xlink="http://www.w3.org/1999/xlink" viewBox="0 0 688.23 258.49" width="688.23" height="258.49" preserveAspectRatio="none"><defs><style>.cls-1{fill:url(#linear-gradient);}</style><linearGradient id="linear-gradient" x1="353.5" y1="290.24" x2="318.9" y2="87.08" gradientUnits="userSpaceOnUse"><stop offset="0" stop-color="#8bcedd"/><stop offset="1" stop-color="#56a6b8"/></linearGradient></defs><title>Home_Map_Screen_new</title><g id="more_BG_hills" data-name="more BG hills"><path class="cls-1" d="M636.73,102.43s-11.51-73.68-48.4-77c-42-3.74-44.49,117-73,35.65-22.2-63.34-66.6-63.87-88-15-25,57-41.61,116.28-51.3,80C358.91,61.9,339.24,73.87,325.56,97c-10.13,17.1-11.28,27.61-23.38,13.81-33.55-38.27-51.87,4.45-64.32,26.07-8.53,14.82-10.74,32-19.31,30.08-14.36-3.14-11.22-35.47-41.76-35.92-27.84-.41-34.82,54.38-54.33,54.33-12.11,0-19.31-42.2-47.15-42.2-41.77,0-58.63,91.74-58.63,91.74l657.19,14.18Z"/></g></svg>