<?xml version="1.0" encoding="utf-8"?>
<!-- Generator: Adobe Illustrator 19.2.0, SVG Export Plug-In . SVG Version: 6.00 Build 0)  -->
<svg version="1.1" xmlns="http://www.w3.org/2000/svg" xmlns:xlink="http://www.w3.org/1999/xlink" x="0px" y="0px"
	 viewBox="0 0 220 138" enable-background="new 0 0 220 138" xml:space="preserve" width="220" height="138" preserveAspectRatio="none">
<g id="Background_Argyle">
</g>
<g id="Clouds">
	<g>
		<g>
			<path fill="#ECF8FE" d="M218.6,99.5c0.1-1.4,0.1-2.8,0.1-4.3c0-26.7-16.2-48.3-36.1-48.3c-0.3,0-0.5,0-0.8,0
				c-7-26.5-25.9-45.5-48.1-45.5C110,1.4,90.1,23,84.4,52.3c-5-3.4-10.6-5.4-16.6-5.4c-15.4,0-28.5,12.8-33.7,30.9
				c-2.1-0.7-4.4-1.1-6.7-1.1c-11.7,0-21.7,9.3-26.2,22.8H218.6z"/>
			<linearGradient id="SVGID_1_" gradientUnits="userSpaceOnUse" x1="125.6069" y1="100.6365" x2="125.6069" y2="30.0516">
				<stop  offset="0" style="stop-color:#FFFFFF"/>
				<stop  offset="1" style="stop-color:#A5DFF9"/>
			</linearGradient>
			<path opacity="0.5" fill="url(#SVGID_1_)" d="M204.1,85.9c-4.9-16.9-15.9-28.7-28.6-28.7c-0.2,0-0.5,0-0.7,0
				c-6.1-26.5-22.5-45.5-41.8-45.5c-20.6,0-37.8,21.6-42.8,50.9c-4.3-3.4-9.2-5.4-14.4-5.4C63,57.3,52,69,47.2,85.9H204.1z"/>
		</g>
		<path fill="#FFFFFF" d="M201.3,136.6c0-0.4,0-0.8,0-1.3c0-33.9-16.5-61.3-36.9-61.3c-14.7,0-27.5,14.4-33.4,35.2
			c-2.8-1.8-6-2.8-9.2-2.8c-9,0-16.9,7.5-21,18.5c-1.9-0.9-4-1.4-6.1-1.4c-7.1,0-13.2,5.3-16.4,13H201.3z"/>
	</g>
</g>
<g id="Mountains">
</g>
<g id="Green_Hills">
</g>
<g id="Center_Hill">
</g>
<g id="Office">
</g>
<g id="Library">
</g>
<g id="Main_Building">
</g>
<g id="Front_Tree_and_Bushes">
</g>
<g id="Bottom_Menu">
</g>
<g id="Header">
</g>
<g id="Footer">
</g>
<g id="Buttons_1">
</g>
<g id="Buttons_2">
</g>
<g id="Isadora_ScreenShot_2">
</g>
<g id="Isadora_ScreenShot_1">
</g>
</svg>
