<svg xmlns="http://www.w3.org/2000/svg" viewBox="0 0 59.2 61.48" width="59.2" height="61.48" preserveAspectRatio="none"><defs><style>.cls-1{fill:#7f3e1c;}.cls-2{fill:#fff;}</style></defs><title>Home_Map_Screen_new</title><g id="new_main_building" data-name="new main building"><path class="cls-1" d="M59.2,30.74c0,17-13.25,30.74-29.6,30.74S0,47.71,0,30.74,13.25,0,29.6,0,59.2,13.76,59.2,30.74Z"/><path class="cls-2" d="M54.83,30.74c0,14.46-11.3,26.19-25.23,26.19S4.38,45.2,4.38,30.74,15.67,4.54,29.6,4.54,54.83,16.27,54.83,30.74Z"/><path class="cls-1" d="M28.94,11.52l-.06.74L26,12.3l0-.76h.91V7.38H26L26,6.6l2,0,0,4.9Z"/><path class="cls-1" d="M34.3,8.18a1.36,1.36,0,0,1-.15.65,2,2,0,0,1-.37.5,2.81,2.81,0,0,1-.55.38l-.62.32-.65.3a4.54,4.54,0,0,0-.58.31,2,2,0,0,0-.44.37,1,1,0,0,0-.24.46l2.43,0,.06-.79,1,0L34.1,12.3l-4.58,0a2.49,2.49,0,0,1,.16-.95,2.38,2.38,0,0,1,.41-.69,2.48,2.48,0,0,1,.58-.49,7.44,7.44,0,0,1,.66-.38L32,9.44a3.94,3.94,0,0,0,.58-.3A1.85,1.85,0,0,0,33,8.77a.83.83,0,0,0,.16-.5,1.57,1.57,0,0,0,0-.37.81.81,0,0,0-.16-.32.83.83,0,0,0-.33-.24,1.51,1.51,0,0,0-.56-.08,1.87,1.87,0,0,0-.7.11,1.29,1.29,0,0,0-.47.29,1.28,1.28,0,0,0-.29.41,1.6,1.6,0,0,0-.11.47l-1,0-.14-2.08,1.08,0,0,.68a1.55,1.55,0,0,1,.33-.3,1.79,1.79,0,0,1,.39-.2,2.8,2.8,0,0,1,.46-.12,4.68,4.68,0,0,1,.55,0,2.66,2.66,0,0,1,.94.14A2,2,0,0,1,33.8,7a1.52,1.52,0,0,1,.38.54A1.76,1.76,0,0,1,34.3,8.18Z"/><path class="cls-1" d="M31.86,53.24a2.06,2.06,0,0,1-.14.73,1.86,1.86,0,0,1-.43.63,2.29,2.29,0,0,1-.75.44,3.23,3.23,0,0,1-1.08.16,3,3,0,0,1-1-.15,1.93,1.93,0,0,1-.67-.4,1.77,1.77,0,0,1-.4-.58,2.61,2.61,0,0,1-.21-.67,4.06,4.06,0,0,1-.08-.69c0-.22,0-.43,0-.62a4,4,0,0,1,0-.58,2.79,2.79,0,0,1,.39-1.22,1.63,1.63,0,0,1,.43-.51,2.08,2.08,0,0,1,.66-.36,3.16,3.16,0,0,1,1.76,0,2.45,2.45,0,0,1,.67.32,2,2,0,0,1,.46.47,1.4,1.4,0,0,1,.22.56l-1.08.08a.86.86,0,0,0-.09-.3.93.93,0,0,0-.22-.27,1.3,1.3,0,0,0-.33-.19,1.25,1.25,0,0,0-.45-.07,1.52,1.52,0,0,0-.51.08,1.21,1.21,0,0,0-.37.22,1.11,1.11,0,0,0-.25.32,1.14,1.14,0,0,0-.15.36,2.45,2.45,0,0,0-.08.37c0,.12,0,.22,0,.32v.13a.68.68,0,0,0,0,.14,2.53,2.53,0,0,1,.66-.32,2.9,2.9,0,0,1,.79-.11,2.75,2.75,0,0,1,.93.15,2.17,2.17,0,0,1,.7.4,1.71,1.71,0,0,1,.46.55A1.41,1.41,0,0,1,31.86,53.24Zm-1.09.08a1.15,1.15,0,0,0-.08-.41.92.92,0,0,0-.24-.35,1.17,1.17,0,0,0-.41-.24,1.82,1.82,0,0,0-.61-.09,1.19,1.19,0,0,0-.51.1,1.34,1.34,0,0,0-.38.26,1,1,0,0,0-.24.35.76.76,0,0,0-.08.34,1.56,1.56,0,0,0,.06.41,1.36,1.36,0,0,0,.22.41,1.24,1.24,0,0,0,.39.32,1.32,1.32,0,0,0,.59.13,1.4,1.4,0,0,0,.6-.12,1.58,1.58,0,0,0,.4-.31,1.31,1.31,0,0,0,.29-.8Z"/><path class="cls-1" d="M52.34,34.77a1.33,1.33,0,0,1-.62,1.2,3.4,3.4,0,0,1-1.81.39,3.45,3.45,0,0,1-1-.14,2.39,2.39,0,0,1-.75-.37,1.61,1.61,0,0,1-.47-.54,1.42,1.42,0,0,1-.17-.67s0-.1,0-.15a.59.59,0,0,1,0-.14l1,0a1.34,1.34,0,0,0,.08.48,1.1,1.1,0,0,0,.25.43,1.46,1.46,0,0,0,.47.3,1.85,1.85,0,0,0,.71.12,2,2,0,0,0,.53-.06.94.94,0,0,0,.36-.18.66.66,0,0,0,.2-.27,1,1,0,0,0,.06-.36.79.79,0,0,0-.12-.39,1.21,1.21,0,0,0-.33-.35,1.75,1.75,0,0,0-.49-.26,1.57,1.57,0,0,0-.58-.1h-.55v-.65h.54A1.83,1.83,0,0,0,50.3,33a1.48,1.48,0,0,0,.47-.24,1,1,0,0,0,.3-.33.81.81,0,0,0,.1-.39.92.92,0,0,0-.06-.33,1,1,0,0,0-.2-.28,1.37,1.37,0,0,0-.34-.19,1.75,1.75,0,0,0-.49-.07,1.85,1.85,0,0,0-.5.06,1.38,1.38,0,0,0-.37.16,1.31,1.31,0,0,0-.28.24,1.87,1.87,0,0,0-.2.29,1.69,1.69,0,0,0-.13.31,2.12,2.12,0,0,0-.09.31l-1,0-.14-2.07,1.08,0v.68a3.07,3.07,0,0,1,.32-.31,1.42,1.42,0,0,1,.33-.21,1.87,1.87,0,0,1,.42-.13,3,3,0,0,1,.55,0,3.42,3.42,0,0,1,.94.11,2.26,2.26,0,0,1,.7.32,1.43,1.43,0,0,1,.43.49,1.22,1.22,0,0,1,.16.62,1.18,1.18,0,0,1-.36.86,2.28,2.28,0,0,1-1.09.54,2.49,2.49,0,0,1,.58.22,2,2,0,0,1,.46.32,1.36,1.36,0,0,1,.3.39A1.06,1.06,0,0,1,52.34,34.77Z"/><path class="cls-1" d="M11.18,33.56a3.91,3.91,0,0,1,0,.57,3.5,3.5,0,0,1-.12.63,3.11,3.11,0,0,1-.26.6,2.13,2.13,0,0,1-.44.51,2.29,2.29,0,0,1-.66.35,3,3,0,0,1-1.76,0,2.33,2.33,0,0,1-.67-.33,1.71,1.71,0,0,1-.46-.47,1.29,1.29,0,0,1-.22-.56l1.08-.08a.71.71,0,0,0,.1.31.87.87,0,0,0,.22.26,1.06,1.06,0,0,0,.33.19,1.33,1.33,0,0,0,.45.07,1.52,1.52,0,0,0,.51-.08A1.17,1.17,0,0,0,9.86,35a2.39,2.39,0,0,0,.15-.37,2.29,2.29,0,0,0,.07-.36c0-.12,0-.23,0-.33v-.13s0-.09,0-.13a2.5,2.5,0,0,1-.66.31A2.76,2.76,0,0,1,7.7,34a2.36,2.36,0,0,1-.7-.39A1.69,1.69,0,0,1,6.55,33a1.27,1.27,0,0,1-.16-.62,2,2,0,0,1,.14-.72A1.6,1.6,0,0,1,7,31.05a2,2,0,0,1,.75-.44,3,3,0,0,1,1.09-.17,2.93,2.93,0,0,1,1,.15,2,2,0,0,1,.67.4,1.8,1.8,0,0,1,.41.58,4,4,0,0,1,.21.67,5.38,5.38,0,0,1,.07.69C11.18,33.16,11.18,33.37,11.18,33.56ZM10,32.36A1.53,1.53,0,0,0,10,32a1.36,1.36,0,0,0-.22-.41,1.2,1.2,0,0,0-.38-.32,1.32,1.32,0,0,0-.59-.13,1.56,1.56,0,0,0-.6.12,1.24,1.24,0,0,0-.4.3,1.34,1.34,0,0,0-.23.4,1.22,1.22,0,0,0-.07.41,1.1,1.1,0,0,0,.08.4.92.92,0,0,0,.24.35,1.19,1.19,0,0,0,.41.25,1.82,1.82,0,0,0,.61.09,1.19,1.19,0,0,0,.51-.11,1.16,1.16,0,0,0,.38-.26,1,1,0,0,0,.24-.34A.79.79,0,0,0,10,32.36Z"/><path class="cls-1" d="M12.63,18.91a1.15,1.15,0,1,1-1.15-1.15A1.15,1.15,0,0,1,12.63,18.91Z"/><path class="cls-1" d="M20.81,10.34A1.14,1.14,0,1,1,19.67,9.2,1.14,1.14,0,0,1,20.81,10.34Z"/><path class="cls-1" d="M44.4,14.33a1.14,1.14,0,1,0-1.27,1A1.14,1.14,0,0,0,44.4,14.33Z"/><path class="cls-1" d="M51.44,23.86a1.14,1.14,0,1,0-1.27,1A1.13,1.13,0,0,0,51.44,23.86Z"/><path class="cls-1" d="M38,49.07a1.14,1.14,0,0,0-1.23,1,1.14,1.14,0,1,0,2.28.17A1.14,1.14,0,0,0,38,49.07Z"/><path class="cls-1" d="M47.17,41.56A1.14,1.14,0,1,0,47,43.84a1.14,1.14,0,0,0,.17-2.28Z"/><path class="cls-1" d="M20.81,50.76a1.15,1.15,0,1,0,1.09-1.2A1.15,1.15,0,0,0,20.81,50.76Z"/><path class="cls-1" d="M12.19,42.64a1.14,1.14,0,1,0,1.08-1.2A1.14,1.14,0,0,0,12.19,42.64Z"/></g></svg>