<svg xmlns="http://www.w3.org/2000/svg" viewBox="0 0 51.96 57.17" width="51.96" height="57.17" preserveAspectRatio="none"><defs><style>.cls-1{fill:#157258;}.cls-2{fill:#09463d;}</style></defs><title>Home_Map_Screen_new</title><g id="trees"><path class="cls-1" d="M25.14,2.26c-1.11,5.16-4,14-11.06,21-2.9,2.89-.82,2.18,1.5,1.3A16.09,16.09,0,0,0,19.92,22s-.77,3.77-5,10.62c-2,3.23-6.4,7.23-3.46,6a22.14,22.14,0,0,0,5.12-2.92s-3.45,9.11-15,16.84c-2.85,1.9.86,1.45,3.07,1A48.7,48.7,0,0,0,11,51.44a12.63,12.63,0,0,1-2.79,2.88c-3.26,2.83-.15,2.23,2,1.64a37.39,37.39,0,0,0,8.28-3.19A16,16,0,0,0,19.52,55c.84,1.43,2,2,2.67-.15A9,9,0,0,1,23.5,51.7s1,2.33,4.89,4c1.64.71,6.33,1.86,5-.06S31.62,53,31.48,51.16a17.75,17.75,0,0,0,6,3.1c4,1.19,7.87,1.19,5.9-.18s-2.56-2-3.1-3.16c0,0,2.7,1.11,9.77,1.91,2.63.3,1.33-.88-.89-2s-8.28-4.23-12.51-9a35.32,35.32,0,0,0,4.82,2c2.11.62,1.13-.54-2-4.17C36.79,36.51,32,29.53,31.89,27.21c0,0,1.65.68,2.06.82,6.11,2.09,4,.37.62-4-6.46-8.3-6.21-14.17-7.91-20.29C26,1.21,25.78-.72,25.14,2.26Z"/><path class="cls-2" d="M17.34,41.13s-7.74,9.19-.59,3.76c0,0-4.9,12.93,4.07.19,0,0,3.53,9.28,3.11,0,0,0,7.84,12.31,4.73,2.56,0,0,5.95,5.21,1.12-4.07,0,0,5.38,7.46,3.94,1.33,0,0,1.38,5.58-4.44-2.12,0,0,4.31,8.94-.85,4.49,0,0,3.25,9.33-4.83-3.16,0,0,1,9.66-2.78.37,0,0-8.48,12.86-3.67-.05C17.15,44.47,10.79,49.58,17.34,41.13Z"/><path class="cls-2" d="M31.89,27.21a13.86,13.86,0,0,1-2.83-2.61s3.59,7.8.07,3.62c0,0-.28,8.7-2.23-2,0,0-2.52,7.91-2.93.68,0,0-2.8,5.25-.93-1.88,0,0-3.46,4.29,0-2.52,0,0-3.14,5.86.18,2.31,0,0-1.82,5.82.84,1.82,0,0,.16,7.22,2.89-1,0,0,1.59,10.09,2.09,2.23,0,0,3.07,4.46-.32-3.86A18.47,18.47,0,0,0,31.89,27.21Z"/></g></svg>