<svg xmlns="http://www.w3.org/2000/svg" viewBox="0 0 441.18 534.29" width="441.18" height="534.29" preserveAspectRatio="none"><defs><style>.cls-1,.cls-7{fill:#8b172e;}.cls-1,.cls-10,.cls-13,.cls-3,.cls-4,.cls-5,.cls-6,.cls-9{fill-rule:evenodd;}.cls-2{fill:#90b0c1;}.cls-3{fill:#c8e9ed;}.cls-14,.cls-4{fill:#526f8d;}.cls-5{fill:#78a3b8;}.cls-6{fill:#ed1941;}.cls-13,.cls-8{fill:#ed8483;}.cls-9{fill:#9ac4dd;}.cls-10{fill:#a8e0f9;}.cls-11{fill:#e8f8ff;}.cls-12{fill:#a1d0dd;}</style></defs><title>Home_Map_Screen_new</title><g id="observatory"><polygon class="cls-1" points="319.8 110.58 336.65 100.33 337.6 102.33 320.04 112.11 319.8 110.58"/><polygon class="cls-1" points="340.9 106.92 324.16 118 325.81 119.3 341.84 109.05 340.9 106.92"/><polygon class="cls-1" points="345.73 116.12 329.58 125.31 330.88 127.43 346.91 118.24 345.73 116.12"/><polygon class="cls-1" points="335.83 102.21 328.88 125.78 330.06 126.02 337.6 102.33 335.83 102.21"/><polygon class="cls-1" points="321.81 110.22 345.73 116.82 345.49 117.53 320.75 111.76 321.81 110.22"/><polygon class="cls-1" points="325.69 118.12 338.19 121.42 339.84 108.58 341.13 108.93 339.25 121.42 337.48 122.48 325.34 119.65 325.69 118.12"/><polygon class="cls-1" points="340.07 108.75 328.97 106.36 325.69 118.12 324.16 118 327.93 106.34 329.82 105.28 340.66 107.18 340.07 108.75"/><polygon class="cls-1" points="320.09 273.84 322.9 366 325.9 368.25 324.96 273.84 320.09 273.84"/><polygon class="cls-1" points="293.49 274.59 297.05 346.89 300.24 350.45 298.36 274.59 293.49 274.59"/><polygon class="cls-1" points="269.76 274.21 271.13 327.24 267.01 323.33 267.33 274.4 269.76 274.21"/><polygon class="cls-1" points="243.85 275.15 245.38 311.83 242.2 309.71 241.6 275.15 243.85 275.15"/><polygon class="cls-1" points="218 275.33 218.5 296.59 214.99 294.61 215.94 275.33 218 275.33"/><path class="cls-1" d="M192.53,275.71l.37,10.49-3.18.19.75-11.24S192.34,276.46,192.53,275.71Z"/><polygon class="cls-1" points="160.87 275.71 161.06 285.64 164.05 285.82 163.3 275.9 160.87 275.71"/><polygon class="cls-1" points="321.4 278.33 296.87 301.19 296.87 303.43 321.78 280.95 321.4 278.33"/><polygon class="cls-1" points="296.49 279.27 323.09 297.63 322.53 299.13 296.87 283.58 296.49 279.27"/><polygon class="cls-1" points="298.36 304.93 323.09 322.73 322.9 324.98 298.36 308.49 298.36 304.93"/><polygon class="cls-1" points="321.78 302.87 298.36 323.1 298.18 325.91 322.34 305.49 321.78 302.87"/><polygon class="cls-1" points="298.93 328.72 323.84 344.64 323.84 347.27 298.74 331.53 298.93 328.72"/><polygon class="cls-1" points="322.9 326.47 299.68 347.45 299.68 349.7 323.09 329.85 322.9 326.47"/><polygon class="cls-1" points="294.36 280.21 269.81 298 270.01 299.31 295.37 282.64 294.36 280.21"/><polygon class="cls-1" points="269.33 279.46 296.49 298.38 295.69 300.25 269.53 283.58 269.33 279.46"/><polygon class="cls-1" points="295.74 305.68 270.78 316.36 270.17 314.67 295.74 303.43 295.74 305.68"/><polygon class="cls-1" points="269.89 301.19 297.05 321.98 296.45 324.41 269.69 303.81 269.89 301.19"/><polygon class="cls-1" points="269.89 278.64 243.48 295.69 244.04 297 270.08 281.26 269.89 278.64"/><polygon class="cls-1" points="242.73 277.71 270.08 296.44 269.52 298.5 243.29 280.52 242.73 277.71"/><polygon class="cls-1" points="242.17 279.83 217.25 288.07 217.63 289.57 242.54 281.7 242.17 279.83"/><path class="cls-1" d="M216.69,278.71c.56-.19,26.23,15,26.23,15v1.5L217.07,281Z"/><polygon class="cls-1" points="191.78 277.58 216.13 286.95 215.75 288.45 191.59 279.08 191.78 277.58"/><polygon class="cls-1" points="216.32 277.77 191.78 284.51 192.15 285.82 216.5 279.83 216.32 277.77"/><polygon class="cls-1" points="191.03 277.4 162.74 284.14 163.12 285.26 191.59 279.08 191.03 277.4"/><polygon class="cls-1" points="162.56 277.58 190.91 284.38 190.5 285.92 162.18 279.46 162.56 277.58"/><polygon class="cls-1" points="268.02 300.71 244.72 309.98 244.98 311.17 268.28 303.09 268.02 300.71"/><polygon class="cls-1" points="243.98 299.5 268.38 313.61 268.53 312.33 244.04 297 243.98 299.5"/><path class="cls-2" d="M43,432.91s6.2,42.34.8,72.55c0,0,35,5.6,92.15-4,69.78-11.77,225.84-54.51,180.23,24.2l94-4.45s.84.28-10-43.67L258.8,443.71l-108.18-.36L65.9,439.68Z"/><path class="cls-2" d="M19,309.85s-3.67,22.74-14.3,36.68c0,0,13.42,20.47,39.24,23.84,16.18,2.1,30.68,10.23,27.81,34.27L94.14,386.5l7.33-32.64L71,331.49Z"/><path class="cls-2" d="M136.68,347.63s9.9,29,22,38.51c0,0-36.3,24.57-21.63,48.77L121.64,440l-29.7-13.56,6.23-43.65,18.34-26.4Z"/><path class="cls-2" d="M158.41,273.56S10.55,296.78,78.37,326l-32.64-9.53L32.89,300.32l18.34-16.14L140,265.48l18.7,1.1Z"/><path class="cls-3" d="M159.28,262.33s-122.66-.89-139,40.61c-7.37,18.74,7.38,24.13,33.39,34.41,56.86,22.47,28.47,39.11,12,58.57S-19.1,471.67,208.32,465.6c40.17-1.08,169.85-11.74,118.12,48.34l74.48-1.3s41.53-105-204.76-82.67c-126.84,11.52-86.84-32.73-75.43-46.52s44.49-42.77-29.34-61.6c-21.49-5.49-83.82-18-24.31-36.47,0,0,37.3-14.66,95.14-14.24Z"/><polygon class="cls-4" points="317.16 111.71 309.26 116.07 319.47 133.64 328.6 128.6 317.16 111.71"/><polygon class="cls-5" points="152.81 218.09 156.46 276.6 334.14 275.99 332.92 219.61 152.81 218.09"/><polygon class="cls-4" points="289.67 228.45 288.4 226.8 322.89 225.77 321.63 267.27 319.03 267.27 289.67 228.45"/><path class="cls-6" d="M196.89,171.89s-4.47-81.31,68.62-79.43c0,0,56.17,2.58,67,80.61Z"/><path class="cls-7" d="M251.15,93.23s-54.5,2.59-54.27,77.1l10.1.08S198.58,115,251.15,93.23Z"/><polygon class="cls-4" points="200.8 174 201.48 185.86 330.76 188.86 331.72 176.18 200.8 174"/><path class="cls-8" d="M268.37,92.75s53.05,4.37,63.86,78.28l-13.86,1.05S324.12,109.34,268.37,92.75Z"/><polygon class="cls-4" points="285.99 107.09 285.15 108.83 321.71 155.9 329.79 151.21 331.4 148.84 285.99 107.09"/><polygon class="cls-5" points="193.13 167.43 193.83 176.83 340.25 178.47 339.54 170.01 193.13 167.43"/><polygon class="cls-4" points="217.95 195.24 219.2 219.45 313.11 221.8 310.6 194.77 217.95 195.24"/><polygon class="cls-1" points="229.21 200.71 230.43 216.37 233.4 215.87 232.05 199.91 229.21 200.71"/><polygon class="cls-1" points="246.31 199.5 246.13 216.57 249.49 216.77 249.14 199.71 246.31 199.5"/><polygon class="cls-1" points="264.34 199.2 264.14 217.18 268.07 217.07 267.28 199.71 264.34 199.2"/><polygon class="cls-1" points="280.9 199.61 281.78 217.48 285.13 217.07 283.55 199.71 280.9 199.61"/><polyline class="cls-1" points="299.34 199.81 298.59 217.88 302.52 217.98 301.46 200.11"/><polygon class="cls-5" points="196.18 183.17 334.84 184.58 335.08 200.56 197.59 200.8 196.18 183.17"/><polygon class="cls-1" points="204.73 197.64 203.82 187.04 214.56 186.97 215.83 197.64 204.73 197.64"/><polygon class="cls-1" points="220.81 197.71 219.76 187.18 231.98 187.67 233.52 197.71 220.81 197.71"/><polygon class="cls-1" points="239.42 197.64 238.44 187.53 251.29 187.74 251.64 197.64 239.42 197.64"/><polygon class="cls-1" points="258.45 197.57 257.89 187.88 270.18 187.46 271.16 197.64 258.45 197.57"/><polygon class="cls-1" points="276.92 197.64 276.85 188.02 288.86 188.09 288.86 197.64 276.92 197.64"/><polygon class="cls-1" points="294.96 188.3 294.89 197.57 307.11 197.5 306.76 188.09 294.96 188.3"/><polygon class="cls-1" points="315.89 197.5 315.33 188.09 326.56 188.3 326.99 197.5 315.89 197.5"/><polygon class="cls-6" points="147.94 213.75 340.85 216.8 341.15 221.98 148.24 220.46 147.94 213.75"/><polygon class="cls-5" points="285.99 107.09 303.97 102.21 331.4 148.84 322.26 154.33 285.99 107.09"/><path class="cls-1" d="M248.19,101.7s-31.82,19.35-25.38,62.4C222.81,164.1,219.28,131,248.19,101.7Z"/><path class="cls-1" d="M260.88,101.91s-3.33,26.42.62,63.23C261.5,165.14,262.75,122.29,260.88,101.91Z"/><path class="cls-1" d="M271.9,102.12s31.62,19.13,28.71,63.85C300.61,166,299.36,124.79,271.9,102.12Z"/><polygon class="cls-5" points="367.42 44.48 342.97 64.76 356.09 75.8 379.95 65.95 367.42 44.48"/><polygon class="cls-5" points="340.88 76.39 340.28 99.66 355.79 105.02 354.6 76.39 340.88 76.39"/><polygon class="cls-5" points="315.37 110.45 328.48 131.9 332.65 129.07 319.69 108.07 315.37 110.45"/><polygon class="cls-5" points="361.95 44.38 355.83 50.37 371.31 75.72 379.5 73.64 361.95 44.38"/><polygon class="cls-6" points="357.65 39.7 381.45 80.92 421.89 63.37 396.02 15.26 357.65 39.7"/><polygon class="cls-6" points="394.85 14.21 408.5 6.41 436.2 55.7 419.81 63.37 394.85 14.21"/><path class="cls-4" d="M342.22,61.05,358.7,76.44l-1.5,1.77L339,78.89S332.82,69.08,342.22,61.05Z"/><path class="cls-4" d="M338.68,95.78l-1.09,3L349.3,116.2s11.85-4.08,10.76-12.25Z"/><polygon class="cls-5" points="333.91 98.56 346.93 121.56 351 116.88 337.16 97.54 333.91 98.56"/><polygon class="cls-9" points="288.4 226.8 289.2 267.11 319.78 267.25 292.42 265.59 289.67 228.45 288.4 226.8"/><polygon class="cls-9" points="161.85 224.29 164.94 269.32 194.47 267.82 161.85 224.29"/><polygon class="cls-4" points="162.77 225.53 161.85 224.29 195.26 224.13 195.84 268.13 194.14 267.72 162.77 225.53"/><polygon class="cls-10" points="162.49 225.15 194.18 225.19 194.47 267.82 166.43 268.39 162.49 225.15"/><polygon class="cls-4" points="243.63 227.53 242.54 226.36 280.79 226.44 281.87 267.02 280.24 266.94 243.63 227.53"/><polygon class="cls-4" points="201.59 226.04 200.85 224.81 235.92 225.42 236.75 267.77 235.57 267.47 201.59 226.04"/><polygon class="cls-9" points="200.85 224.81 201.77 268.09 235.79 267.53 200.85 224.81"/><polygon class="cls-10" points="201.4 225.48 202.89 267.53 235.79 267.53 235.26 226.9 201.4 225.48"/><polygon class="cls-9" points="242.54 226.36 243.63 267.56 280.59 266.96 242.54 226.36"/><polygon class="cls-10" points="243.08 226.93 244.54 266.67 280.59 266.96 280.01 227.48 243.08 226.93"/><polygon class="cls-10" points="289.17 227.79 289.74 266.67 319.77 267.28 321.5 226.9 289.17 227.79"/><polygon class="cls-11" points="289.2 229.6 320.44 251.84 320.31 254.66 289.29 236.36 289.2 229.6"/><polygon class="cls-11" points="291.9 227.72 320.57 248.57 320.62 247.73 294.3 227.65 291.9 227.72"/><polygon class="cls-11" points="289.5 256.98 304.98 266.96 303.13 266.89 289.56 259.31 289.5 256.98"/><polygon class="cls-11" points="243.15 228.79 280.41 255.02 280.46 258.43 243.41 235.9 243.15 228.79"/><polygon class="cls-11" points="245.55 226.96 280.36 251.43 280.35 250.48 247.95 227 245.55 226.96"/><polygon class="cls-11" points="244.22 258.04 259.58 266.79 257.58 266.81 244.31 260.45 244.22 258.04"/><polygon class="cls-11" points="201.53 229.32 235.59 252.12 235.64 255.36 201.78 236.09 201.53 229.32"/><polygon class="cls-11" points="204.15 225.59 235.53 247.69 235.51 245.72 206.39 225.69 204.15 225.59"/><polygon class="cls-11" points="202.55 257.88 217.88 267.54 216.96 267.55 202.63 260.25 202.55 257.88"/><polygon class="cls-11" points="162.77 228.28 194.35 250.5 194.38 253.62 163.41 235.25 162.77 228.28"/><polygon class="cls-11" points="164.46 225.15 194.33 247.08 194.32 246.2 166.65 225.16 164.46 225.15"/><polygon class="cls-11" points="165.48 258.14 183.22 268.04 182.53 268.08 165.71 260.58 165.48 258.14"/><path class="cls-12" d="M68.49,408.69A2.41,2.41,0,0,1,70,407.63l6.85-.31c.44,0,.64.4.45.95l-1,2.82a1.28,1.28,0,0,1-1.08.93l-7.74-.65c-.4,0-.43-.53,0-1.09Z"/><path class="cls-12" d="M75.37,404.27a3.62,3.62,0,0,1-2.32,1.63l-10.24-.09c-.65,0-.92-.73-.59-1.61l1.72-4.57c.33-.89,1.1-1.53,1.7-1.44l11.47,1.75c.6.09.6.9,0,1.81Z"/><path class="cls-12" d="M77.42,393.79a3.21,3.21,0,0,1,2-1.49l9-.2c.57,0,.83.61.56,1.39l-1.38,4.05c-.26.78-.91,1.36-1.44,1.3L76,397.63c-.53-.07-.54-.78,0-1.58Z"/><path class="cls-12" d="M135.79,461.07c1.85-.06,3.73-.63,4.17-1.26l4-10.48a1.34,1.34,0,0,0-1.45-1.34l-4.42-.05a2.38,2.38,0,0,0-2,1.13l-8.17,11.19c-.56.56.6,1,2.57.95Z"/><path class="cls-12" d="M149.27,455.13c1.45,0,2.87-.31,3.15-.7l2.05-6.61c0-.45-.61-.85-1.29-.88l-3.47-.15a1.63,1.63,0,0,0-1.49.67l-5.28,7c-.38.34.57.64,2.12.67Z"/><polygon class="cls-8" points="359.83 43.47 392.65 27.39 388.56 20 357.65 39.7 359.83 43.47"/><path class="cls-12" d="M242,443.76c-1.86-.07-3.73-.63-4.17-1.26l-4-10.49a1.35,1.35,0,0,1,1.46-1.33l4.41-.05a2.38,2.38,0,0,1,2,1.12l8.16,11.19c.56.56-.6,1-2.57,1Z"/><polygon class="cls-1" points="391.67 18 388.56 20 412.58 67.41 419.39 64.49 391.67 18"/><path class="cls-12" d="M228.53,437.81c-1.45,0-2.87-.31-3.15-.7l-2-6.6c0-.46.6-.86,1.28-.89l3.48-.14a1.59,1.59,0,0,1,1.48.67l5.28,6.94c.39.35-.57.65-2.12.68Z"/><path class="cls-12" d="M109.12,359.67a2.46,2.46,0,0,1,1.49-.86l6.85-.25c.44,0,.65.33.46.77l-1,2.29a1.24,1.24,0,0,1-1.09.76l-7.73-.53c-.41,0-.43-.43-.06-.89Z"/><path class="cls-12" d="M118.6,349.44a3.21,3.21,0,0,1,2-1.21l9-.16c.57,0,.82.5.56,1.13l-1.38,3.29a1.64,1.64,0,0,1-1.45,1.06l-10.08-1c-.53-.05-.54-.63,0-1.28Z"/><path class="cls-12" d="M355.17,488.43a2.66,2.66,0,0,1,1.64-1.27L365,486a.93.93,0,0,1,1,1l.17,3.15a1,1,0,0,1-1,1.11l-10.77.1c-.57,0-.71-.5-.31-1.12Z"/><path class="cls-12" d="M362,482.93a3,3,0,0,1-2,2l-12.5,1.18c-.84.07-1.18-.62-.76-1.54l2-4.78c.34-.92,1.12-1.68,1.73-1.69l11.61-.07c.61,0,.95.87.73,1.93Z"/><polygon class="cls-13" points="408.5 6.41 436.2 55.7 410.2 14.59 398.82 21.22 394.85 14.21 408.5 6.41"/><polygon class="cls-5" points="389.77 14.99 395.11 11.74 423.59 65.71 420.2 68.44 389.77 14.99"/><polygon class="cls-14" points="357.32 52.81 368.28 70.76 366.35 71.56 354.73 55 357.32 52.81"/></g></svg>