<?xml version="1.0" encoding="utf-8"?>
<!-- Generator: Adobe Illustrator 19.2.0, SVG Export Plug-In . SVG Version: 6.00 Build 0)  -->
<svg version="1.1" xmlns="http://www.w3.org/2000/svg" xmlns:xlink="http://www.w3.org/1999/xlink" x="0px" y="0px"
	 viewBox="0 0 284 150" enable-background="new 0 0 284 150" xml:space="preserve" width="284" height="150" preserveAspectRatio="none">
<g id="Background_Argyle">
</g>
<g id="Clouds">
	<g>
		<g>
			<path fill="#ECF8FE" d="M56.9,124.9c-0.1-1.8-0.2-3.6-0.2-5.4c0-33.6,16.7-60.8,37.4-60.8c0.3,0,0.5,0,0.8,0
				c7.2-33.4,26.8-57.3,49.7-57.3c24.5,0,45.1,27.2,51,64c5.1-4.3,10.9-6.8,17.1-6.8c15.9,0,29.4,16.1,34.9,38.9
				c2.2-0.9,4.5-1.3,6.9-1.3c12.1,0,22.5,11.8,27.1,28.6H56.9z"/>
			
				<linearGradient id="SVGID_1_" gradientUnits="userSpaceOnUse" x1="902.1785" y1="126.3398" x2="902.1785" y2="37.5695" gradientTransform="matrix(-1 0 0 1 1055.2561 0)">
				<stop  offset="0" style="stop-color:#FFFFFF"/>
				<stop  offset="1" style="stop-color:#A5DFF9"/>
			</linearGradient>
			<path opacity="0.5" fill="url(#SVGID_1_)" d="M71.9,107.8c5.1-21.2,16.4-36,29.6-36c0.2,0,0.5,0,0.7,0
				c6.3-33.4,23.2-57.3,43.2-57.3c21.3,0,39.1,27.2,44.3,64c4.5-4.3,9.5-6.8,14.9-6.8c13.2,0,24.6,14.8,29.6,36H71.9z"/>
		</g>
		<path fill="#FFFFFF" d="M147.7,148.5c0-0.6,0-1.1,0-1.7c0-19.8-12.8-35.8-28.7-35.8c-4.6,0-8.9,1.3-12.7,3.7
			C99.4,100,86.6,90.2,72,90.2c-19.3,0-35.3,17.1-39.1,39.7c-3.2-2.2-6.8-3.4-10.7-3.4c-10.7,0-19.7,9.4-21.9,21.9H147.7z"/>
	</g>
</g>
<g id="Mountains">
</g>
<g id="Green_Hills">
</g>
<g id="Center_Hill">
</g>
<g id="Office">
</g>
<g id="Library">
</g>
<g id="Main_Building">
</g>
<g id="Front_Tree_and_Bushes">
</g>
<g id="Bottom_Menu">
</g>
<g id="Header">
</g>
<g id="Footer">
</g>
<g id="Buttons_1">
</g>
<g id="Buttons_2">
</g>
<g id="Isadora_ScreenShot_2">
</g>
<g id="Isadora_ScreenShot_1">
</g>
</svg>
