<svg xmlns="http://www.w3.org/2000/svg" viewBox="0 0 65.4 65.74" width="65.4" height="65.74" preserveAspectRatio="none"><defs><style>.cls-1{fill:#006c70;}.cls-2{fill:#094550;}</style></defs><title>Home_Map_Screen_new</title><g id="trees"><path class="cls-1" d="M17.42,7.38a26.23,26.23,0,0,1-6.48,12.76c-1.7,1.75-.49,1.32.87.79a9.6,9.6,0,0,0,2.55-1.59,23.26,23.26,0,0,1-2.93,6.44c-1.17,2-3.76,4.39-2,3.65a12.44,12.44,0,0,0,3-1.77s-2,5.54-8.8,10.22c-1.67,1.16.5.88,1.8.61a27.65,27.65,0,0,0,3.73-1.25A7.73,7.73,0,0,1,7.49,39c-1.91,1.72-.09,1.36,1.15,1A21.19,21.19,0,0,0,13.5,38a9.34,9.34,0,0,0,.63,1.36c.49.87,1.18,1.22,1.56-.09a5.93,5.93,0,0,1,.77-1.92,5.49,5.49,0,0,0,2.87,2.43c1,.43,3.71,1.12,2.93,0a4.63,4.63,0,0,1-1.12-2.71A10.38,10.38,0,0,0,24.68,39c2.32.72,4.61.72,3.46-.11a4.49,4.49,0,0,1-1.82-1.92,23.84,23.84,0,0,0,5.73,1.16c1.54.18.78-.53-.52-1.2a25.16,25.16,0,0,1-7.34-5.44A19.37,19.37,0,0,0,27,32.65c1.23.38.66-.32-1.16-2.53-1.6-1.94-4.41-6.18-4.48-7.59,0,0,1,.41,1.21.49,3.59,1.28,2.34.23.36-2.4-3.78-5-3.64-8.6-4.63-12.31C17.9,6.75,17.8,5.58,17.42,7.38Z"/><path class="cls-2" d="M12.84,31s-4.53,5.58-.34,2.28c0,0-2.87,7.85,2.39.11,0,0,2.07,5.64,1.82,0,0,0,4.61,7.47,2.78,1.55,0,0,3.49,3.17.66-2.47,0,0,3.15,4.53,2.31.81,0,0,.81,3.39-2.61-1.29,0,0,2.53,5.43-.5,2.73,0,0,1.91,5.66-2.83-1.92,0,0,.6,5.86-1.63.22,0,0-5,7.81-2.15,0C12.74,33,9,36.11,12.84,31Z"/><path class="cls-2" d="M21.38,22.53A8.58,8.58,0,0,1,19.72,21s2.11,4.73,0,2.19c0,0-.16,5.28-1.3-1.24,0,0-1.48,4.8-1.72.41,0,0-1.64,3.19-.55-1.14,0,0-2,2.6,0-1.53,0,0-1.84,3.56.11,1.4,0,0-1.07,3.53.49,1.11,0,0,.09,4.38,1.7-.6,0,0,.93,6.13,1.22,1.36,0,0,1.8,2.7-.18-2.35A11.26,11.26,0,0,0,21.38,22.53Z"/><path class="cls-1" d="M9.62,44.45a15.16,15.16,0,0,1-3.74,7.37c-1,1-.28.76.5.45a5.22,5.22,0,0,0,1.47-.92,13.53,13.53,0,0,1-1.69,3.73C5.48,56.21,4,57.61,5,57.19a7.61,7.61,0,0,0,1.73-1,13.85,13.85,0,0,1-5.08,5.9c-1,.67.29.51,1,.35a15.94,15.94,0,0,0,2.15-.72,4.36,4.36,0,0,1-.94,1c-1.11,1-.06.78.66.58a12.83,12.83,0,0,0,2.81-1.12,5.75,5.75,0,0,0,.36.78c.28.5.68.71.9,0a3.08,3.08,0,0,1,.45-1.11,3.1,3.1,0,0,0,1.66,1.4c.55.25,2.14.65,1.69,0a2.71,2.71,0,0,1-.65-1.57,6,6,0,0,0,2,1.09c1.34.42,2.67.42,2-.06a2.61,2.61,0,0,1-1.05-1.11,13.53,13.53,0,0,0,3.31.67c.89.1.45-.31-.3-.69a14.65,14.65,0,0,1-4.24-3.15,10.89,10.89,0,0,0,1.63.7c.72.22.39-.18-.66-1.46C13.57,56.46,12,54,11.91,53.2l.7.28c2.07.74,1.35.13.21-1.38-2.19-2.91-2.11-5-2.68-7.12C9.9,44.08,9.84,43.41,9.62,44.45Z"/><path class="cls-2" d="M7,58.08s-2.62,3.22-.2,1.31c0,0-1.66,4.54,1.38.07,0,0,1.19,3.26,1.05,0,0,0,2.66,4.31,1.61.89,0,0,2,1.83.38-1.43,0,0,1.82,2.62,1.33.47,0,0,.47,2-1.51-.74,0,0,1.46,3.13-.28,1.57,0,0,1.1,3.27-1.64-1.11,0,0,.35,3.39-.94.13,0,0-2.87,4.51-1.24,0C6.92,59.25,4.76,61,7,58.08Z"/><path class="cls-2" d="M11.91,53.2a4.84,4.84,0,0,1-1-.92s1.22,2.74,0,1.27c0,0-.09,3.05-.75-.72,0,0-.86,2.78-1,.24,0,0-1,1.84-.32-.66,0,0-1.17,1.51,0-.88,0,0-1.07,2,.06.81,0,0-.62,2,.28.64,0,0,.06,2.53,1-.35,0,0,.54,3.54.71.78,0,0,1,1.57-.11-1.35A6.7,6.7,0,0,0,11.91,53.2Z"/><path class="cls-1" d="M44.69,2.69a32.42,32.42,0,0,1-8,15.79c-2.11,2.17-.6,1.64,1.09,1a11.47,11.47,0,0,0,3.15-2s-.56,2.82-3.63,8c-1.45,2.43-4.65,5.44-2.51,4.52a15.73,15.73,0,0,0,3.72-2.19S36,34.64,27.57,40.44c-2.06,1.43.63,1.09,2.23.75a33.4,33.4,0,0,0,4.62-1.55,9.33,9.33,0,0,1-2,2.16C30,43.93,32.29,43.48,33.82,43a26.33,26.33,0,0,0,6-2.4,12.5,12.5,0,0,0,.78,1.68c.61,1.08,1.46,1.51,1.93-.11a6.91,6.91,0,0,1,1-2.38,6.77,6.77,0,0,0,3.55,3c1.19.53,4.59,1.39,3.63-.05a5.71,5.71,0,0,1-1.39-3.36,12.8,12.8,0,0,0,4.37,2.33c2.88.9,5.72.89,4.29-.14a5.58,5.58,0,0,1-2.25-2.37,29.41,29.41,0,0,0,7.09,1.43c1.91.23,1-.65-.64-1.47a31.47,31.47,0,0,1-9.09-6.75A25.07,25.07,0,0,0,56.56,34c1.53.46.83-.4-1.42-3.13-2-2.41-5.47-7.66-5.55-9.4l1.49.61c4.44,1.58,2.9.28.45-3C46.85,12.84,47,8.43,45.79,3.84,45.28,1.91,45.15.46,44.69,2.69Z"/><path class="cls-2" d="M39,31.9s-5.62,6.9-.42,2.82c0,0-3.56,9.71,2.95.14,0,0,2.56,7,2.26,0,0,0,5.7,9.25,3.44,1.92,0,0,4.32,3.92.81-3.05,0,0,3.91,5.6,2.86,1,0,0,1,4.19-3.23-1.59,0,0,3.13,6.71-.61,3.36,0,0,2.36,7-3.51-2.37,0,0,.74,7.26-2,.28,0,0-6.15,9.67-2.66,0C38.89,34.41,34.27,38.24,39,31.9Z"/><path class="cls-2" d="M49.59,21.44a10.49,10.49,0,0,1-2.06-2s2.61,5.86,0,2.71c0,0-.19,6.54-1.61-1.53,0,0-1.83,5.94-2.13.51,0,0-2,3.94-.68-1.42,0,0-2.51,3.23,0-1.89,0,0-2.28,4.4.13,1.74,0,0-1.32,4.37.61,1.36,0,0,.11,5.43,2.1-.73,0,0,1.15,7.58,1.51,1.67,0,0,2.23,3.35-.22-2.9A13.57,13.57,0,0,0,49.59,21.44Z"/><path class="cls-1" d="M30.33,11.41a29,29,0,0,1-7.16,14.08c-1.88,1.94-.53,1.46,1,.87A10.31,10.31,0,0,0,27,24.61s-.5,2.52-3.24,7.11c-1.29,2.16-4.15,4.85-2.24,4a14.4,14.4,0,0,0,3.32-2s-2.24,6.11-9.73,11.28c-1.84,1.28.56,1,2,.67a30.15,30.15,0,0,0,4.12-1.38,8.52,8.52,0,0,1-1.8,1.93c-2.12,1.9-.1,1.49,1.27,1.1A24,24,0,0,0,26,45.26a10.52,10.52,0,0,0,.69,1.5c.54,1,1.31,1.34,1.73-.1a6.23,6.23,0,0,1,.84-2.12,6.08,6.08,0,0,0,3.18,2.68c1.06.47,4.09,1.24,3.23,0a5,5,0,0,1-1.23-3,11.3,11.3,0,0,0,3.89,2.08c2.57.8,5.1.79,3.82-.12a5,5,0,0,1-2-2.12,26.21,26.21,0,0,0,6.33,1.28c1.69.2.86-.59-.58-1.32a27.92,27.92,0,0,1-8.11-6,22.79,22.79,0,0,0,3.13,1.34c1.36.41.73-.36-1.27-2.8-1.77-2.14-4.88-6.82-4.95-8.38l1.33.55c4,1.4,2.58.25.4-2.65-4.18-5.56-4-9.5-5.12-13.6C30.85,10.71,30.74,9.42,30.33,11.41Z"/><path class="cls-2" d="M25.27,37.46s-5,6.16-.38,2.52c0,0-3.17,8.66,2.64.12,0,0,2.28,6.23,2,0,0,0,5.09,8.25,3.07,1.72,0,0,3.85,3.49.73-2.73,0,0,3.48,5,2.55.89,0,0,.89,3.74-2.88-1.42,0,0,2.79,6-.55,3,0,0,2.11,6.25-3.13-2.12,0,0,.66,6.47-1.8.25,0,0-5.49,8.62-2.38,0C25.15,39.7,21,43.12,25.27,37.46Z"/><path class="cls-2" d="M34.7,28.13a9.23,9.23,0,0,1-1.83-1.74s2.32,5.22,0,2.42c0,0-.18,5.83-1.44-1.37,0,0-1.64,5.3-1.9.45,0,0-1.81,3.52-.6-1.26,0,0-2.24,2.88,0-1.69,0,0-2,3.93.12,1.55,0,0-1.18,3.9.54,1.22,0,0,.1,4.84,1.87-.65,0,0,1,6.76,1.36,1.49,0,0,2,3-.21-2.59A12,12,0,0,0,34.7,28.13Z"/></g></svg>