<svg xmlns="http://www.w3.org/2000/svg" xmlns:xlink="http://www.w3.org/1999/xlink" viewBox="0 0 1334.33 361.61" width="1334.33" height="361.61" preserveAspectRatio="none"><defs><style>.cls-1{fill:url(#linear-gradient);}</style><linearGradient id="linear-gradient" x1="667.31" y1="1.83" x2="664.42" y2="287.38" gradientUnits="userSpaceOnUse"><stop offset="0" stop-color="#56b0a5"/><stop offset="0.58" stop-color="#439489"/><stop offset="1" stop-color="#398479"/></linearGradient></defs><title>Home_Map_Screen_new</title><g id="more_BG_hills" data-name="more BG hills"><path class="cls-1" d="M1312.65,197.35c-14-39.32-36.85-108.25-64.94-56.52-18.48,34-34.28-97.71-92.64-101.52-49.35-3.23-90.7,85.93-132.51,152.48-20.18,32.15-40.63,50.08-55.19,16.18-30-69.75-60.59-18.67-69.58-8.07s-26.8-1.13-40.6-22.84C830.66,135.32,798,204,785,222.39c-10.79,15.2-20.18-14.3-45.85-14.84-39.14-.81-42.4,40.77-98.6,44.1-6.72.4-19.43-42.88-57.07-45.1C565,205.47,552,225.64,543,225.64c-10.17,0-17-49.15-33.84-49.15-19.07,0-18.58,26-32.09,7.09-23.69-33.16-29.33-77.66-58.76-32-10.92,16.93-18.64,36.5-35.57,21.8-12.13-10.53-33.64-56.47-70.68-9.86-14.44,18.18-29.82,3.53-40.23-22.12C260.61,113.82,239,20.79,166,101.23c-18.57,20.45-31.55,9.43-41.51-12.77-46.69-104.1-109-71.2-109-71.2l-.94,276.25H515.21s6.55-.73,14.63-2l203.93,39.63,576.54,16S1322.66,225.48,1312.65,197.35Z"/></g></svg>