<svg xmlns="http://www.w3.org/2000/svg" xmlns:xlink="http://www.w3.org/1999/xlink" viewBox="0 0 1324.77 439.44" width="1324.77" height="439.44" preserveAspectRatio="none"><defs><style>.cls-1{fill:url(#linear-gradient);}.cls-2{fill:#f3f5ff;}</style><linearGradient id="linear-gradient" x1="665.95" y1="434.62" x2="665.95" y2="156.34" gradientUnits="userSpaceOnUse"><stop offset="0" stop-color="#fff"/><stop offset="0.32" stop-color="#cee8f5"/><stop offset="0.61" stop-color="#a7d5ed"/><stop offset="0.85" stop-color="#90cae9"/><stop offset="1" stop-color="#87c6e7"/></linearGradient></defs><title>Home_Map_Screen_new</title><g id="mountains"><polygon class="cls-1" points="1312.81 96.19 1230.07 59.65 1079.35 108.82 954.97 30.69 745.89 154.15 572.88 76.52 471.95 113.12 186.92 8.87 60.14 77.94 19.1 71.75 22.69 431.11 1304.6 411.08 1312.81 96.19"/><path class="cls-2" d="M186.92,8.87,114.48,48.36S88,80,147.14,55c0,0-48.48,85.74,24,10.76,0,0,5.67,70.49,31.53-8.58,0,0,107.65,121.1,47.69,7.88,0,0,93.91,52.56,25.11-11.67,0,0,62.07,17.29,62.42,10.7Z"/><path class="cls-2" d="M572.88,76.52l-185,67.22s-4.89,9.41,88.74-9.18c0,0-22.85,32,37.39,13.7,0,0-3.74,107.45,61-2.27,0,0,37.93,102.5,44.68.86,0,0,158.89,86.52,82.41,7.6,0,0,35.94,10.09,35.17-4.19Z"/><path class="cls-2" d="M955,30.69l-96.5,56.9s-17.43,11.15,39.19-2c0,0-96.26,87.78,23.3,23.48,0,0-.37,61.23,45.31-9.75,0,0,30.65,66.74,52.48,2.58,0,0,44.37,32.43,37.2,5.13,0,0,76.76,26.75,52.06,12.14Z"/><path class="cls-2" d="M1172.81,78.32l56.68-18.93,81.18,35.84s3.69,9.69-40.43-7.32c0,0,27.77,25.54-18.25,5.3,0,0,2.78,43.36-26.67.39,0,0-50,59-19-10.79,0,0-39.82,28.44-21.38-.19C1184.91,82.62,1155.67,86.28,1172.81,78.32Z"/></g></svg>