<svg xmlns="http://www.w3.org/2000/svg" viewBox="0 0 53.65 79.46" width="53.65" height="79.46" preserveAspectRatio="none"><defs><style>.cls-1{fill:#ff64ff;}.cls-2{fill:#4d4d99;}</style></defs><title>Home_Map_Screen_new</title><g id="Layer_13" data-name="Layer 13"><path class="cls-1" d="M51.53,57.93c-4.76-4.52-22-1-22-1,20.06-9.63,23.9-17.5,17.07-21.48-15-8.75-29.16,11.38-29.16,11.38,9.41-49.54-7-48-12.31-44.75A14.24,14.24,0,0,0,1.16,5.79L.86,74.07C3.8,72.66,6,71.54,6,71.54c14.7,8.11,24.67,8,26.51,6.23,3.37-3.26-6.54-8.89-6.54-8.89C50,73.74,55.8,62,51.53,57.93Z"/><path class="cls-2" d="M5.68,71.4S3.78,36.56,9.27,7.63c0,0-4.76,53.63-2.93,63.84Z"/><path class="cls-2" d="M5.89,70.84s5.48-24.68,35.92-31.26c0,0-26.26,4.94-35.47,31.89Z"/><path class="cls-2" d="M6.18,70.61S22.34,56,48.39,61.18c0,0-25.76-4-42.12,10Z"/><path class="cls-2" d="M7.68,69.74s8.68-5.55,21.52,5.15c0,0-12.44-10.38-22.5-4.21Z"/><path class="cls-2" d="M5.68,70.16C4,68.57,2.34,66.91.77,65.2v1.08c3,3.11,5,4.77,5,4.77Z"/><path class="cls-2" d="M5.46,70.36a23.44,23.44,0,0,0-4.63.51v.39A15.68,15.68,0,0,1,6.07,71Z"/><path class="cls-2" d="M1.12,48.54c0,.18,0,.36,0,.54a26.76,26.76,0,0,0,4.43,5.28V53.2A42.92,42.92,0,0,1,1.12,48.54Z"/><path class="cls-2" d="M5.85,53a42.19,42.19,0,0,0,7.89-7.36s-1.11,3-7.62,8.31Z"/><path class="cls-2" d="M1.28,37.05v.5a27,27,0,0,0,4.6,5.55V41.94A42,42,0,0,1,1.28,37.05Z"/><path class="cls-2" d="M6.19,41.78a42.19,42.19,0,0,0,7.89-7.36s-1.11,3-7.62,8.31Z"/><path class="cls-2" d="M.89,23.05v.15a27.84,27.84,0,0,0,5.78,7.62V29.65A36,36,0,0,1,.89,23.05Z"/><path class="cls-2" d="M7,29.49a42.13,42.13,0,0,0,7.89-7.36s-1.11,3-7.63,8.32Z"/><path class="cls-2" d="M7.89,17.31s-4.77-4.23-6.3-7.57a26.83,26.83,0,0,0,6.3,8.74Z"/><path class="cls-2" d="M8.21,17.16A42.53,42.53,0,0,0,16.1,9.8S14.73,13,8.22,18.33Z"/><path class="cls-2" d="M32.36,42.6A18.48,18.48,0,0,1,36,37.31s-2.13.79-4.07,5.48Z"/><path class="cls-2" d="M32.61,42.67a18.75,18.75,0,0,0,6.12,1.91s-2.17.7-6.59-1.8Z"/><path class="cls-2" d="M26.57,45.47a18.63,18.63,0,0,1,3.63-5.29s-2.13.79-4.07,5.49Z"/><path class="cls-2" d="M26.82,45.54a18.6,18.6,0,0,0,6.12,1.92s-2.17.69-6.59-1.81Z"/><path class="cls-2" d="M19.23,51.23a23.38,23.38,0,0,1,3.18-7.36S20,45.36,18.75,51.58Z"/><path class="cls-2" d="M19.56,51.26a23.37,23.37,0,0,0,8,.87S25,53.5,19,51.51Z"/><path class="cls-2" d="M12.56,58.2a26.38,26.38,0,0,1,1.49-8.87s-2.24,2.26-1.92,9.38Z"/><path class="cls-2" d="M12.92,58.14A26.41,26.41,0,0,0,21.84,57s-2.34,2.16-9.44,1.6Z"/><path class="cls-2" d="M38.86,60.2A11.48,11.48,0,0,1,44.59,57a14,14,0,0,0-5.27,3.3Z"/><path class="cls-2" d="M39.54,60.57a15.13,15.13,0,0,0,5.6,4.25s-4.59-1.63-6.25-4.15Z"/><path class="cls-2" d="M31.32,60.51a11.54,11.54,0,0,1,5.73-3.17,14,14,0,0,0-5.27,3.3Z"/><path class="cls-2" d="M32,60.88a15.25,15.25,0,0,0,5.6,4.25S33,63.5,31.35,61Z"/><path class="cls-2" d="M23,62.19a11.39,11.39,0,0,1,4.81-4.82,13.85,13.85,0,0,0-4.33,4.86Z"/><path class="cls-2" d="M23.79,62.46A15.9,15.9,0,0,0,30.35,66s-4.91-.83-7.17-3.3Z"/><path class="cls-2" d="M24.78,71.84a11,11,0,0,0,.71,4.31,7.8,7.8,0,0,1-1.11-4.53Z"/><path class="cls-2" d="M24.79,71.74a10.22,10.22,0,0,1,4.07.74,6.16,6.16,0,0,0-4.65-.92Z"/><path class="cls-2" d="M19.12,69.46a10.58,10.58,0,0,0,1.1,5.14s-1.47-1.2-1.5-5.27Z"/><path class="cls-2" d="M19.09,69.38a10.64,10.64,0,0,1,5-1.55s-1.77-.7-5.33,1.26Z"/><path class="cls-2" d="M13.54,68.51A10.55,10.55,0,0,0,16,73.15s-1.75-.75-2.9-4.64Z"/><path class="cls-2" d="M13.5,68.59a10.58,10.58,0,0,1,4.4-2.87s-1.89-.19-4.78,2.67Z"/></g></svg>