<svg xmlns="http://www.w3.org/2000/svg" viewBox="0 0 268 276" width="268" height="276" preserveAspectRatio="none"><defs><style>.cls-1{fill:#dead88;}.cls-2{fill:#ffe7c6;}.cls-3{fill:#a8e0f9;}.cls-4{fill:#e8f8ff;}.cls-5{fill:#7e3e21;}.cls-6{fill:#b37c59;}.cls-7{fill:#7a645d;}.cls-8{fill:#ed1941;}.cls-9{fill:#f3f3f3;}.cls-10{fill:#8b172c;}.cls-11{fill:#b9b9b9;}.cls-12{fill:#d49839;}.cls-13{fill:#aa5b2b;}.cls-14{fill:#662614;}.cls-15{fill:#a65928;}.cls-16{fill:#156a44;}.cls-17{fill:#ed8483;}.cls-18{fill:#09463d;}.cls-19{fill:#0b8855;}</style></defs><title>Theater_Text_</title><g id="theater"><polygon class="cls-1" points="177.84 27.73 139.01 13.59 105.43 25.55 104.27 25.52 104.24 25.97 102.22 26.69 104.2 26.72 103.8 34.15 172.78 35.19 172.51 27.66 177.84 27.73"/><polygon class="cls-1" points="20.07 38.99 29.07 269.56 242.17 270.83 253.83 38.55 20.07 38.99"/><polygon class="cls-2" points="173.4 53.53 173.24 32.24 137.36 20.56 102.84 31.74 104.04 51.07 44.52 50.98 45.87 236.68 226.73 233.63 233.44 53.77 173.4 53.53"/><polygon class="cls-3" points="54.99 79.63 54.9 126.14 79.5 124.93 81.54 79.23 54.99 79.63"/><polygon class="cls-4" points="55.79 81.83 80.98 96.75 80.66 98.76 55.5 85.37 55.79 81.83"/><polygon class="cls-4" points="56 87.72 79.96 99.77 80.07 100.68 55.85 89 56 87.72"/><polygon class="cls-4" points="55.47 106.08 79.8 119.03 79.43 122.86 55.61 112.8 55.47 106.08"/><polygon class="cls-4" points="72.83 124.63 54.98 117.99 55.38 119.44 71.84 124.92 72.83 124.63"/><path class="cls-5" d="M52.8,78l.8,49.55,28.25-1.64.93-48.51ZM80,91.21l-11.07-.08-.41-10.35,11.93-.18ZM56.27,93l10.84,0,.57,9.94-11.43.36Zm13.11,9.9L69,93.05l10.93,0-.4,9.53Zm-3-22.11L67,91.12l-10.73-.07V81ZM56.23,125.13l0-19.63,23.13.59L78.63,124Z"/><polygon class="cls-6" points="49.64 78.34 68.43 65.54 86 77.88 49.64 78.34"/><polygon class="cls-3" points="196.84 75.06 194.5 123.9 222.82 123.84 224.19 75.12 196.84 75.06"/><polygon class="cls-4" points="197.22 76.36 223.47 91.63 223.42 93.97 196.91 80.31 197.22 76.36"/><polygon class="cls-4" points="196.98 82.02 223.35 95.35 222.94 95.55 196.81 82.9 196.98 82.02"/><polygon class="cls-4" points="196.41 101.48 222.95 118.03 222.63 122.06 195.06 108.95 196.41 101.48"/><polygon class="cls-4" points="195.32 116.1 210.25 123.98 209.2 124.11 195.57 117.48 195.32 116.1"/><path class="cls-5" d="M194.37,73.43l-1.51,51.3,31.51,1.48,1.06-52.56ZM222.7,99.25l-12.12.12.15-10.71L223,88.35ZM197.11,89l12.11-.3-.62,10.69-12,.12ZM223,86.91,210.75,87,210.91,76l12.42,0ZM210,76l-.64,11.1-12.13.12.53-11.25Zm-14.42,46.72,1-20.32h26.12l-.55,20.28Z"/><polygon class="cls-6" points="191.83 74.1 228.64 74.15 211.31 64.5 191.83 74.1"/><polygon class="cls-1" points="88.23 9.64 89.44 150.48 103.41 147.62 104.65 10.23 88.23 9.64"/><polygon class="cls-1" points="171.18 8.88 173.27 147.85 186.81 151.63 187.1 8.48 171.18 8.88"/><polygon class="cls-7" points="97.05 67.78 64.33 135.64 68.56 134.34 97.79 69.05 97.05 67.78"/><polygon class="cls-7" points="177.98 66.31 207.29 137.9 211.07 139.22 179.42 66.94 177.98 66.31"/><polygon class="cls-7" points="95.19 65.1 94.81 71.98 98.84 72.64 98.46 64.61 95.19 65.1"/><polygon class="cls-7" points="177.33 63.44 177.48 70.7 181.28 70.53 181.03 62.49 177.33 63.44"/><polygon class="cls-8" points="45.13 139.68 137.61 116.77 230.36 137.99 228.44 188.59 45.48 192.54 45.13 139.68"/><polygon class="cls-9" points="49.94 141.82 130.51 125.34 128.9 175.06 48.99 184.41 49.94 141.82"/><polygon class="cls-9" points="144.4 124.32 145.13 173.75 223.26 181.68 223.11 142.15 144.4 124.32"/><polygon class="cls-10" points="85.15 3.75 85.74 12.76 107.16 12.17 107 3.93 85.15 3.75"/><polygon class="cls-10" points="167.91 1.86 168.07 9.94 188.64 10.99 188.61 3.21 167.91 1.86"/><polygon class="cls-10" points="103.03 22.25 138.94 9.63 173.13 23.75 173.25 26.74 138.32 14.21 103.49 26.55 103.03 22.25"/><polygon class="cls-10" points="15.52 33.26 92.5 35.23 93.08 43.24 16.59 44.16 15.52 33.26"/><polygon class="cls-10" points="182.64 33.91 182.86 44.53 258.38 46.85 258.61 35.58 182.64 33.91"/><polygon class="cls-8" points="26.43 44.01 27.75 34.62 29.72 43.99 26.43 44.01"/><polygon class="cls-8" points="49.36 35.15 47.74 43.77 51.07 43.76 49.36 35.15"/><polygon class="cls-8" points="71.68 35.99 70.8 43.52 73.21 43.47 71.68 35.99"/><polygon class="cls-1" points="41.06 56.52 93.75 56.1 93.41 58.89 41.62 58.09 41.06 56.52"/><polygon class="cls-1" points="104.11 39.52 137.2 26.53 173.79 37.04 173.57 39.03 137.24 28.49 103.51 42.44 104.11 39.52"/><polygon class="cls-1" points="185.47 59.26 235.67 59.82 235.58 61.67 185.64 60.97 185.47 59.26"/><polygon class="cls-3" points="117.57 52.77 116.67 107.58 161.26 109.15 160.89 53.28 117.57 52.77"/><polygon class="cls-4" points="117.86 54.45 160.54 73.29 160.6 76.13 117.89 58.8 117.86 54.45"/><polygon class="cls-4" points="117.92 60.25 160.71 78.44 160.27 79.78 159.11 79.63 117.99 60.88 117.92 60.25"/><polygon class="cls-4" points="117.62 82.5 161.21 103.46 160.75 106.37 117.46 88.65 117.62 82.5"/><polygon class="cls-4" points="131.22 81.42 160.62 91.31 160.6 90.2 135.56 81.21 131.22 81.42"/><polygon class="cls-4" points="116.74 96.2 143.61 106.89 142.7 107.66 117.24 98.16 116.74 96.2"/><path class="cls-5" d="M115.6,51.11l-1.75,58.42,49.31.76-.89-58.07Zm2.85,15.45,7.89,0,0,11.75-8-.18Zm32,12.31-10.15-.23-.1-12,10.36,0Zm1.27-12.15,8.24,0,.08,12.32-8.25-.18ZM140.2,65.18l-.09-11.39,10.59.12-.11,11.44Zm-2.85-.05L127.66,65l.11-11.32,10,.12Zm-.07,1.52-.49,11.92-9.26-.21.11-11.76ZM118.2,82.23l8.07,0,0,11.54L118,93.73Zm9.29,0,9.14,0-.48,11.58-8.77-.08Zm8.6,13.15-.45,10.86-8.38-.29.11-10.73Zm4.36.08,9.84.19-.1,11.1-9.65-.34Zm0-1.58-.1-11.59,10.08,0L150.31,94Zm11.38-11.54,8.25,0,.08,11.68L151.88,94ZM160,65.51l-8.23-.14-.06-11.44,8.22.09ZM126.4,53.63l-.05,11.31-7.87-.13.19-11.27ZM118,95.09l8.23.15,0,10.71-8.36-.3Zm34,11.77-.06-11.14,8.27.15.07,11.28Z"/><polygon class="cls-6" points="108.59 51.92 138.23 35.53 168.95 52.55 108.59 51.92"/><polygon class="cls-2" points="116.15 50.34 138.97 38.97 161.21 49.91 116.15 50.34"/><polygon class="cls-8" points="245.57 46.45 244.24 37.19 242.13 46.35 245.57 46.45"/><polygon class="cls-8" points="222.64 37.33 224.21 45.8 220.84 45.7 222.64 37.33"/><polygon class="cls-8" points="200.38 37.82 201.21 45.09 198.78 45.01 200.38 37.82"/><polygon class="cls-10" points="45.45 189.78 138.63 178.79 228.58 185.37 228.44 188.59 45.48 192.54 45.45 189.78"/><polygon class="cls-8" points="91.64 4.89 90 12.64 93.34 12.62 91.64 4.89"/><polygon class="cls-8" points="102.1 4.85 101.22 12.38 103.63 12.33 102.1 4.85"/><polygon class="cls-8" points="173.55 3.02 171.38 10.12 174.71 10.33 173.55 3.02"/><polygon class="cls-8" points="183.96 3.82 182.57 10.69 184.98 10.82 183.96 3.82"/><polygon class="cls-11" points="49.77 148.09 130.32 130.92 130.32 131.69 49.8 148.47 49.77 148.09"/><polygon class="cls-11" points="49.59 156 130.05 139.23 130.07 140.03 49.58 156.46 49.59 156"/><polygon class="cls-11" points="49.41 164.04 129.76 148.41 129.75 149.22 49.42 164.64 49.41 164.04"/><polygon class="cls-11" points="49.29 172.26 129.5 157.99 129.5 158.79 49.3 172.68 49.29 172.26"/><polygon class="cls-11" points="49.09 180.19 129.15 167.58 129.14 168.38 49.04 180.7 49.09 180.19"/><polygon class="cls-11" points="223.1 146.45 144.47 129.51 144.49 130.27 223.14 146.8 223.1 146.45"/><polygon class="cls-11" points="223.13 154.35 144.6 137.78 144.61 138.54 223.17 154.76 223.13 154.35"/><polygon class="cls-11" points="223.17 162.19 144.73 146.84 144.75 147.57 223.2 162.73 223.17 162.19"/><polygon class="cls-11" points="223.22 170.53 144.87 156.41 144.88 157.14 223.21 170.82 223.22 170.53"/><polygon class="cls-11" points="223.23 178.45 144.99 165.97 145.02 166.74 223.27 178.81 223.23 178.45"/><polygon class="cls-5" points="219.49 270.69 221.12 212.46 167.01 211.85 167.51 270.44 219.49 270.69"/><polygon class="cls-3" points="173.14 216.14 174.26 264.09 192.97 264.23 193.13 216.56 173.14 216.14"/><polygon class="cls-3" points="195.44 216.63 196.09 264.64 212.65 264.93 212.98 217.2 195.44 216.63"/><polygon class="cls-4" points="174.59 219.51 212.07 240.39 212.14 243.33 174.72 225.48 174.59 219.51"/><polygon class="cls-4" points="211.79 246.68 174.32 227.87 174.72 230.39 212 247.94 211.79 246.68"/><polygon class="cls-4" points="174.72 248.31 208.44 263.88 206.13 264.02 174.85 250.56 174.72 248.31"/><path class="cls-5" d="M219,210.19l-48.85-1.29s8.79-13.5,24.42-13.07C194.53,195.83,212.15,195.22,219,210.19Z"/><path class="cls-12" d="M215,214.54l-43.67-.62.88,56.54,43,.22Zm-3.39,3.5-.17,27.1-14.52.05-.34-27.69Zm-19.48,30v3.76l-16.7.11-.09-4Zm-16.81-.59,0-1.58h16.85v1.55ZM197,248l14.46.07,0,3.53-14.4.1Zm14.47-.68-14.48,0,0-1.54h14.51Zm-19.2-30.13-.09,28-16.86,0-.6-28.44Zm-16.57,46-.22-10.42,16.68-.2,0,10.76Zm21.48.14L197,252.5l14.39-.17-.07,11.25Z"/><polygon class="cls-13" points="193.65 214.23 194.36 270.59 194.72 270.59 194.42 214.22 193.65 214.23"/><path class="cls-8" d="M214.79,208.41l-38.68-1s7-10.06,19.34-9.74C195.45,197.71,209.5,197.81,214.79,208.41Z"/><path class="cls-12" d="M178.22,205l8.24,2.7-6.12-4.61A20.84,20.84,0,0,0,178.22,205Z"/><path class="cls-12" d="M193.09,197.77l1.6,10.15,2.12-10.14A23.69,23.69,0,0,0,193.09,197.77Z"/><path class="cls-12" d="M188.37,198.69l2.4,9.15L185.1,200A21.85,21.85,0,0,1,188.37,198.69Z"/><path class="cls-12" d="M202.59,198.92,198.76,208l6.71-8A21.36,21.36,0,0,0,202.59,198.92Z"/><path class="cls-12" d="M209.15,202l-5.5,6.14,7.53-4.51A16,16,0,0,0,209.15,202Z"/><polygon class="cls-5" points="112.86 260.17 157.96 260.91 158.84 212.22 111.32 211.72 112.86 260.17"/><path class="cls-5" d="M158,209.32l-46.13-.71S120,195,134.77,195.25C134.77,195.25,151.52,195.18,158,209.32Z"/><polygon class="cls-3" points="114.14 215.94 124.03 215.94 123.94 245.67 116.38 245.5 114.14 215.94"/><polygon class="cls-3" points="124.85 216.34 124.36 245.7 147.38 245.87 146.06 216.85 124.85 216.34"/><polygon class="cls-3" points="147.05 216.51 155.01 216.34 154.27 245.87 147.92 245.7 147.05 216.51"/><polygon class="cls-4" points="114.27 217.27 154.68 235.25 154.42 237.11 114.34 221.18 114.27 217.27"/><polygon class="cls-4" points="114.8 222.78 154.35 238.3 154.28 239.63 114.74 223.97 114.8 222.78"/><polygon class="cls-4" points="115.47 232.46 153.75 245.27 151.83 245.2 115.73 234.25 115.47 232.46"/><path class="cls-12" d="M113.57,215.3l1.08,33.21,40.58.4,1-33.56Zm9.65,29.64-6.61-.17-2-28.23h8.64Zm1.65,0,.47-28.08,20.25.49,1.27,27.75Zm29,.16-5.38-.16-.74-27.59,6.76-.16Z"/><path class="cls-13" d="M142.17,248.79l0-.22a1.92,1.92,0,0,0-1.43-1.93l-10-.26a1.78,1.78,0,0,0-1.47,1.85,2,2,0,0,0,0,.43Z"/><path class="cls-12" d="M138.09,238.85a2.39,2.39,0,0,1-2.44,2.18,2.42,2.42,0,0,1,0-4.84A2.57,2.57,0,0,1,138.09,238.85Z"/><polygon class="cls-13" points="135.57 236.66 135.61 240.56 135.89 240.54 135.83 236.67 135.57 236.66"/><polygon class="cls-13" points="134.88 236.94 134.97 240.34 134.74 240.23 134.68 237.02 134.88 236.94"/><polygon class="cls-13" points="134.13 237.46 134.1 239.88 133.95 239.78 133.99 237.56 134.13 237.46"/><polygon class="cls-13" points="136.44 236.86 136.54 240.42 136.74 240.28 136.57 236.96 136.44 236.86"/><polygon class="cls-13" points="137.24 237.51 137.19 239.83 137.37 239.56 137.37 237.62 137.24 237.51"/><path class="cls-8" d="M151,207.6l-33.4-.51s5.91-9.85,16.6-9.68C134.21,197.41,146.34,197.36,151,207.6Z"/><path class="cls-12" d="M119.5,204.57l6.88,2.65-4.94-4.62A21.55,21.55,0,0,0,119.5,204.57Z"/><path class="cls-12" d="M132.58,197.47l1.22,9.86,2-9.82A15.22,15.22,0,0,0,132.58,197.47Z"/><path class="cls-12" d="M128.45,198.32l1.82,9-4.68-7.69A17.28,17.28,0,0,1,128.45,198.32Z"/><path class="cls-12" d="M140.81,198.64l-3.26,8.74,5.66-7.72A16.11,16.11,0,0,0,140.81,198.64Z"/><path class="cls-12" d="M146.51,201.78,142,207.46l6.13-4.21A14.22,14.22,0,0,0,146.51,201.78Z"/><polygon class="cls-14" points="114.88 258.77 114.63 250.66 123.5 250.66 123.62 258.77 122.94 258.52 122.64 251.37 115.96 251.6 115.37 258.33 114.88 258.77"/><polygon class="cls-14" points="126.92 250.84 126.63 258.58 127.21 258.33 127.39 251.46 143.84 251.72 144.28 258.02 144.8 258.46 144.8 250.78 126.92 250.84"/><polygon class="cls-14" points="147.65 250.84 147.85 258.46 148.33 258.15 148.41 251.96 156.19 251.77 155.51 258.02 156.46 258.52 156.67 250.97 147.65 250.84"/><polygon class="cls-15" points="114.88 258.77 115.37 258.33 122.94 258.52 123.62 258.77 114.88 258.77"/><polygon class="cls-15" points="126.63 258.58 144.8 258.46 144.28 258.02 127.21 258.33 126.63 258.58"/><polygon class="cls-15" points="148.33 258.15 155.51 258.02 156.46 258.52 147.85 258.46 148.33 258.15"/><polygon class="cls-5" points="54.34 269.7 52.92 212.46 104.37 211.85 103.83 270.05 54.34 269.7"/><polygon class="cls-3" points="59.55 215.97 76.16 215.77 76.83 263.4 61.18 263.98 59.55 215.97"/><polygon class="cls-3" points="78.83 215.87 79.26 264.65 96.45 264.65 95.92 216.17 78.83 215.87"/><polygon class="cls-4" points="59.7 219.51 96.33 240.21 96.61 243.93 60.26 226.01 59.7 219.51"/><polygon class="cls-4" points="60.07 228 96.16 246.47 96.16 248.6 59.79 230.13 60.07 228"/><polygon class="cls-4" points="60.7 248.44 91.66 263.72 87.67 263.58 61.11 250.54 60.7 248.44"/><path class="cls-5" d="M54.1,210.19l47.12-1.29s-8.48-13.5-23.56-13.07C77.66,195.83,60.54,196,54.1,210.19Z"/><path class="cls-12" d="M99,214.31l-41.82.23L59,269.73l40.53.31Zm-4.09,3.4.28,27.43-15,.06-.23-27.77ZM61.33,245.83H75.67l0,1.55-14.31,0ZM75.69,248l0,3.78-14.21.1-.13-4Zm4.45,0,15.06.08,0,3.53-15.06.11Zm15-.67-15,0,0-1.54h15Zm-19.9-30,.37,27.88-14.34,0-.89-27.74Zm-13.4,45.86-.33-10.44,14.19-.18.14,10.07Zm18.37-.27-.08-10.4,15.06-.2.11,10.6Z"/><polygon class="cls-13" points="76.96 214.42 77.47 269.87 77.85 269.87 77.61 214.41 76.96 214.42"/><path class="cls-8" d="M60,208.52l35.92-.94s-6.46-9.86-18-9.55C77.93,198,64.88,198.13,60,208.52Z"/><path class="cls-12" d="M61.72,205.63l7.65,2.68-5.8-4.74A11.14,11.14,0,0,0,61.72,205.63Z"/><path class="cls-12" d="M75.4,198.26,77,208.1,78.88,198A20.77,20.77,0,0,0,75.4,198.26Z"/><path class="cls-12" d="M71.08,199.28l2.22,8.87-5.25-7.63A17.59,17.59,0,0,1,71.08,199.28Z"/><path class="cls-12" d="M84.34,198.94,81,208,87,200A25.23,25.23,0,0,0,84.34,198.94Z"/><path class="cls-12" d="M90.45,202.08l-4.59,5.74,6.34-4.3A15.59,15.59,0,0,0,90.45,202.08Z"/><polygon class="cls-1" points="153.86 197.74 153.76 193.79 160.43 193.93 160.53 197.56 153.86 197.74"/><polygon class="cls-2" points="223.91 237.92 224.02 241.86 230.69 241.92 230.6 238.29 223.91 237.92"/><polygon class="cls-2" points="227.69 243.05 227.79 247 234.46 247.05 234.37 243.43 227.69 243.05"/><polygon class="cls-1" points="158.31 202.95 158.2 199.01 164.88 199.15 164.97 202.78 158.31 202.95"/><polygon class="cls-2" points="25.42 106.31 25.52 110.26 32.2 110.31 32.11 106.69 25.42 106.31"/><polygon class="cls-2" points="29.19 111.45 29.3 115.39 35.97 115.45 35.88 111.82 29.19 111.45"/><polygon class="cls-2" points="34.02 106.31 34.12 110.26 40.8 110.31 40.7 106.69 34.02 106.31"/><polygon class="cls-1" points="106.41 114.63 106.31 110.69 112.98 110.83 113.08 114.46 106.41 114.63"/><polygon class="cls-1" points="110.85 119.85 110.75 115.91 117.43 116.05 117.52 119.68 110.85 119.85"/><polygon class="cls-1" points="104.2 199.16 104.09 195.21 110.77 195.35 110.86 198.98 104.2 199.16"/><polygon class="cls-2" points="141.4 263.33 141.5 267.28 148.18 267.34 148.09 263.71 141.4 263.33"/><polygon class="cls-2" points="149.55 263.67 149.66 267.61 156.33 267.67 156.24 264.04 149.55 263.67"/><polygon class="cls-2" points="236.63 65.68 236.73 69.62 243.4 69.68 243.31 66.05 236.63 65.68"/><polygon class="cls-1" points="220.25 133.11 220.14 129.16 226.82 129.31 226.91 132.93 220.25 133.11"/><polygon class="cls-2" points="178.26 99.02 178.37 102.96 185.04 103.02 184.95 99.39 178.26 99.02"/><polygon class="cls-2" points="34.69 243.54 34.79 247.48 41.47 247.54 41.38 243.91 34.69 243.54"/><polygon class="cls-2" points="43.47 243.86 43.58 247.8 50.25 247.86 50.16 244.23 43.47 243.86"/><polygon class="cls-2" points="38.03 259.59 38.13 263.54 44.81 263.59 44.72 259.97 38.03 259.59"/><path class="cls-16" d="M18.74,262.12,18.17,260S1.34,254.5,14,252.34c0,0-11.63-21.5-1.59-15.46,0,0-7-34,2.62-19.1,0,0-.46-24.68,5.91-16.49,0,0,2.73-22.4,6.93,11.48,0,0,8.42-17.51,3.87,13.19,0,0,13-14.44,3.52,16.72,0,0,16-8.76-.56,10.8,0,0,14-1.94-2.28,6.48l-.45,2.27Z"/><polygon class="cls-8" points="16.07 260.22 34.92 259.94 34.65 263.92 33.05 263.94 32.92 272.81 18.82 272.93 18.07 264.37 16.32 264.42 16.07 260.22"/><polygon class="cls-10" points="18.07 264.36 33.05 263.94 32.99 265.36 18.18 265.66 18.07 264.36"/><polygon class="cls-17" points="16.07 260.22 34.92 259.94 34.88 260.5 16.09 260.58 16.07 260.22"/><path class="cls-18" d="M19.07,256.68s-.41-5.31,2.88-1c0,0-1.67-14.1,4.17-5,0,0,2.73-6.7,5.25-6.93,2.22-.21,3.94,2-1,11.9,0,0,3.8-10,2.12-11.1-1.15-.78-3.47-.78-6.29,7.41,0,0-4.56-10.68-4,4.77C22.22,256.68,19.13,252,19.07,256.68Z"/><path class="cls-18" d="M14.55,235.09s-2.46-18.78,4.18-8.29c0,0,2.35-22.33,8,5.6,0,0,4-5.41,4,4.87,0,0-.4-9.32-4.29-3.87,0,0-4.5-26.88-7.46-5.81C18.92,227.59,13.26,217.28,14.55,235.09Z"/><path class="cls-19" d="M22.07,212.1a4.79,4.79,0,0,1-.23,3.68s-2.29-.51-3.08-2.11S19,210,19,210,21.29,210.5,22.07,212.1Z"/><path class="cls-19" d="M25.88,216.06a3.3,3.3,0,0,1-2.45.28,3.17,3.17,0,0,1,1-2.22,3.28,3.28,0,0,1,2.45-.27A3.2,3.2,0,0,1,25.88,216.06Z"/><path class="cls-19" d="M20.29,231.72a4.83,4.83,0,0,0-.91,3.58s2.34.21,3.58-1.08.91-3.58.91-3.58S21.53,230.44,20.29,231.72Z"/><path class="cls-19" d="M25,242.52a4.75,4.75,0,0,0,3.07,1.53,4.82,4.82,0,0,0-.61-3.4,4.68,4.68,0,0,0-3.07-1.53A4.88,4.88,0,0,0,25,242.52Z"/><path class="cls-19" d="M16.59,234.17a3.28,3.28,0,0,0,2.24,1,3.17,3.17,0,0,0-.28-2.42,3.25,3.25,0,0,0-2.24-1A3.15,3.15,0,0,0,16.59,234.17Z"/><path class="cls-16" d="M238.08,261.74l-.71-2.39s-12.81-5.79-12-10.82c0,0,.4-2.61,8.24-1.91,0,0-9.65-16.59-3.32-18.8a4.72,4.72,0,0,1,4.93,1.4s-8.85-28.76,3.52-20.71c0,0,.63-16.4,4.33-16.8,2.35-.25,3.4,1.63,5.33,11.77,0,0,1.39-4.79,3.47-4.37,1.9.38,6.58,5.47,1.45,22.67,0,0,9.56-6.94,1.11,13,0,0,10-10.16,2.21,11,0,0,15.53-4.31-.77,8.56,0,0,5.95,2.56-5,5.74l-.31,1.59Z"/><polygon class="cls-8" points="236.5 259.38 253.5 259.61 253.8 263.15 252.45 263.14 252.13 272.11 238.79 272.35 237.88 263.05 236.4 263.08 236.5 259.38"/><polygon class="cls-10" points="252.45 263.14 237.88 263.05 238.01 264.44 252.35 265.09 252.45 263.14"/><polygon class="cls-17" points="236.5 259.38 253.5 259.54 253.54 260.05 236.49 260.01 236.5 259.38"/><path class="cls-18" d="M235.05,248s-1.33-8-.3-10,4-1.05,5.18,5.1c0,0,4.58-8.39,5.09,5.65,0,0,2.8-3.76,4.53,1.12,0,0-1.48-3.81-5-.61,0,0,.51-13.38-4.68-5.55,0,0-1.62-5.87-3.61-5.94C235.25,237.7,234.13,238.76,235.05,248Z"/><path class="cls-18" d="M253.43,226.59s1.88-3.56-2.65-2.6c0,0,1.78-11.09-2.24-11.14,0,0-3.91-1-3.71,12.21,0,0-4.63-9.05-4.68,7.43,0,0,.56-14.8,4.88-6.51,0,0,.77-12.31,3.41-12,0,0,2.9-.91,2,10.74C250.48,224.76,253.73,222.42,253.43,226.59Z"/><path class="cls-19" d="M249.26,230.83a3.85,3.85,0,0,0-.69,2.85,4,4,0,0,0,2.83-.88,3.85,3.85,0,0,0,.69-2.85A4,4,0,0,0,249.26,230.83Z"/><path class="cls-19" d="M245.44,233a2.61,2.61,0,0,0,1.8.78,2.56,2.56,0,0,0-.25-1.92,2.63,2.63,0,0,0-1.79-.78A2.53,2.53,0,0,0,245.44,233Z"/><path class="cls-19" d="M239.47,214.43a3.88,3.88,0,0,1,.64,2.87,4,4,0,0,1-2.81-.94,3.83,3.83,0,0,1-.65-2.86A4,4,0,0,1,239.47,214.43Z"/><path class="cls-19" d="M251.22,255.36a4,4,0,0,1-2.76,1.09,3.83,3.83,0,0,1,.47-2.89,4,4,0,0,1,2.76-1.09A3.88,3.88,0,0,1,251.22,255.36Z"/><path class="cls-19" d="M243.25,216.62a2.59,2.59,0,0,1-1.8.75,2.53,2.53,0,0,1,.27-1.91,2.6,2.6,0,0,1,1.81-.75A2.55,2.55,0,0,1,243.25,216.62Z"/><path class="cls-19" d="M238.14,249a3.94,3.94,0,0,1-.33-2.94,3.82,3.82,0,0,1,2.67,1.21,4,4,0,0,1,.32,2.95A3.82,3.82,0,0,1,238.14,249Z"/><path class="cls-19" d="M17,248.6a4.77,4.77,0,0,0,1.13,3.24A4.84,4.84,0,0,0,20.06,249a4.68,4.68,0,0,0-1.13-3.23A4.89,4.89,0,0,0,17,248.6Z"/></g><g id="Layer_2" data-name="Layer 2"><path d="M65.29,157a5.84,5.84,0,0,1-.43,2.29A4.42,4.42,0,0,1,63.61,161a4,4,0,0,1-1.86.87,3.08,3.08,0,0,1-1.85-.15,2.59,2.59,0,0,1-1.26-1.21,4.48,4.48,0,0,1-.45-2.09V158a5.75,5.75,0,0,1,.44-2.3A4.52,4.52,0,0,1,59.88,154a4,4,0,0,1,1.86-.87,3.16,3.16,0,0,1,1.85.15,2.59,2.59,0,0,1,1.26,1.23,4.73,4.73,0,0,1,.44,2.13Zm-1.74,0a3.25,3.25,0,0,0-.47-2,1.27,1.27,0,0,0-1.34-.44,2,2,0,0,0-1.34,1,4.1,4.1,0,0,0-.47,2.11V158A3.21,3.21,0,0,0,60.4,160a1.25,1.25,0,0,0,1.35.46,1.91,1.91,0,0,0,1.33-.95,4.12,4.12,0,0,0,.47-2.11Z"/><path d="M73.33,159.5l-1.72.34-3.35-5v5.61l-1.72.33v-8.53l1.72-.33,3.35,5V151.3l1.72-.33Z"/><path d="M79.85,154.55l-3.3.64v2.28l3.87-.74v1.41l-5.59,1.07v-8.53l5.58-1.07V151l-3.86.75v2l3.3-.64Z"/><path d="M90.29,149.13l-2.56.49v7.11l-1.72.33V150l-2.52.49V149l6.8-1.3Z"/><path d="M93.1,155.7l-1.72.33V147.5l1.72-.34Z"/><path d="M101.24,151.28a3.74,3.74,0,0,1-1,2.36,4.2,4.2,0,0,1-2.37,1.25,2.61,2.61,0,0,1-2.52-.62,3.92,3.92,0,0,1-.92-2.85v-.52a5.85,5.85,0,0,1,.42-2.25A4.43,4.43,0,0,1,96.07,147a4,4,0,0,1,1.84-.85,2.93,2.93,0,0,1,2.32.34,2.64,2.64,0,0,1,1,2l-1.72.33a1.46,1.46,0,0,0-.45-1.11,1.43,1.43,0,0,0-1.17-.15,1.8,1.8,0,0,0-1.29.88,4,4,0,0,0-.44,2v.64a3.43,3.43,0,0,0,.41,1.94,1.16,1.16,0,0,0,1.29.39,2,2,0,0,0,1.19-.6,2.07,2.07,0,0,0,.45-1.23Z"/><path d="M105,150l-.89,1.16v2.44l-1.72.33v-8.53l1.72-.33v3.86l.76-1.2,2.12-3.22,2.12-.41-3,4.37,3,4.15-2,.39Z"/><path d="M114.84,147.81l-3.3.63v2.29l3.87-.75v1.41l-5.59,1.08v-8.53l5.58-1.07v1.42l-3.86.74v2l3.3-.64Z"/><path d="M122.82,142.86l-2.56.49v7.11l-1.72.33v-7.11l-2.52.49v-1.42l6.8-1.31Z"/><path d="M65.16,169.27v3l-1.72.33v-8.53l3.26-.63a3.49,3.49,0,0,1,1.65,0,2,2,0,0,1,1.1.79,2.42,2.42,0,0,1,.38,1.4,3,3,0,0,1-.83,2.14A4.24,4.24,0,0,1,66.67,169Zm0-1.42,1.54-.3a1.82,1.82,0,0,0,1-.53,1.43,1.43,0,0,0,.36-1,1.2,1.2,0,0,0-.36-1,1.14,1.14,0,0,0-1-.2l-1.58.3Z"/><path d="M76,166.49l-3.31.63v2.29l3.88-.75v1.41L71,171.15v-8.53l5.59-1.08V163l-3.87.74v2l3.31-.64Z"/><path d="M80.71,166.16l-1.37.26v3.13l-1.72.33v-8.53l3.1-.6A3.12,3.12,0,0,1,83,161a1.94,1.94,0,0,1,.8,1.75,3,3,0,0,1-.37,1.53,3.4,3.4,0,0,1-1.12,1.15l1.81,3.13v.09l-1.85.35ZM79.34,165l1.38-.27a1.73,1.73,0,0,0,1-.53,1.48,1.48,0,0,0,.35-1,1.11,1.11,0,0,0-.33-.89,1.2,1.2,0,0,0-1-.15l-1.38.27Z"/><path d="M94.82,166.56l-1.72.33v-3.65l-3.35.64v3.66l-1.72.33v-8.53l1.72-.33v3.46l3.35-.65v-3.46l1.72-.33Z"/><path d="M101.34,161.61l-3.3.64v2.28l3.88-.75v1.42l-5.6,1.07v-8.53l5.58-1.07v1.42l-3.86.74v2l3.3-.64Z"/><path d="M107.63,162.34l-3,.58-.57,1.87-1.83.35,3.11-9.13,1.59-.31,3.12,7.93-1.83.35Zm-2.55-.94,2.09-.4-1-3Z"/><path d="M110.82,163.48V155l2.57-.5a3.58,3.58,0,0,1,2,.13,2.63,2.63,0,0,1,1.35,1.18,3.94,3.94,0,0,1,.49,2v.39a5.1,5.1,0,0,1-.48,2.21,4.61,4.61,0,0,1-3.31,2.59Zm1.72-7.44v5.7l.83-.16a2.33,2.33,0,0,0,1.54-1,3.59,3.59,0,0,0,.55-2v-.45a2.71,2.71,0,0,0-.53-1.87,1.56,1.56,0,0,0-1.54-.37Z"/><path d="M183.44,153.81l-1.75-.31-3.4-6.22v5.62l-1.76-.31v-8.53l1.76.31,3.41,6.23V145l1.74.31Z"/><path d="M192,151.25a4.6,4.6,0,0,1-.44,2.13,2.63,2.63,0,0,1-1.27,1.24,3.28,3.28,0,0,1-1.89.18,4.17,4.17,0,0,1-1.89-.85,4.31,4.31,0,0,1-1.28-1.68,5.44,5.44,0,0,1-.46-2.26v-.42a4.67,4.67,0,0,1,.45-2.14,2.61,2.61,0,0,1,1.28-1.24,3.1,3.1,0,0,1,1.88-.18,4.07,4.07,0,0,1,1.89.85,4.34,4.34,0,0,1,1.28,1.69,5.75,5.75,0,0,1,.45,2.3Zm-1.77-.7a4,4,0,0,0-.48-2.13,2,2,0,0,0-1.37-.94,1.31,1.31,0,0,0-1.35.45,3.1,3.1,0,0,0-.49,1.93v.42a4.09,4.09,0,0,0,.48,2.11,2,2,0,0,0,1.38,1,1.3,1.3,0,0,0,1.35-.46,3.14,3.14,0,0,0,.48-1.94Z"/><path d="M154.25,156.14l-3.36-.59v2.28l3.94.7v1.41l-5.69-1V150.4l5.68,1v1.42l-3.93-.69v2l3.36.59Z"/><path d="M158.9,155.07l1.59-2.66,2,.36L160,156.56l2.54,4.75-2-.36-1.64-3.28-1.63,2.7-2-.36,2.54-3.85-2.48-4.67,2,.36Z"/><path d="M170.12,159.81a2.46,2.46,0,0,1-1,2,3.14,3.14,0,0,1-2.41.36,3.9,3.9,0,0,1-2.57-1.56,5.25,5.25,0,0,1-.93-3.2v-.52a4.61,4.61,0,0,1,.43-2.09,2.55,2.55,0,0,1,1.23-1.22,3.2,3.2,0,0,1,1.87-.17,4.16,4.16,0,0,1,2.37,1.21,3.93,3.93,0,0,1,1,2.41l-1.75-.31a2.1,2.1,0,0,0-.45-1.28,2.07,2.07,0,0,0-1.2-.59,1.26,1.26,0,0,0-1.31.4,3.15,3.15,0,0,0-.45,1.88v.64a4.23,4.23,0,0,0,.42,2.1,1.82,1.82,0,0,0,1.31.87,1.6,1.6,0,0,0,1.22-.16,1.43,1.43,0,0,0,.45-1.07Z"/><path d="M176.39,160.06l-3.37-.59v2.28l3.95.7v1.41l-5.7-1v-8.54l5.69,1v1.42l-3.94-.69v2l3.37.6Z"/><path d="M179.75,161.35v3l-1.75-.31v-8.54l3.31.59a4.59,4.59,0,0,1,1.69.65,3.35,3.35,0,0,1,1.11,1.2,3.18,3.18,0,0,1,.39,1.54,2,2,0,0,1-.85,1.83,3.19,3.19,0,0,1-2.37.3Zm0-1.42,1.56.27a1.31,1.31,0,0,0,1.06-.14,1,1,0,0,0,.37-.87,1.68,1.68,0,0,0-.37-1.08,1.74,1.74,0,0,0-1-.58l-1.6-.28Z"/><path d="M192.1,159.44l-2.6-.46v7.1l-1.75-.31v-7.1l-2.57-.46v-1.42L192.1,158Z"/><path d="M195,167.05l-1.75-.31v-8.53l1.75.31Z"/><path d="M203.56,164.5a4.6,4.6,0,0,1-.44,2.13,2.61,2.61,0,0,1-1.27,1.25,3.2,3.2,0,0,1-1.89.17,4.06,4.06,0,0,1-1.89-.84,4.38,4.38,0,0,1-1.28-1.68,5.6,5.6,0,0,1-.46-2.26v-.42a4.64,4.64,0,0,1,.45-2.14,2.63,2.63,0,0,1,1.28-1.25,3.2,3.2,0,0,1,1.89-.17,4.17,4.17,0,0,1,1.88.84,4.38,4.38,0,0,1,1.28,1.7,5.71,5.71,0,0,1,.45,2.29Zm-1.77-.7a4,4,0,0,0-.48-2.12,1.92,1.92,0,0,0-1.36-.94,1.32,1.32,0,0,0-1.36.45,3.15,3.15,0,0,0-.49,1.93v.42a4.09,4.09,0,0,0,.48,2.11,1.91,1.91,0,0,0,1.38,1,1.27,1.27,0,0,0,1.35-.45,3.14,3.14,0,0,0,.48-1.94Z"/><path d="M211.75,170l-1.75-.31-3.41-6.22v5.61l-1.75-.31v-8.53l1.75.31,3.41,6.23v-5.62l1.75.31Z"/><path d="M217.68,168.84a1.07,1.07,0,0,0-.35-.83,5.38,5.38,0,0,0-1.26-.78,11.56,11.56,0,0,1-1.44-.84,3,3,0,0,1-1.45-2.37,1.8,1.8,0,0,1,.39-1.17,2,2,0,0,1,1.12-.65,4,4,0,0,1,1.63,0,4.24,4.24,0,0,1,1.62.62,3.42,3.42,0,0,1,1.11,1.13,2.83,2.83,0,0,1,.39,1.44l-1.75-.31a1.36,1.36,0,0,0-.37-1,1.8,1.8,0,0,0-1-.51,1.5,1.5,0,0,0-1,.1.7.7,0,0,0-.36.65,1,1,0,0,0,.42.77,5.79,5.79,0,0,0,1.23.75,6.85,6.85,0,0,1,2.18,1.5,2.7,2.7,0,0,1,.68,1.79,1.69,1.69,0,0,1-.84,1.59,3.27,3.27,0,0,1-2.24.23,5,5,0,0,1-1.79-.68,3.72,3.72,0,0,1-1.23-1.2,2.94,2.94,0,0,1-.42-1.53l1.76.31q0,1.41,1.68,1.71a1.43,1.43,0,0,0,1-.08A.68.68,0,0,0,217.68,168.84Z"/></g></svg>