<svg xmlns="http://www.w3.org/2000/svg" viewBox="0 0 34 34" width="34" height="34" preserveAspectRatio="none"><defs><style>.cls-1{fill:#ffce41;}</style></defs><title>SettingsTight</title><g id="Header_Buttons" data-name="Header Buttons"><path class="cls-1" d="M23.4,17a5,5,0,1,1-10,0c0-2.78,1.79-5,4.56-5a5.17,5.17,0,0,1,5.49,5m10.05.46-2.74-6.4L26.14,12,23.4,8.32l1.82-4.57L18.83,1,16.09,8.32l-3.66.91L8.78,4.66,5.12,10.15,9.69,13.8l-.91,3.66L.55,19.28l4.57,8.23,6.4-3.66,2.74,2.74-1.83,5.49,5.48.91,1.83-6.4H23.4l2.74,4.57,4.57-4.57-4.57-4.32.91-3.53Z"/></g></svg>