<svg xmlns="http://www.w3.org/2000/svg" viewBox="0 0 60 40" width="60" height="40" preserveAspectRatio="none"><defs><style>.cls-1{fill:#fff;}</style></defs><title>BA1 copy 2</title><g id="Header_Buttons" data-name="Header Buttons"><path class="cls-1" d="M30.91994,9.05775h-5.0603L19.99605,25.17689c4.1972,3.34082,2.54059,8.44769-2.32807,10.57h5.343l1.31171-3.973h8.209l1.23725,3.973h6.85992Zm-4.7602,17.24286,2.399-7.12177,2.24872,7.12177Z"/><path class="cls-1" d="M16.09787,23.80462C26.66132,15.54649,22.10913,7.6969,14.90148,7.6969c-.05556,0-.10885.00347-.16375.00433-.56068-.65531-1.4635-1.31059-1.99565-1.2591-.64777.06268-1.99381,1.544-2.48376,2.53172a7.942,7.942,0,0,0-1.9262,1.73479,2.44911,2.44911,0,0,0-1.63037.72338,3.4976,3.4976,0,0,0,.14588,2.00724,9.39587,9.39587,0,0,0-.31328,1.15858c-2.41142.15352-3.53859,2.21861-3.53859,6.63888,0,10.24241,3.61836,14.73622,9.71715,14.70705C21.5547,35.94377,25.40657,27.0145,16.09787,23.80462Zm.642-4.98989c.02918-.05835.05846-.1459.08753-.20425.02928-.05838.05835-.14593.08763-.20428s.05835-.14591.08753-.20426c.05835-.1459.08752-.2918.14587-.40853.08753-.29181.17505-.55444.2334-.81707s.11681-.49605.17516-.72951c.02918-.23345.08753-.43771.1167-.642s.05835-.35015.08753-.496a2.60325,2.60325,0,0,0,.05835-.321v-.17507a.46018.46018,0,0,0,.02917.1167,1.89717,1.89717,0,0,0,.05846.321c.02907.14591.02907.321.05835.52524a4.75207,4.75207,0,0,1,.02907.67116,7.406,7.406,0,0,1-.02907.78789c-.02928.29181-.08763.58361-.146.87542a6.49849,6.49849,0,0,1-.26258.93376c-.02917.08756-.05835.14591-.08752.23346s-.05835.1459-.08764.23345a3.24309,3.24309,0,0,1-.20422.46689c-.08753.1459-.14588.2918-.2334.4377s-.17516.29181-.26269.40854c-.05835.05835-.08752.1459-.14587.20425a1.236,1.236,0,0,0-.14588.20428c-.08752.1167-.20433.2626-.29186.37933a3.09207,3.09207,0,0,0-.29175.35018,3.20711,3.20711,0,0,1-.29186.321,4.731,4.731,0,0,1-.58361.52526c-.20423.14591-.37938.29181-.52526.40854s-.32093.20425-.43763.2918a1.09444,1.09444,0,0,1-.29186.17508.36078.36078,0,0,0-.08752.05835.36135.36135,0,0,0,.05835-.08753,2.82552,2.82552,0,0,0,.20422-.26263c.08753-.11672.20434-.23345.321-.37935s.26258-.321.40856-.52526c.08752-.08753.14587-.20426.2334-.29181a3.05192,3.05192,0,0,0,.2334-.321c.08763-.11673.17516-.23345.23351-.321l.26258-.35018a4.28994,4.28994,0,0,0,.2335-.37933,2.66384,2.66384,0,0,0,.23341-.37936c.08752-.11673.14587-.26263.2335-.40853.05836-.14591.14588-.26263.20423-.40854a2.66784,2.66784,0,0,0,.20423-.40853C16.68148,18.96063,16.71066,18.87308,16.73983,18.81473ZM12.59944,7.10793a1.48607,1.48607,0,0,1,.33567-.00333,2.01645,2.01645,0,0,1,.81109.34294,1.88975,1.88975,0,0,1,.34946.2844,2.3354,2.3354,0,0,1,.25558.31014,1.67785,1.67785,0,0,1,.18614.34194s-.14049-.07049-.34149-.16525a4.662,4.662,0,0,1-.67792-.41289l-.01367-.0087c-.11423-.08349-.2306-.13317-.34472-.21956l-.29778-.204c-.09926-.068-.15492-.0404-.2348-.08655-.04123-.00248-.46853.062-.46853.062S12.53635,7.12481,12.59944,7.10793Zm-2.52467,2.456a.26264.26264,0,0,0,.09947.234c.70031.49606,4.55218-.4377,4.98981-.963a.30417.30417,0,0,0,.065-.21588c.88063.27-.97947,1.38022-3.07061,1.73328C9.8686,10.734,9.31008,10.16166,10.07477,9.56392ZM6.93515,11.753a.95657.95657,0,0,1,.17506-.23343A1.88937,1.88937,0,0,1,7.869,11.111a1.6739,1.6739,0,0,1,.18862-.04253,2.27233,2.27233,0,0,1,.65757-.01582,1.67964,1.67964,0,0,1,.37939.08752s-.14588.05838-.35021.14591a4.65887,4.65887,0,0,1-.75867.23345,2.69272,2.69272,0,0,0-.28184.0805,1.21544,1.21544,0,0,1-.12671.03623l-.35011.08752a2.74714,2.74714,0,0,0-.26268.08756.14409.14409,0,0,1-.08753.02917A.36064.36064,0,0,0,6.93515,11.753ZM7.723,14.817c.64207-.23345,1.926-3.26823,1.78012-3.85185a.24919.24919,0,0,0-.07353-.11613c.59534-.23975.42826.70408-.335,2.62568-.75059,1.91829-1.8164,2.3757-1.7391,1.128C7.47969,14.76953,7.606,14.85794,7.723,14.817Zm.06449,1.265a3.37412,3.37412,0,0,1,.6651,1.68225c.29176,1.69249-.29185,2.88888-.87546,1.51738l-.00485-.013c.25515.14965.46756.209.55928.10058C8.45872,18.96017,8.09807,16.667,7.78748,16.082ZM4.77576,23.51281c.02929.49606.05835.963.08764,1.42986.02906.46688.08752.93379.14587,1.40067.1167.90459.26258,1.75083.37928,2.45117.146.72951.29186,1.31312.37938,1.72166.1167.40853.17505.67116.17505.67116a1.51668,1.51668,0,0,0-.08752-.1459c-.05835-.11673-.14588-.26263-.2334-.43771-.08753-.20425-.20423-.43771-.321-.70034q-.17505-.4377-.3501-.963a18.96174,18.96174,0,0,1-.642-2.48034,11.22658,11.22658,0,0,1-.20433-1.42985c-.05835-.49609-.08753-.99215-.1167-1.48823a12.66081,12.66081,0,0,1,0-1.4882c.02917-.49609.05835-.963.1167-1.42985a14.03173,14.03173,0,0,1,.52526-2.50955,7.36,7.36,0,0,1,.37938-.963,4.46357,4.46357,0,0,1,.43763-.67113,1.876,1.876,0,0,1,.37938-.35019l.05835-.05835.02918-.02917a.02857.02857,0,0,0,.02917.02917c-.02917,0-.05835.02918-.1167.05835l-.02917.02918a1.22965,1.22965,0,0,0-.26258.40853,6.01034,6.01034,0,0,0-.26268.70034c-.08753.2918-.14588.61279-.2334.963-.1167.70034-.20434,1.54658-.26269,2.45117-.02917.4377-.02917.93379-.02917,1.40067S4.74659,23.04593,4.77576,23.51281Zm1.69248-5.83613a.22586.22586,0,0,0-.02917.08755.2258.2258,0,0,0-.02918-.08755.62286.62286,0,0,1,0-.23345,1.18545,1.18545,0,0,1,.29186-.61279,1.88822,1.88822,0,0,1,.26258-.23343.61589.61589,0,0,1,.29186-.11672A.49238.49238,0,0,1,7.34,16.46352a1.01185,1.01185,0,0,1,.14964-.01244.12772.12772,0,0,1,.08753.02921l-.05835.05835-.14588.1459c-.00883.01176-.0239.029-.03381.04188a4.31256,4.31256,0,0,1-.34558.39583c-.14587.1459-.26257.2918-.37938.40853C6.55577,17.58913,6.5267,17.64751,6.46824,17.67668Zm6.15714,15.26148c-3.41521,0-4.05642-5.42222-3.07189-10.96283A3.10188,3.10188,0,0,1,6.9175,19.091a3.46274,3.46274,0,0,0,2.79328,2.15791,4.64146,4.64146,0,0,0,1.89326-.24562c-.72949-2.50952-.175-7.67449,3.064-7.67449,1.98424,0,4.202,4.87316-4.55218,11.70144C16.68148,27.744,16.36056,32.93816,12.62538,32.93816Zm4.37714-2.24692a5.21151,5.21151,0,0,1-.05835.67117,4.51059,4.51059,0,0,1-.17516.67116,3.48429,3.48429,0,0,1-.75866,1.1964,1.81652,1.81652,0,0,1-.52526.40853,2.07161,2.07161,0,0,1-.52526.23345.85182.85182,0,0,1-.26258.05835c-.08763,0-.146.02918-.23351.02918h-.37928c-.08763,0-.17505-.02918-.23351-.02918a.12778.12778,0,0,1-.08752-.02917A.22577.22577,0,0,0,13.851,33.872a1.05862,1.05862,0,0,0,.20434-.08755c.05835-.02917.08752-.02917.14587-.05835l.17506-.08755.17505-.08755c.05835-.02918.1168-.08753.17515-.11673.05835-.05835.11671-.08753.17506-.1459l.08752-.08753.08763-.08755a5.08209,5.08209,0,0,0,.35011-.40853.63534.63534,0,0,0,.14587-.23343,1.63787,1.63787,0,0,1,.14588-.23346,4.11818,4.11818,0,0,0,.23351-.52526c.05835-.17507.1167-.37933.17505-.55443a1.037,1.037,0,0,0,.05835-.29181c.02917-.08752.02917-.20425.05845-.2918a3.58858,3.58858,0,0,0,.05836-.55444c0-.17508.02906-.35015.02906-.49606v-.75868c0-.08756-.02906-.17511-.02906-.23346a.09052.09052,0,0,0,.02906-.05835l.05846.05835a1.26876,1.26876,0,0,1,.1167.20428.63763.63763,0,0,1,.08753.1459l.08752.17508a3.39639,3.39639,0,0,1,.17516.43771,3.09913,3.09913,0,0,1,.1167.55443A2.3181,2.3181,0,0,1,17.00252,30.69124Z"/><path class="cls-1" d="M54.917,16.14664,47.1577,12.99857l-7.18995,1.3078L35.903,19.1788l4.6878,12.72589,4.76947,2.56769,9.21857-2.07525,3.41693-7.72077ZM51.89268,30.16092l-3.40735-.426-.426-4.56952h-2.981v4.99548L42.097,29.735V25.16544l-2.98139-.54132L41.671,19.51334,46.35588,16.106l2.98138,2.55542.426-2.55542,1.7035.85193V20.7908l2.12939,3.40735H51.46672Z"/></g></svg>