<svg xmlns="http://www.w3.org/2000/svg" viewBox="0 0 30 30" width="30" height="30" preserveAspectRatio="none"><defs><style>.cls-1{fill:#ffffff;}</style></defs><title>Projector copy</title><g id="Header_Buttons" data-name="Header Buttons"><path class="cls-1" d="M23.98316,16.42905l.47319-4.24052-2.84848.16584a6.287,6.287,0,0,0,3.23727-5.48724A6.11894,6.11894,0,0,0,18.53423.55622a6.31091,6.31091,0,0,0-6.31091,6.31091c0,.16324.01228.32338.02444.48352A4.25973,4.25973,0,0,0,8.36481,4.83289,4.09011,4.09011,0,0,0,4.09916,9.09855a4.25242,4.25242,0,0,0,3.13291,4.09291l-2.36357.1376.744,9.51139,5.99237.308-3.0952,5.57577,2.336.85457,2.398-6.34612,2.78028.14291,2.32176,6.17073L20.497,28.6348l-2.8529-5.14044,5.52289.24847.417-3.73661,2.63072,1.003.27127-5.7794ZM12.72655,8.79023l-.00232-.02332A6.09425,6.09425,0,0,0,16.0479,12.239l-.86126.05017-4.72077.15369A4.09672,4.09672,0,0,0,12.72655,8.79023Z"/></g></svg>