<?xml version="1.0" encoding="utf-8"?>
<!-- Generator: Adobe Illustrator 20.0.0, SVG Export Plug-In . SVG Version: 6.00 Build 0)  -->
<!DOCTYPE svg PUBLIC "-//W3C//DTD SVG 1.1//EN" "http://www.w3.org/Graphics/SVG/1.1/DTD/svg11.dtd">
<svg version="1.1" xmlns="http://www.w3.org/2000/svg" xmlns:xlink="http://www.w3.org/1999/xlink" x="0px" y="0px"
	 viewBox="0 0 50 50" enable-background="new 0 0 50 50" xml:space="preserve" width="50" height="50" preserveAspectRatio="none">
<g id="BG" display="none">
</g>
<g id="manny">
	<g>
		<defs>
			<circle id="SVGID_1_" cx="25.1" cy="25" r="19.6"/>
		</defs>
		<clipPath id="SVGID_2_">
			<use xlink:href="#SVGID_1_"  overflow="visible"/>
		</clipPath>
		<path clip-path="url(#SVGID_2_)" fill="#404041" d="M31.8,29.6c6-0.2,8.4-4.7,8.4-4.7s-4-1.1-8.4,0.6c-2.6,1-4.4,3.1-5.5,4.7
			c-0.1-0.1-0.3-0.2-0.4-0.3v-1.1h-0.5c0.2-3.8,1.3-4.9,1.9-5.7c0.8-0.1,1.5-0.6,1.9-1.3c0.4-0.4,0.6-1,0.6-1.6
			c0-1.3-1.1-2.4-2.4-2.3c-1.2,0-2.2,0.9-2.3,2.1c-0.1,0.1-0.1,0.3-0.1,0.4c0,0.1-0.1,0.3-0.1,0.4c-0.6-0.1-1.3-0.2-2.1-0.2
			c0.4-0.9,0.9-2.5,1.3-4.7c0.4-2.5-0.8-4.4-1.6-5.4c0-0.1,0.1-0.2,0.1-0.4c0-0.5-0.4-0.9-0.9-0.9c-0.5,0-0.9,0.4-0.9,0.9
			c0,0.5,0.4,0.9,0.9,0.9c0.1,0,0.1,0,0.2,0l0.5,9.6c-0.6,0-1,0-1.5,0.1c0.1-0.9,0.3-2.7,0.1-5.3c-0.2-2.6-1.9-4.2-3-4.9
			c0,0,0-0.1,0-0.1c0-0.5-0.4-0.9-0.9-0.9c-0.5,0-0.9,0.4-0.9,0.9c0,0.5,0.4,0.9,0.9,0.9c0.2,0,0.3,0,0.4-0.1l3,9.5
			c-0.3,0-0.5,0.1-0.7,0.1c0-0.7-0.3-1.3-0.8-1.8c-0.3-0.5-0.8-0.9-1.5-1.1c-1.3-0.3-2.5,0.5-2.8,1.7c-0.3,1.1,0.3,2.3,1.4,2.7
			c0.3,0.2,0.6,0.4,1,0.5c0.2,0,0.4,0.1,0.6,0.1c0,0.1,0,0.2,0,0.3c0.2,0.9,0.8,1.8,1.3,2.5c-0.3,0.2-0.6,0.5-0.6,1.1
			c-0.2,1.3,1.6,1.4,1.6,1.4s-0.4-0.7-0.2-1.3c0-0.1,0.1-0.2,0.2-0.3c0.2,0,0.4,0,0.7,0c0.1,0.3,0.3,0.5,0.3,0.8
			c0.1,0.6-0.5,1.3-0.5,1.3s1.8,0.4,2-1c0.1-0.6-0.1-1-0.3-1.3c0.7-0.2,1.4-0.5,2.2-1c0.1-0.1,0.3-0.2,0.4-0.3
			c-0.2,1-0.4,2.3-0.7,3.7h-0.4l-0.1,1.1l0.1,0c-0.2,0.3-0.4,0.7-0.6,1.1c-1.8-1-3.5-1.8-3.7-1.7c-0.1,0.1-0.2,0.2-0.2,0.4
			c0,0-0.1,0.1-0.1,0.1c-1.1-0.9-2-1.6-2.1-1.5c-0.1,0.1-0.2,0.2-0.3,0.4c-0.3,0.1-0.9,0.7-1.1,2.7c-0.2,2.8,0.4,6.1,0.9,6.8
			c0.4,0.7,1.3,0.7,1.3,0.7l-0.9-1.1l0.3-1.7l-0.3,0.3l0.4-2.1l-0.5,0.7l0.3-2l-0.5,0.8c0,0,0.4-2.1,0.6-3.4
			c0.4,0.5,0.9,1.2,1.5,1.8c0,0.2,0,0.3,0,0.5c0.3,2.8,1.6,5.9,2.2,6.5c0.6,0.6,1.5,0.4,1.5,0.4l-1.2-0.9l-0.1-1.8l-0.3,0.3l0-2.1
			l-0.4,0.8l-0.1-2l-0.3,0.8c0,0,0-0.6,0-1.4c0.3,0.2,0.5,0.3,0.8,0.5c0.6,0.3,1.2,0.5,1.6,0.7c0,0.6,0,1.2,0,1.7l0,0
			c0,0.1,0,0.2,0,0.3c0,0,0,0.1,0,0.1c0,0.1,0,0.2,0,0.2c0,0,0,0,0,0.1c0,0.1,0,0.2,0,0.3c0,0,0,0.1,0,0.1c0,0.1,0,0.1,0,0.2
			c0,0,0,0,0,0.1c0,0.1,0,0.1,0,0.2c0,0,0,0,0,0.1c0,0,0,0.1,0,0.1c0,0,0,0,0,0.1c0,0.1,0,0.1,0,0.1c0,0,0,0,0,0c0,0,0,0.1,0,0.1
			c0,0,0,0,0,0c0,0,0,0.1,0,0.1c0,0,0,0,0,0c0,0,0,0,0,0c0,0,0,0,0,0c0,0,0,0,0,0s0.2,0.1,0.5,0.2l-1.8,3l3,5l-1.2,0.7
			c0,0,2.1,0.2,2.4-0.1c0.3-0.4,0.3-1,0.3-1l-1-1.1l0.5-0.1l-0.9-0.5L23.7,44l0.5-0.1l-1.1-0.5L23,43.2l0.6-0.1l-1.3-0.6l-0.8-0.8
			l2.6-2c0.2,0.1,0.4,0.3,0.7,0.4c0.1,0.1,0.3,0.1,0.4,0.1l-1,1.6l3,5L26,47.3c0,0,2.1,0.2,2.4-0.1s0.3-1,0.3-1L28,45.5l0.5-0.1
			l-1-0.5l-0.3-0.4l0.6-0.1l-1.2-0.6l-0.2-0.2l0.7-0.1l-1.4-0.7l-1.1-1.2l1.8-1.4c0.3,0.1,0.7,0.1,1,0.1l-0.2,0.4l3.3,5.7l-1.4,0.8
			c0,0,2.4,0.2,2.7-0.2c0.4-0.4,0.3-1.1,0.3-1.1l-0.9-1l0.4-0.1l-0.9-0.4l-0.4-0.5l0.5-0.1l-1-0.5l-0.3-0.3l0.6-0.1L29,42.7
			l-1.4-1.6l0.6-0.5c1,0,2-0.2,2.9-0.4l-0.4,0.7l3.3,5.7l-1.4,0.8c0,0,2.4,0.2,2.7-0.2c0.4-0.4,0.3-1.1,0.3-1.1l-0.7-0.7l0.6-0.1
			l-1.1-0.5l-0.3-0.3l0.6-0.1l-1.1-0.5l-0.2-0.2l0.7-0.1l-1.3-0.6L31,41l1.2-1.2c1.5-0.5,2.5-1.1,2.5-1.1s-1.2-2.8-2.8-3.9
			c-1.3-0.9-3.4,0.1-4.5,0.6c0-0.2,0-0.4,0-0.4l-0.1-0.3l0,0l-0.2-0.4C27.7,34.2,28,34,28,34l-0.4-0.9c0.3,0.1,0.7,0.2,1.2,0.2
			c3,0.5,5.4-0.9,5.4-0.9s-2.9-2.1-5.1-1.9c-0.7,0.1-1.4,0.2-2,0.4c0-0.1-0.1-0.1-0.1-0.2C28,30.2,29.6,29.6,31.8,29.6z M27.4,29.6
			c0,0-0.2-0.1-0.6-0.3L26.7,29c0.1,0,0.1,0,0.2,0c0.1,0,0.1,0,0.2,0.1L27.4,29.6z"/>
	</g>
</g>
</svg>
