<svg xmlns="http://www.w3.org/2000/svg" viewBox="0 0 30 30" width="30" height="30" preserveAspectRatio="none"><defs></defs><title>Book</title><g id="Header_Buttons" data-name="Header Buttons"><path fill="#FFCE41" d="M28.22,5.45S21.6,1,15,5.35c0,0-1.86-3.24-13.07-1.77,0,0,.68,12.08-.69,21.49,0,0,11.38-2.13,13.76,2.06,0,0,5.21-5.43,13.67-1.07A200.22,200.22,0,0,0,28.22,5.45Zm-23.41,7C9.32,11.81,12,13,13,13.55l0,1.77c-3-1.25-7.54-1-8.1-.93ZM13,7.7l0,1.91a19,19,0,0,0-8.22-.49l0-2.52A20.27,20.27,0,0,1,13,7.7ZM4.54,21.46l.27-3a19.12,19.12,0,0,1,8.06,1l0,2.28C9.66,20.46,6,21.22,4.54,21.46Zm12.82-8a18.69,18.69,0,0,1,8.75-.05l-.07,2a30,30,0,0,0-8.61-.16Zm8.88-6-.07,1.94a23.33,23.33,0,0,0-9-.13l-.06-1.9C20.06,5.89,22.67,6.8,26.24,7.45Zm-8.59,14-.06-1.81A22.11,22.11,0,0,1,25.91,19l-.08,2.38A20.92,20.92,0,0,0,17.65,21.46Z"/></g></svg>
